<svg version="1.1" xmlns="http://www.w3.org/2000/svg" xmlns:xlink="http://www.w3.org/1999/xlink" width="71.78279" height="68.68022" viewBox="0,0,71.78279,68.68022"><g transform="translate(-204.10861,-145.65989)"><g data-paper-data="{&quot;isPaintingLayer&quot;:true}" fill-rule="nonzero" stroke-linejoin="miter" stroke-miterlimit="10" stroke-dasharray="" stroke-dashoffset="0" style="mix-blend-mode: normal"><g data-paper-data="{&quot;index&quot;:null}"><path d="M260.58415,203.64934l-9.05163,-55.63444" fill="none" stroke="#000000" stroke-width="4.5" stroke-linecap="round"/><path d="M255.34976,157.04681c0,0 -15.18438,-3.27256 -23.02087,-2.26788c-9.0645,1.16211 -28.22028,8.83726 -28.22028,8.83726c0,0 8.92676,-9.52129 17.09896,-12.46903c8.41448,-3.03514 32.68233,-5.48727 32.68233,-5.48727z" fill="#2b2b2b" stroke="none" stroke-width="0" stroke-linecap="butt"/></g><g data-paper-data="{&quot;index&quot;:null}"><path d="M256.8181,214.34011c-10.53389,0 -19.0733,-0.7643 -19.0733,-11.2982c0,-10.53389 8.5394,-19.0733 19.0733,-19.0733c10.5339,0 19.0733,8.53941 19.0733,19.0733c0,10.53389 -8.53941,11.2982 -19.0733,11.2982z" fill="#ffdf28" stroke="none" stroke-width="NaN" stroke-linecap="butt"/><path d="M269.39081,206.36393c-1.92866,0 -3.49215,-2.80617 -3.49215,-6.26776c0,-3.46158 1.56351,-6.26776 3.49215,-6.26776c1.92865,0 3.49213,2.80617 3.49213,6.26776c0,3.46159 -1.56349,6.26776 -3.49213,6.26776z" data-paper-data="{&quot;index&quot;:null}" fill="#000000" stroke="none" stroke-width="0.5" stroke-linecap="butt"/><path d="M243.14983,204.66312c-1.92866,0 -3.49214,-2.80617 -3.49214,-6.26776c0,-3.46158 1.5635,-6.26776 3.49214,-6.26776c1.92865,0 3.49213,2.80617 3.49213,6.26776c0,3.46159 -1.56349,6.26776 -3.49213,6.26776z" data-paper-data="{&quot;index&quot;:null}" fill="#000000" stroke="none" stroke-width="0.5" stroke-linecap="butt"/><path d="M249.72394,199.73137c0,0 4.48044,-0.92794 6.74291,-0.92794c2.09872,0 6.37758,0.92794 6.37758,0.92794" fill="none" stroke="#000000" stroke-width="2" stroke-linecap="round"/><path d="M246.08422,189.6907c3.68026,-2.98917 7.19457,-4.8546 12.05689,-4.17103c0,0 1.60759,0.22966 1.37793,1.83723c-0.22965,1.60758 -1.83723,1.37792 -1.83723,1.37792c-4.04436,-0.5883 -6.8206,1.18704 -9.90747,3.77046l-1.28257,0.37638c0,0 -1.62389,0 -1.62389,-1.6239c0,-1.09274 0.73531,-1.45016 1.21633,-1.56707z" fill="#ffec83" stroke="none" stroke-width="0.5" stroke-linecap="butt"/><path d="M262.7709,189.72302c-0.89686,0 -1.6239,-0.72705 -1.6239,-1.6239c0,-0.89686 0.72705,-1.6239 1.6239,-1.6239c0.89685,0 1.6239,0.72705 1.6239,1.6239c0,0.89685 -0.72705,1.6239 -1.6239,1.6239z" fill="#ffec83" stroke="none" stroke-width="0.5" stroke-linecap="butt"/></g></g></g></svg>