<svg version="1.1" xmlns="http://www.w3.org/2000/svg" xmlns:xlink="http://www.w3.org/1999/xlink" width="56.94236" height="70.95871" viewBox="0,0,56.94236,70.95871"><defs><linearGradient x1="221.06245" y1="198.97918" x2="227.65723" y2="173.54473" gradientUnits="userSpaceOnUse" id="color-1"><stop offset="0" stop-color="#6b539b"/><stop offset="1" stop-color="#705785"/></linearGradient><linearGradient x1="216.95417" y1="214.82378" x2="221.17323" y2="198.55191" gradientUnits="userSpaceOnUse" id="color-2"><stop offset="0" stop-color="#000000"/><stop offset="1" stop-color="#949194"/></linearGradient><linearGradient x1="216.95417" y1="214.82378" x2="221.17323" y2="198.55191" gradientUnits="userSpaceOnUse" id="color-3"><stop offset="0" stop-color="#000000"/><stop offset="1" stop-color="#000000" stop-opacity="0"/></linearGradient><linearGradient x1="216.95417" y1="214.82378" x2="221.17323" y2="198.55191" gradientUnits="userSpaceOnUse" id="color-4"><stop offset="0" stop-color="#000000"/><stop offset="1" stop-color="#000000" stop-opacity="0"/></linearGradient><linearGradient x1="216.95417" y1="214.82378" x2="221.17323" y2="198.55191" gradientUnits="userSpaceOnUse" id="color-5"><stop offset="0" stop-color="#000000"/><stop offset="1" stop-color="#000000" stop-opacity="0"/></linearGradient></defs><g transform="translate(-211.98565,-143.86507)"><g data-paper-data="{&quot;isPaintingLayer&quot;:true}" fill-rule="nonzero" stroke-linejoin="miter" stroke-miterlimit="10" stroke-dasharray="" stroke-dashoffset="0" style="mix-blend-mode: normal"><path d="M246.50433,211.36744l-24.68595,-33.09561l21.51002,-33.09561l24.68595,33.09561z" data-paper-data="{&quot;index&quot;:null}" fill="#009cff" stroke="#0077ff" stroke-width="1.5" stroke-linecap="butt"/><path d="M237.09931,193.19163c0,0 0.13108,-1.77131 1.91276,-1.55526c1.24711,0.15123 1.55707,1.06445 1.6308,1.59884c0.41945,0.78747 1.08307,1.44985 1.65841,2.14256c1.6892,2.03381 3.08965,4.29869 4.78617,6.33996c0,0 1.16717,1.40529 -0.18535,2.50502c-1.35252,1.09974 -2.51968,-0.30555 -2.51968,-0.30555c-2.48118,-2.98933 -5.50275,-6.22249 -7.13565,-9.66101l-0.14745,-1.06455z" data-paper-data="{&quot;index&quot;:null}" fill="#63c3ff" stroke="none" stroke-width="0.5" stroke-linecap="butt"/><path d="M252.81158,162.58848c0,0 -0.13586,1.83628 -1.9829,1.6123c-1.29284,-0.15678 -1.61419,-1.10349 -1.69062,-1.65748c-0.43485,-0.81635 -1.12279,-1.50301 -1.71923,-2.22113c-1.75115,-2.10838 -3.20297,-4.45634 -4.9617,-6.57247c0,0 -1.20997,-1.45682 0.19216,-2.59688c1.40213,-1.14007 2.61208,0.31676 2.61208,0.31676c2.57219,3.09895 5.70457,6.45068 7.39735,10.01532l0.15285,1.10359z" data-paper-data="{&quot;index&quot;:null}" fill="#63c3ff" stroke="none" stroke-width="0.5" stroke-linecap="butt"/><path d="M252.12172,166.91926c-0.04902,-1.02167 0.73946,-1.84989 1.76113,-1.84989c1.02167,0 1.88963,0.82822 1.93865,1.84989c0.04902,1.02167 -0.73946,1.84989 -1.76113,1.84989c-1.02167,0 -1.88963,-0.82822 -1.93865,-1.84989z" data-paper-data="{&quot;index&quot;:null}" fill="#63c3ff" stroke="none" stroke-width="0.5" stroke-linecap="butt"/><g data-paper-data="{&quot;index&quot;:null}"><path d="M252.05885,181.81221c-0.14174,-2.95407 1.07761,-5.34881 2.72349,-5.34881c1.64587,0 3.09504,2.39476 3.23678,5.34881c0.14174,2.95407 -1.07761,5.34881 -2.7235,5.34881c-1.64587,0 -3.09503,-2.39474 -3.23677,-5.34881z" data-paper-data="{&quot;index&quot;:null}" fill="#000000" stroke="none" stroke-width="0.5" stroke-linecap="butt"/><path d="M257.61072,178.65818l-1.09328,0.79189" fill="none" stroke="#000000" stroke-width="2" stroke-linecap="round"/></g><g data-paper-data="{&quot;index&quot;:null}"><path d="M228.74488,181.32853c-0.14174,-2.95407 1.0776,-5.34881 2.72348,-5.34881c1.64587,0 3.09506,2.39475 3.2368,5.34881c0.14174,2.95407 -1.07762,5.34881 -2.72351,5.34881c-1.64587,0 -3.09503,-2.39474 -3.23677,-5.34881z" data-paper-data="{&quot;index&quot;:null}" fill="#000000" stroke="none" stroke-width="0.5" stroke-linecap="butt"/><path d="M229.63816,179.16437l-1.16927,-0.79189" data-paper-data="{&quot;index&quot;:null}" fill="none" stroke="#000000" stroke-width="2" stroke-linecap="round"/></g><path d="M258.56231,175.19041c0,0 -2.14215,0.80435 -3.19419,0.94876c-0.90646,0.12442 -2.74662,-0.13332 -2.74662,-0.13332" fill="none" stroke="#000000" stroke-width="1.5" stroke-linecap="round"/><path d="M259.6101,180.55394c0,0 0.21415,1.33216 0.23037,1.98802c0.01589,0.64253 -0.13403,1.908 -0.13403,1.908" fill="none" stroke="#000000" stroke-width="1.5" stroke-linecap="round"/><g fill="none" stroke="#000000" stroke-width="1.5" stroke-linecap="round"><path d="M240.02387,184.15755c0,0 4.29418,-1.06271 6.06452,-1.39173c1.63076,-0.30308 4.17319,-0.51098 4.17319,-0.51098"/><path d="M248.91988,182.61727c0,0 0.42114,3.96912 -1.15911,4.16784c-1.58025,0.19872 -1.72287,-3.80542 -1.72287,-3.80542z"/></g><g stroke="none" stroke-linecap="butt"><path d="M229.76592,175.0157c0,0 -0.49837,0.10035 -1.3411,2.36478c-0.80935,2.1747 -2.86128,10.2481 -3.0829,12.08687c-0.21366,1.77274 -0.43728,4.88767 -0.62025,5.59335c-0.35375,1.36434 -1.00059,3.85901 -1.00059,3.85901c0,0 -0.66704,0.57586 -1.01933,0.48451c-0.57639,-0.14945 -2.19709,-0.56967 -3.24534,-0.84147c-0.46612,-0.12086 -0.68875,-0.9274 -0.68875,-0.9274c0,0 0.64684,-2.49467 1.00059,-3.85901c0.18303,-0.70589 1.50145,-3.53768 2.17634,-5.19157c0.69961,-1.71446 2.82808,-9.7634 3.17739,-12.05686c0.36411,-2.39059 -0.02253,-2.72216 -0.02253,-2.72216l0.17681,-0.92124l4.7875,1.24472z" fill="url(#color-1)" stroke-width="NaN"/><path d="M220.81377,211.83042c0,-0.4962 0.40224,-0.89843 0.89844,-0.89843c0.4962,0 0.89844,0.40224 0.89844,0.89843c0,0.4962 -0.40224,0.89844 -0.89844,0.89844c-0.4962,0 -0.89844,-0.40225 -0.89844,-0.89844z" fill-opacity="0.59672" fill="#000000" stroke-width="NaN"/><g stroke-width="0"><path d="M221.17323,198.55191c2.08236,0.53993 3.43044,2.28901 2.44417,6.09279c-0.98627,3.80378 -6.66323,10.17908 -6.66323,10.17908c0,0 -1.86396,-8.33055 -0.87769,-12.13433c0.98627,-3.80378 3.01438,-4.67747 5.09675,-4.13754z" fill="url(#color-2)"/><path d="M221.17323,198.55191c2.08236,0.53993 3.43044,2.28901 2.44417,6.09279c-0.98627,3.80378 -6.66323,10.17908 -6.66323,10.17908c0,0 -1.86396,-8.33055 -0.87769,-12.13433c0.98627,-3.80378 3.01438,-4.67747 5.09675,-4.13754z" fill="url(#color-3)"/><path d="M221.17323,198.55191c2.08236,0.53993 3.43044,2.28901 2.44417,6.09279c-0.98627,3.80378 -6.66323,10.17908 -6.66323,10.17908c0,0 -1.86396,-8.33055 -0.87769,-12.13433c0.98627,-3.80378 3.01438,-4.67747 5.09675,-4.13754z" fill="url(#color-4)"/><path d="M221.17323,198.55191c2.08236,0.53993 3.43044,2.28901 2.44417,6.09279c-0.98627,3.80378 -6.66323,10.17908 -6.66323,10.17908c0,0 -1.86396,-8.33055 -0.87769,-12.13433c0.98627,-3.80378 3.01438,-4.67747 5.09675,-4.13754z" fill="url(#color-5)"/></g><path d="M214.3294,213.08042c0,-0.45305 0.36726,-0.82031 0.82031,-0.82031c0.45305,0 0.82031,0.36726 0.82031,0.82031c0,0.45305 -0.36727,0.82032 -0.82031,0.82032c-0.45305,0 -0.82031,-0.36727 -0.82031,-0.82032z" fill-opacity="0.59672" fill="#000000" stroke-width="NaN"/><path d="M223.31377,208.78354c0,-0.4099 0.33229,-0.74218 0.74219,-0.74218c0.4099,0 0.74219,0.33228 0.74219,0.74218c0,0.4099 -0.33229,0.74219 -0.74219,0.74219c-0.4099,0 -0.74219,-0.33229 -0.74219,-0.74219z" fill-opacity="0.59672" fill="#000000" stroke-width="NaN"/><path d="M211.98565,210.42417c0,-0.45305 0.36726,-0.82031 0.82031,-0.82031c0.45305,0 0.82031,0.36726 0.82031,0.82031c0,0.45305 -0.36727,0.82032 -0.82031,0.82032c-0.45305,0 -0.82031,-0.36727 -0.82031,-0.82032z" fill-opacity="0.59672" fill="#000000" stroke-width="NaN"/></g></g></g></svg>