<svg version="1.1" xmlns="http://www.w3.org/2000/svg" xmlns:xlink="http://www.w3.org/1999/xlink" width="58.43886" height="58.43886" viewBox="0,0,58.43886,58.43886"><defs><radialGradient cx="240" cy="179.92794" r="27.21943" gradientUnits="userSpaceOnUse" id="color-1"><stop offset="0" stop-color="#bababa"/><stop offset="1" stop-color="#d8d8d8"/></radialGradient></defs><g transform="translate(-210.78057,-150.70851)"><g data-paper-data="{&quot;isPaintingLayer&quot;:true}" fill-rule="nonzero" stroke-linejoin="miter" stroke-miterlimit="10" stroke-dasharray="" stroke-dashoffset="0" style="mix-blend-mode: normal"><path d="" fill="#ffffff" stroke="none" stroke-width="1" stroke-linecap="butt"/><path d="M212.78057,179.92793c0,-15.03287 12.18655,-27.21942 27.21943,-27.21942c15.03287,0 27.21943,12.18656 27.21943,27.21943c0,15.03287 -12.18655,27.21943 -27.21942,27.21943c-15.03287,0 -27.21942,-12.18655 -27.21942,-27.21942z" fill="#009eff" stroke="#000000" stroke-width="4" stroke-linecap="butt"/><path d="M212.78057,179.92793c0,-15.03287 12.18655,-27.21942 27.21943,-27.21942c15.03287,0 27.21943,12.18656 27.21943,27.21943c0,15.03287 -12.18655,27.21943 -27.21942,27.21943c-15.03287,0 -27.21942,-12.18655 -27.21942,-27.21942z" fill="url(#color-1)" stroke="none" stroke-width="0" stroke-linecap="butt"/><path d="M238.89737,152.73933c2.76171,-0.13808 8.41101,1.07667 8.41101,1.07667l-7.62218,23.41099l-8.71107,-22.86655c0,0 5.24198,-1.48709 7.92224,-1.62111z" fill-opacity="0.40317" fill="#ffffff" stroke="none" stroke-width="0" stroke-linecap="round"/><path d="M212.78057,179.92793c0,-15.03287 12.18655,-27.21942 27.21943,-27.21942c15.03287,0 27.21943,12.18656 27.21943,27.21943c0,15.03287 -12.18655,27.21943 -27.21942,27.21943c-15.03287,0 -27.21942,-12.18655 -27.21942,-27.21942z" fill="none" stroke="#ffffff" stroke-width="1.5" stroke-linecap="butt"/><path d="M232.52382,206.10817l7.44106,-23.31079l8.89743,22.95665c0,0 -5.57399,1.52343 -8.33911,1.53735c-2.68357,0.0135 -7.99937,-1.18321 -7.99937,-1.18321z" data-paper-data="{&quot;index&quot;:null}" fill-opacity="0.40317" fill="#ffffff" stroke="none" stroke-width="0" stroke-linecap="round"/><g stroke-linecap="butt"><path d="M234.51222,179.92793c0,-3.03082 2.45697,-5.48779 5.4878,-5.48779c3.03082,0 5.4878,2.45696 5.4878,5.48779c0,3.03082 -2.45697,5.4878 -5.4878,5.4878c-3.03082,0 -5.4878,-2.45697 -5.4878,-5.4878z" fill="none" stroke="#ffffff" stroke-width="3"/><path d="M234.51222,179.92793c0,-3.03082 2.45697,-5.48779 5.4878,-5.48779c3.03082,0 5.4878,2.45696 5.4878,5.48779c0,3.03082 -2.45697,5.4878 -5.4878,5.4878c-3.03082,0 -5.4878,-2.45697 -5.4878,-5.4878z" fill="#ffffff" stroke="#000000" stroke-width="1"/></g></g></g></svg>