<svg version="1.1" xmlns="http://www.w3.org/2000/svg" xmlns:xlink="http://www.w3.org/1999/xlink" width="157.16888" height="144.1788" viewBox="0,0,157.16888,144.1788"><defs><linearGradient x1="233.62544" y1="109.07989" x2="239.99996" y2="239.49892" gradientUnits="userSpaceOnUse" id="color-1"><stop offset="0" stop-color="#fea32c"/><stop offset="1" stop-color="#ff7a00"/></linearGradient><linearGradient x1="174.38932" y1="160.10704" x2="190.50656" y2="182.4132" gradientUnits="userSpaceOnUse" id="color-2"><stop offset="0" stop-color="#fea32c"/><stop offset="1" stop-color="#ff7a00"/></linearGradient><linearGradient x1="186.04409" y1="162.3671" x2="199.07105" y2="186.6082" gradientUnits="userSpaceOnUse" id="color-3"><stop offset="0" stop-color="#fea32c"/><stop offset="1" stop-color="#ff7a00"/></linearGradient></defs><g transform="translate(-161.24159,-102.07981)"><g data-paper-data="{&quot;isPaintingLayer&quot;:true}" fill-rule="nonzero" stroke-linejoin="miter" stroke-miterlimit="10" stroke-dasharray="" stroke-dashoffset="0" style="mix-blend-mode: normal"><g stroke="none" stroke-width="0" stroke-linecap="butt"><g><path d="M166.45971,243.09337c0,0 29.1376,-46.66887 40.70462,-69.74815c8.36198,-16.6844 19.70169,-46.23162 24.34575,-58.58655c1.33384,-3.54849 2.09664,-6.0618 2.09664,-6.0618c0,0 2.27206,3.18798 5.48637,7.38767c4.52124,5.9073 10.94376,14.5741 15.67067,22.0757c14.54231,23.07862 58.77649,97.74425 58.77649,97.74425c0,0 -45.3551,0.6811 -69.06368,1.83991c-25.22429,1.2329 -78.01685,5.34898 -78.01685,5.34898z" fill="url(#color-1)"/><path d="M167.56533,243.06683l27.58551,-48.31663c0,0 2.87168,13.0363 6.33375,20.36344c4.01979,8.50747 40.91931,22.11964 40.91931,22.11964z" fill="#ed6b00"/></g><path d="M231.66875,121.53303l2.94511,-7.82269l22.00042,31.17539z" fill="#ff9410"/></g><g fill="none"><path d="M207.16436,173.34525c8.36198,-16.6844 19.70169,-46.23162 24.34575,-58.58655c1.33384,-3.54849 2.08814,-6.23573 2.08814,-6.23573c0,0 2.28056,3.36191 5.49487,7.5616c4.52124,5.9073 74.44716,119.81996 74.44716,119.81996c0,0 -45.3551,0.6811 -69.06368,1.83991c-25.22429,1.2329 -78.01685,5.34898 -78.01685,5.34898c0,0 29.13759,-46.66888 40.70461,-69.74816z" stroke="#ffb800" stroke-width="5.5" stroke-linecap="butt"/><g stroke="#ffcc4d" stroke-width="3" stroke-linecap="round"><path d="M219.29598,145.94187l12.07321,-30.5372"/><path d="M213.57378,159.78738l2.98255,-7.05666"/></g></g><path d="M246.05142,190.2423c-5.28844,0.25849 -9.89102,-0.72535 -10.08747,-4.74455c-0.19645,-4.0192 3.93142,-7.48698 9.21985,-7.74546c5.28843,-0.25849 9.73481,2.7902 9.93126,6.8094c0.19645,4.0192 -3.7752,5.42212 -9.06364,5.68061z" fill="#da720b" stroke="none" stroke-width="0" stroke-linecap="butt"/><path d="M217.57894,197.21745c-1.90382,0.09305 -3.49749,-0.86042 -3.55953,-2.12965c-0.06204,-1.26924 1.43105,-2.37356 3.33488,-2.46662c1.90382,-0.09305 3.49748,0.8604 3.55951,2.12964c0.06204,1.26924 -1.43104,2.37358 -3.33486,2.46663z" fill="#da720b" stroke="none" stroke-width="0" stroke-linecap="butt"/><path d="M270.24872,190.80371c-1.90384,0.09305 -3.4975,-0.8604 -3.55953,-2.12964c-0.06203,-1.26924 1.43105,-2.37358 3.33488,-2.46663c1.90384,-0.09305 3.4975,0.86042 3.55953,2.12965c0.06203,1.26924 -1.43104,2.37356 -3.33488,2.46662z" fill="#da720b" stroke="none" stroke-width="0" stroke-linecap="butt"/><path d="M178.95984,156.80462l21.61467,18.33407c0,0 -8.0279,2.64794 -11.87208,4.31901c-3.92824,1.70762 -11.4507,5.81937 -11.4507,5.81937z" fill="url(#color-2)" stroke="#ffb800" stroke-width="5.5" stroke-linecap="butt"/><g fill="#362109" stroke="none" stroke-width="0" stroke-linecap="butt"><path d="M232.2655,197.24365c-4.79484,0.23436 -8.96544,-5.37831 -9.3153,-12.5362c-0.34986,-7.1579 3.25351,-13.15052 8.04835,-13.38488c4.79484,-0.23436 8.96547,5.37829 9.31533,12.53619c0.34986,7.15793 -3.25353,13.15053 -8.04838,13.3849z"/><path d="M261.00145,195.07747c-4.79484,0.23436 -8.96547,-5.37831 -9.31534,-12.5362c-0.34986,-7.15793 3.25353,-13.15053 8.04838,-13.38489c4.79483,-0.23436 8.96545,5.37831 9.31531,12.5362c0.34986,7.15793 -3.25352,13.15053 -8.04835,13.3849z"/></g><path d="M234.53889,213.83126l-13.2,2" fill="none" stroke="#3e260a" stroke-width="5" stroke-linecap="round"/><path d="M218.73889,164.03125c0,0 6.70967,1.27265 9.88155,1.45494c2.42538,0.13939 7.51845,-0.45494 7.51845,-0.45494" fill="none" stroke="#3e260a" stroke-width="5" stroke-linecap="round"/><path d="M252.94538,164.28071c0,0 5.41859,-0.31621 7.74317,-0.84976c3.10736,-0.71321 9.24384,-3.04914 9.24384,-3.04914" data-paper-data="{&quot;index&quot;:null}" fill="none" stroke="#3e260a" stroke-width="5" stroke-linecap="round"/><g><path d="M177.53613,132.94197l13.55193,-2.18703l1.39846,1.24768l7.11146,44.06623l-13.55193,2.18703l-1.34053,-0.8887z" fill="#f4f4f5" stroke="#f4f4f5" stroke-width="1" stroke-linecap="round"/><path d="M179.12859,134.25043l-1.3695,-1.06818" fill="none" stroke="#f4f4f5" stroke-width="1" stroke-linecap="round"/><g stroke="none" stroke-linecap="butt"><path d="M186.02921,178.58895l-7.20125,-44.62266l14.01862,-2.26234l7.20125,44.62266z" fill="#f5f5f5" stroke-width="NaN"/><g fill="#cdcdcd" stroke-width="0"><path d="M186.45319,147.32204l-1.43387,-8.88504l3.35657,-0.54169l1.43387,8.88504z"/><path d="M192.1279,143.57002l-8.88504,1.43387l-0.54169,-3.35657l8.88504,-1.43388z"/></g><path d="M186.12884,152.84424c-0.26397,-1.63569 0.84802,-3.17568 2.48372,-3.43965c1.63569,-0.26397 3.17568,0.84802 3.43965,2.48372c0.26397,1.63569 -0.84803,3.17568 -2.48373,3.43965c-1.63569,0.26397 -3.17567,-0.84802 -3.43964,-2.48372z" fill="#cdcdcd" stroke-width="0"/></g></g><path d="M181.07713,165.03626l26.35926,10.8989c0,0 -6.94339,5.02116 -10.08356,7.7134c-3.28852,2.81946 -9.22305,8.83934 -9.22305,8.83934z" fill="url(#color-3)" stroke="#ffb800" stroke-width="5.5" stroke-linecap="butt"/></g></g></svg>