<svg version="1.1" xmlns="http://www.w3.org/2000/svg" xmlns:xlink="http://www.w3.org/1999/xlink" width="152.0233" height="162.6146" viewBox="0,0,152.0233,162.6146"><defs><linearGradient x1="229.61255" y1="104.16129" x2="217.77434" y2="256.11031" gradientUnits="userSpaceOnUse" id="color-1"><stop offset="0" stop-color="#f2e03f"/><stop offset="1" stop-color="#edc22b"/></linearGradient></defs><g transform="translate(-163.98835,-98.73023)"><g data-paper-data="{&quot;isPaintingLayer&quot;:true}" fill-rule="nonzero" stroke-linejoin="miter" stroke-miterlimit="10" stroke-dasharray="" stroke-dashoffset="0" style="mix-blend-mode: normal"><g fill-opacity="0.74902" fill="#f2aacd" stroke="none" stroke-width="0" stroke-linecap="butt"><g><path d="M166.94028,163.42072c-2.61048,-8.29173 -3.20132,-17.98006 -2.86687,-26.34283c0.23852,-5.96403 0.67151,-11.27542 2.4336,-14.8274c2.76813,-5.57997 6.04221,-3.79351 9.7131,0.87215c1.94245,2.46883 4.50128,4.48324 6.04883,9.39878c1.49111,4.73622 1.72196,10.68367 2.25637,15.83617c1.0684,10.3011 0.99849,19.64637 -1.82308,25.33406c-2.64686,5.33551 -6.2892,4.14087 -9.82205,0.06933c-2.1169,-2.43971 -4.26422,-5.01775 -5.9399,-10.34026z"/><path d="M173.18125,180.6795c1.44022,-2.9032 2.90419,-4.18924 4.33827,-5.39868c2.3933,-2.01836 4.59063,-2.37618 5.6294,0.92328c1.10734,3.51725 0.30683,8.8856 -1.23277,14.7c-0.7701,2.90829 -1.43753,6.30003 -2.71911,8.88343c-1.3301,2.68121 -2.97949,3.60686 -4.31608,4.84868c-2.52594,2.34684 -4.56521,3.07736 -5.65158,-0.37329c-0.69154,-2.19654 -0.46221,-5.28301 -0.0626,-8.72647c0.56033,-4.82842 1.77081,-10.3342 4.01448,-14.85696z"/></g><g><path d="M301.131,173.8754c-5.5627,4.75858 -11.54646,6.70314 -17.41807,8.52045c-9.79893,3.03287 -19.09135,3.2198 -24.1705,-2.71765c-5.4144,-6.32935 -3.06542,-15.49705 2.34481,-25.29341c2.70614,-4.90003 4.87918,-10.6602 9.82913,-14.89461c5.13736,-4.39472 11.98256,-5.67648 17.43234,-7.56938c10.29919,-3.57727 18.84435,-4.4429 24.15621,1.76657c3.38132,3.95271 3.01477,9.26926 1.99321,15.17229c-1.43244,8.27722 -5.50125,17.60253 -14.16715,25.01572z"/><path d="M281.10504,189.08775c4.30545,5.03299 5.80121,10.74961 5.87856,15.62772c0.05516,3.4789 -0.21274,6.56236 -2.5084,8.52617c-3.60636,3.08504 -8.43149,1.81971 -14.01911,-1.15924c-2.95668,-1.57631 -6.76898,-2.92748 -9.32136,-5.91116c-2.45927,-2.87484 -3.18796,-6.37535 -4.29992,-9.43027c-2.22307,-6.10755 -2.74622,-11.57903 0.92975,-14.72361c3.44837,-2.94987 8.76331,-2.00678 14.11287,0.61482c3.20551,1.57089 6.46393,3.22487 9.22762,6.45559z"/></g></g><g stroke="none" stroke-width="0" stroke-linecap="butt"><path d="M177.01399,176.56207l52.69973,-72.67235l40.64941,79.94509l-52.58907,72.27548z" fill="url(#color-1)"/><path d="M208.47192,237.10386c0,0 8.72269,2.59572 13.23827,-0.81989c1.73335,-1.31111 10.38088,-9.08234 18.41611,-18.16093c12.89749,-14.57218 18.23309,-20.5659 18.23309,-20.5659l-40.46532,58.22709z" fill="#c3a003"/></g><g fill="none"><path d="M177.01399,176.56207l52.6737,-72.58194l40.67545,79.85468l-52.58907,72.27548z" stroke="#c4b108" stroke-width="5.5" stroke-linecap="butt"/><path d="M235.41654,115.0324l10.78796,21.46155" stroke="#e6da6e" stroke-width="3" stroke-linecap="round"/><path d="M250.84353,145.70019l-2.39185,-5.13743" stroke="#e6da6e" stroke-width="3" stroke-linecap="round"/></g><path d="M220.95124,206.57869l5.59753,-1.04892" fill="none" stroke="#363109" stroke-width="5" stroke-linecap="round"/><path d="M201.38386,154.0178c0,0 5.00565,-1.35621 7.42292,-1.19357c2.44424,0.16448 7.16251,2.17497 7.16251,2.17497" fill="none" stroke="#363109" stroke-width="5" stroke-linecap="round"/><path d="M234.63536,147.34567c0,0 4.93934,1.38106 6.9497,2.78097c1.98818,1.38448 5.04673,5.57268 5.04673,5.57268" fill="none" stroke="#363109" stroke-width="5" stroke-linecap="round"/><path d="M220.14639,183.97088c-4.76101,-0.37092 -8.4995,-2.22561 -8.23423,-5.63049c0.26527,-3.40487 4.33988,-5.86436 9.10089,-5.49343c4.76101,0.37092 8.40554,3.4318 8.14027,6.83668c-0.26527,3.40488 -4.24591,4.65816 -9.00692,4.28724z" fill="#cdb22b" stroke="none" stroke-width="0" stroke-linecap="butt"/><g fill-opacity="0.23922" fill="#cc2b9e" stroke="none" stroke-width="0.5" stroke-linecap="butt"><path d="M252.46163,193.95682c5.14006,3.09089 -4.99816,7.93825 -7.49057,8.32858c-3.99138,0.62507 -4.69855,-6.24727 -1.21216,-7.66367c0,0 5.75119,-2.43977 8.70274,-0.6649z"/><path d="M200.07079,191.98681c1.03997,6.16086 -7.15379,3.99819 -9.55875,0.97471c-0.94424,-1.18707 -2.42716,-6.46366 0.29731,-6.73336c2.72447,-0.2697 8.95614,3.94999 9.26144,5.75865z"/></g><path d="M198.43466,177.56454c-0.09211,1.18226 -1.55804,2.03229 -3.27422,1.89858c-1.71618,-0.13371 -3.03277,-1.20051 -2.94066,-2.38278c0.09211,-1.18227 1.55805,-2.03229 3.27423,-1.89858c1.71618,0.13371 3.03276,1.2005 2.94065,2.38277z" fill="#cdb22b" stroke="none" stroke-width="0" stroke-linecap="butt"/><path d="M248.4826,183.6756c-0.09211,1.18227 -1.55803,2.0323 -3.27421,1.89859c-1.71619,-0.13371 -3.03278,-1.20052 -2.94067,-2.38279c0.09211,-1.18226 1.55804,-2.03228 3.27422,-1.89857c1.71619,0.13371 3.03277,1.20051 2.94066,2.38278z" fill="#cdb22b" stroke="none" stroke-width="0" stroke-linecap="butt"/><g><g fill="none" stroke="#2b2707" stroke-width="3" stroke-linecap="round"><g><path d="M230.64647,169.37335l-1.71214,-2.4244"/><path d="M233.15674,167.51137l-0.1224,-2.99941"/><path d="M237.2522,165.64047l-0.84899,2.39049"/></g><path d="M240.81017,168.39916l-1.86528,1.93736"/></g><path d="M232.80079,193.60861c-4.2948,-0.3346 -7.35529,-6.01147 -6.75472,-13.7201c0.60057,-7.70863 4.50335,-12.84298 8.79815,-12.50838c4.2948,0.3346 7.35528,6.01146 6.75471,13.72009c-0.60057,7.70863 -4.50334,12.84299 -8.79815,12.50839z" fill="#363109" stroke="none" stroke-width="0" stroke-linecap="butt"/></g><g><g fill="none" stroke="#2b2707" stroke-width="3" stroke-linecap="round"><g><path d="M203.16301,163.95153l1.71215,2.42441"/><path d="M207.26304,161.51458l0.12239,2.9994"/><path d="M211.48091,162.64307l-0.849,2.3905"/></g><path d="M215.03888,165.40175l-1.86529,1.93736"/></g><path d="M207.02949,190.61121c-4.2948,-0.3346 -7.35529,-6.01146 -6.75472,-13.72009c0.60057,-7.70863 4.50335,-12.84299 8.79816,-12.50839c4.2948,0.3346 7.35529,6.01147 6.75472,13.7201c-0.60057,7.70863 -4.50335,12.84298 -8.79815,12.50838z" fill="#363109" stroke="none" stroke-width="0" stroke-linecap="butt"/></g><g data-paper-data="{&quot;index&quot;:null}" stroke-linecap="round"><path d="M234.98029,190.25429l-25.83224,8.20601l-18.20773,-11.14533" fill="none" stroke="#f7f7f7" stroke-width="6.5"/><path d="M187.79193,185.88753l17.46286,11.71298l7.59128,0.69088l25.22029,-8.62275l-3.58589,51.30314l-24.2096,6.08631l-10.17201,-1.37344l-17.92391,-10.77289z" fill="#795a24" stroke="#60461c" stroke-width="2.5"/><path d="M200.27364,245.44343l4.85068,-47.92983l7.67745,1.10591l-2.48658,48.11045z" fill="#795a24" stroke="#60461c" stroke-width="2.5"/></g><path d="M217.41403,220.11731v-0.21716l0.02909,-0.11633c0.01505,-0.08529 0.03578,-0.16862 0.06177,-0.24959l-0.03802,-0.13939l0.12598,-0.20997l0.05939,-0.23755l0.12652,-0.0723l0.19343,-0.32238l0.03071,-0.03071l0.08367,-0.33469l0.08254,-0.04717l0.06038,-0.14339l0.25456,-0.33942l0.20453,-0.35792l0.02605,-0.10421l0.09499,-0.42745l0.02375,-0.04749l0.01327,-0.05309l0.01859,-0.01062l0.23469,-0.46939l0.18773,-0.46932l0.07849,-0.10868l0.0363,-0.12905l0.40808,-0.71416l0.13295,-0.26589l0.28293,-0.84877l0.13665,-0.21474l0.08561,-0.23971l0.12011,-0.18017l0.18175,-0.42407l0.01879,-0.2443l0.11937,-0.35812v-0.0165l0.1062,-0.4248l0.09499,-0.42745l0.02374,-0.04749l0.01328,-0.0531l0.01859,-0.01062l0.02244,-0.04486l0.02912,-0.1165l-0.03834,-0.14058l0.12598,-0.20997l0.05939,-0.23755l0.12652,-0.0723l0.19343,-0.32238l0.21716,-0.21716l0.8422,-0.50532l0.40888,0.11151l0.39406,-0.15598l0.89285,0.40922l0.54291,0.43434l0.19451,0.25529l0.23103,0.22278l0.54292,0.86867l0.02845,0.08773l0.06002,0.07003l0.41582,0.83163l0.44505,0.80109l0.33431,0.41789l0.06735,0.14695l0.11043,0.11804l0.46516,0.83729l0.33431,0.41789l0.05414,0.11812l0.09188,0.09188l0.30242,0.50403l0.40918,0.61377l0.01563,0.04376l0.03285,0.03285l0.2598,0.43301l0.35426,0.44282l0.08447,0.18429l0.13193,0.15393l0.16156,0.32312l0.01859,0.01062l0.01327,0.0531l0.02375,0.0475l0.03896,0.17535l0.18025,0.1545l0.00528,0.09493l0.10126,0.11813l0.16155,0.32312l0.01859,0.01062l0.01327,0.0531l0.02375,0.04749l0.09499,0.42744l0.1062,0.4248v0.0531l0.01188,0.05343l-0.01188,0.01781v0.09282l-0.23821,0.95285l-0.06533,0.03733l-0.00418,0.07513l-0.23336,0.20002l-0.03885,0.19424l-0.15851,0.33463l-0.12454,0.34871l-0.32427,0.4864l-0.14347,0.35868l-0.09035,0.1251l-0.04493,0.14762l-0.32575,0.54292l-0.16589,0.16588l-0.01374,0.02291l-0.11943,0.29858l-0.01398,0.01936l-0.0038,0.02357l-0.27087,0.63205l-0.01943,0.06909l-0.11957,0.47826l-0.02536,0.0145l-0.3956,0.6923l-0.3021,0.60419l-0.07837,0.09143l-0.0405,0.11341l-0.0756,0.11341l-0.13647,0.40939l-0.13665,0.21474l-0.08561,0.23971l-0.15135,0.22703l-0.27269,0.54538l-0.07837,0.09143l-0.0405,0.11341l-0.15135,0.22704l-0.16411,0.32822l-0.05509,0.06427l-0.1991,0.79641l-0.07773,0.04441l-0.00412,0.05983l-0.80459,0.40229l-0.78104,0.44631l-0.05207,-0.02975l-0.08007,0.04003l-0.92495,-0.33034l-0.32575,-0.21717l-0.19748,-0.21723l-0.23353,-0.17792l-0.36839,-0.4605l-0.14254,-0.14254l-0.03945,-0.06574l-0.06126,-0.02042l-0.18376,-0.38794l-0.22086,-0.36809l0.01699,-0.06229l-0.01636,-0.03453l-0.03823,-0.03823l-0.15761,-0.26268l-0.19937,-0.23259l-0.21716,-0.43434l-0.02975,-0.13389l-0.06517,-0.10241l-0.11196,-0.10178l-0.21716,-0.32575l-0.08561,-0.23971l-0.13665,-0.21474l-0.07491,-0.22472l-0.00764,-0.00764l-0.22529,-0.37547l-0.23508,-0.36942l-0.01679,-0.05038l-0.02816,-0.04693l0.00563,-0.02065l-0.09714,-0.29143l-0.04627,-0.06939l-0.29401,-0.39202l-0.02102,-0.0499l-0.04006,-0.03643l-0.6515,-0.97725l-0.01563,-0.04376l-0.03286,-0.03285l-0.32575,-0.54292l-0.00315,-0.01036l-0.0302,-0.01726l-0.0967,-0.38676l-0.05096,-0.04368l-0.00418,-0.07513l-0.06534,-0.03734l-0.23821,-0.95284v-0.10858l-0.21716,-0.86867v-0.21716l0.03916,-0.15667c-0.02568,-0.12473 -0.03916,-0.25392 -0.03916,-0.38626zM222.58159,223.20865l0.02101,0.0499l0.04006,0.03643l0.21716,0.32575l0.08561,0.23971l0.13666,0.21474l0.07491,0.22471l0.00764,0.00765l0.22528,0.37547l0.23508,0.36942l0.01679,0.05037l0.02816,0.04694l-0.00563,0.02065l0.08245,0.24735l0.00243,0.00048l0.02938,0.04618l0.03755,0.03755l0.14545,0.24241l0.09329,-0.1466l0.08561,-0.23971l0.15136,-0.22703l0.27269,-0.54539l0.03524,-0.04111l0.01466,-0.05212l0.29415,-0.51478l0.04318,-0.26767l0.08061,-0.18809l0.00352,-0.01407l0.00333,-0.0019l0.22914,-0.53467l0.12609,-0.31521l-0.00101,-0.0037l0.00746,-0.01243l0.076,-0.19l0.22455,-0.31091l0.19732,-0.32886l0.05128,-0.05128l0.12649,-0.21081l0.16046,-0.40114l0.11671,-0.1616l0.06705,-0.18773l0.22521,-0.33782l0.03465,-0.17325l0.0923,-0.19486l-0.01296,-0.05183l-0.02375,-0.0475l-0.08686,-0.3909l-0.04001,-0.08003l-0.30821,-0.38527l-0.05414,-0.11812l-0.09188,-0.09188l-0.30241,-0.50403l-0.40918,-0.61377l-0.01563,-0.04376l-0.03286,-0.03286l-0.2598,-0.43301l-0.35426,-0.44282l-0.06735,-0.14694l-0.11043,-0.11804l-0.46516,-0.83729l-0.33431,-0.41789l-0.06735,-0.14695l-0.00364,-0.00389l-0.21628,0.64883l-0.07364,0.11572l-0.02975,0.1339l-0.21717,0.43433l-0.03524,0.04111l-0.01466,0.05213l-0.36868,0.6452l-0.16803,0.42006l-0.04735,0.06556l-0.01754,0.07894l-0.17045,0.34091l-0.07275,0.25867l-0.11956,0.47827l-0.02536,0.01449l-0.42185,0.73824l-0.08332,0.08694l-0.04673,0.11098l-0.02254,0.03004l0.02508,0.09195l-0.12598,0.20997l-0.05939,0.23756l-0.10569,0.06039l0.12673,0.50693v0.10859l0.17709,0.70836l0.07092,0.1182l0.597,0.8955z" fill="#cdb22b" stroke="none" stroke-width="0.5" stroke-linecap="butt"/></g></g></svg>