<svg version="1.1" xmlns="http://www.w3.org/2000/svg" xmlns:xlink="http://www.w3.org/1999/xlink" width="131.2355" height="200.7825" viewBox="0,0,131.2355,200.7825"><defs><linearGradient x1="270.09136" y1="82.70441" x2="257.23894" y2="209.51202" gradientUnits="userSpaceOnUse" id="color-1"><stop offset="0" stop-color="#48d967"/><stop offset="1" stop-color="#13e200"/></linearGradient><radialGradient cx="194.89815" cy="118.88541" r="7" gradientUnits="userSpaceOnUse" id="color-2"><stop offset="0" stop-color="#ffffff"/><stop offset="1" stop-color="#ffffff" stop-opacity="0"/></radialGradient><radialGradient cx="214.23148" cy="151.55208" r="7" gradientUnits="userSpaceOnUse" id="color-3"><stop offset="0" stop-color="#ffffff"/><stop offset="1" stop-color="#ffffff" stop-opacity="0"/></radialGradient></defs><g transform="translate(-174.21825,-79.83233)"><g data-paper-data="{&quot;isPaintingLayer&quot;:true}" fill-rule="nonzero" stroke-linejoin="miter" stroke-miterlimit="10" stroke-dasharray="" stroke-dashoffset="0" style="mix-blend-mode: normal"><path d="M199.74221,243.05524c0,0 13.99869,-19.98092 21.10096,-27.23816c7.10228,-7.25724 20.82329,-15.60085 20.82329,-15.60085" fill="none" stroke="#2fa348" stroke-width="5.5" stroke-linecap="round"/><path d="M241.62834,261.91759c0,0 6.61089,-24.61421 11.67106,-34.37349c4.19027,-8.08154 16.57548,-20.10407 16.57548,-20.10407" fill="none" stroke="#33b04e" stroke-width="5.5" stroke-linecap="round"/><path d="M225.86123,156.94542l-25.56319,17.60046" fill="none" stroke="#2fa348" stroke-width="5.5" stroke-linecap="round"/><path d="M257.23894,209.51202c-21.26288,-2.15508 -35.62275,-32.28896 -32.07365,-67.30592c3.5491,-35.01696 23.66319,-61.65678 44.92607,-59.50171c21.26288,2.15508 35.62275,32.28896 32.07365,67.30592c-3.5491,35.01696 -23.66319,61.65678 -44.92607,59.50171z" fill="url(#color-1)" stroke="none" stroke-width="0" stroke-linecap="butt"/><path d="M243.13498,201.57219c0,0 11.98297,-1.58294 18.72298,-5.01766c6.74002,-3.43472 12.36366,-6.87556 17.99555,-13.69419c5.63189,-6.81863 21.56715,-34.20506 21.56715,-34.20506c0,0 -3.74044,25.12395 -9.03533,32.814c-2.75455,4.00058 -5.12386,11.49576 -12.0333,17.16757c-6.37213,5.23073 -13.56336,9.61698 -18.04483,10.47073c-9.34084,1.77948 -19.17221,-7.5354 -19.17221,-7.5354z" fill="#24c724" stroke="none" stroke-width="0" stroke-linecap="butt"/><g fill="none"><path d="M257.23894,209.51202c-21.26288,-2.15508 -35.62275,-32.28896 -32.07365,-67.30592c3.5491,-35.01696 23.66319,-61.65678 44.92607,-59.50171c21.26288,2.15508 35.62275,32.28896 32.07365,67.30592c-3.5491,35.01696 -23.66319,61.65678 -44.92607,59.50171z" stroke="#33b04e" stroke-width="5.5" stroke-linecap="butt"/><path d="M277.47876,84.57618c0,0 6.89754,2.86848 11.5399,8.99862c3.87683,5.11926 8.05157,13.89361 8.05157,13.89361" stroke="#46e668" stroke-width="3" stroke-linecap="round"/><path d="M298.57602,112.44562l1.78274,6.21143" stroke="#46e668" stroke-width="3" stroke-linecap="round"/></g><path d="M241.83446,116.54725c0,0 2.9402,-3.55973 4.93916,-4.27305c2.04321,-0.72911 7.19027,-0.05527 7.19027,-0.05527" fill="none" stroke="#093613" stroke-width="5" stroke-linecap="round"/><path d="M258.93551,152.36628c-4.34869,-0.44075 -7.77033,-1.82092 -7.43976,-5.08244c0.33056,-3.26152 4.12385,-5.5482 8.47254,-5.10744c4.34869,0.44075 7.60603,3.44203 7.27546,6.70355c-0.33057,3.26152 -3.95955,3.92709 -8.30824,3.48633z" fill="#24c046" stroke="none" stroke-width="0" stroke-linecap="butt"/><path d="M244.93738,154.62977c-4.97621,-0.50436 -8.37969,-7.13437 -7.60189,-14.80852c0.77781,-7.67415 5.44236,-13.48643 10.41857,-12.98207c4.97621,0.50436 8.37969,7.13436 7.60189,14.80851c-0.77781,7.67416 -5.44236,13.48644 -10.41857,12.98208z" fill="#093613" stroke="none" stroke-width="0" stroke-linecap="butt"/><path d="M272.21471,160.20203c-4.97621,-0.50436 -8.37969,-7.13437 -7.60189,-14.80852c0.77781,-7.67415 5.44236,-13.48643 10.41857,-12.98207c4.97621,0.50436 8.37969,7.13436 7.60189,14.80851c-0.77781,7.67416 -5.44236,13.48644 -10.41857,12.98208z" fill="#093613" stroke="none" stroke-width="0" stroke-linecap="butt"/><path d="M284.23119,159.92417c-1.72669,-0.17501 -3.02661,-1.30189 -2.90346,-2.51696c0.12315,-1.21507 1.62275,-2.05822 3.34943,-1.88321c1.72668,0.175 3.0266,1.30189 2.90345,2.51696c-0.12315,1.21508 -1.62274,2.05822 -3.34942,1.88321z" fill="#24c046" stroke="none" stroke-width="0" stroke-linecap="butt"/><path d="M233.86797,153.29501c-1.72669,-0.17501 -3.02661,-1.30189 -2.90346,-2.51696c0.12315,-1.21507 1.62275,-2.05822 3.34943,-1.88321c1.72668,0.175 3.0266,1.30189 2.90345,2.51696c-0.12315,1.21508 -1.62274,2.05822 -3.34942,1.88321z" fill="#24c046" stroke="none" stroke-width="0" stroke-linecap="butt"/><g><path d="M239.06497,237.37146c0,0 2.81156,-0.57719 4.7882,0.52824c1.66842,0.93306 2.40805,3.52091 3.74529,4.04345c1.1741,0.45879 3.95289,-1.07838 5.56293,-0.66405c2.72133,0.7003 4.19947,3.24154 4.19947,3.24154l-10.73302,32.89703l-27.23967,-9.45648c0,0 0.31113,-3.05532 1.62476,-4.95764c1.14735,-1.66153 3.24925,-2.47752 3.77273,-2.72649c1.12283,-0.53401 9.18898,2.71614 9.18898,2.71614z" fill="#6b2e00" stroke="#542400" stroke-width="5" stroke-linecap="round"/><path d="M246.47773,248.48007c-0.10563,-1.37667 0.92475,-2.5783 2.30142,-2.68393c1.37667,-0.10563 2.5783,0.92476 2.68393,2.30142c0.10563,1.37667 -0.92475,2.5783 -2.30142,2.68393c-1.37667,0.10563 -2.5783,-0.92476 -2.68393,-2.30142z" fill="#542400" stroke="none" stroke-width="0.5" stroke-linecap="butt"/><path d="M244.42087,255.68312c-0.10563,-1.37667 0.92476,-2.5783 2.30142,-2.68393c1.37667,-0.10563 2.5783,0.92475 2.68393,2.30142c0.10563,1.37667 -0.92476,2.5783 -2.30142,2.68393c-1.37667,0.10563 -2.5783,-0.92475 -2.68393,-2.30142z" fill="#542400" stroke="none" stroke-width="0.5" stroke-linecap="butt"/><path d="M242.44014,262.79738c-0.10563,-1.37667 0.92476,-2.5783 2.30142,-2.68393c1.37667,-0.10563 2.5783,0.92476 2.68393,2.30142c0.10563,1.37667 -0.92476,2.5783 -2.30142,2.68393c-1.37667,0.10563 -2.5783,-0.92476 -2.68393,-2.30142z" fill="#542400" stroke="none" stroke-width="0.5" stroke-linecap="butt"/><path d="M234.71141,263.19134c0,0 3.97127,2.73037 5.49641,4.39052c1.89408,2.06175 5.00296,7.03823 5.00296,7.03823" fill="none" stroke="#542400" stroke-width="5" stroke-linecap="round"/></g><g><path d="M205.2539,220.01829c0,0 2.85508,0.29412 4.40832,1.94231c1.31104,1.39118 1.23907,4.0817 2.35756,4.98183c0.98204,0.79031 4.09426,0.15896 5.50545,1.03783c2.38524,1.48549 3.03166,4.35341 3.03166,4.35341l-20.12014,28.15302l-23.14049,-17.20299c0,0 1.21464,-2.82072 3.03908,-4.24053c1.59351,-1.24009 3.84345,-1.38694 4.41755,-1.46714c1.23139,-0.17202 7.94854,5.35123 7.94854,5.35123z" fill="#6b2e00" stroke="#542400" stroke-width="5" stroke-linecap="round"/><path d="M208.987,232.8407c0.31283,-1.3448 1.65661,-2.18139 3.00142,-1.86856c1.3448,0.31283 2.18139,1.65661 1.86856,3.00142c-0.31283,1.3448 -1.65661,2.18139 -3.00142,1.86856c-1.3448,-0.31283 -2.18139,-1.65661 -1.86856,-3.00142z" fill="#542400" stroke="none" stroke-width="0.5" stroke-linecap="butt"/><path d="M204.86122,239.09312c0.31283,-1.3448 1.65661,-2.18139 3.00142,-1.86856c1.3448,0.31283 2.18139,1.65661 1.86856,3.00142c-0.31283,1.3448 -1.65661,2.18139 -3.00142,1.86856c-1.3448,-0.31283 -2.18139,-1.65661 -1.86856,-3.00142z" fill="#542400" stroke="none" stroke-width="0.5" stroke-linecap="butt"/><path d="M200.83472,245.28371c0.31283,-1.3448 1.65661,-2.18139 3.00142,-1.86856c1.3448,0.31283 2.18139,1.65661 1.86856,3.00142c-0.31283,1.3448 -1.65661,2.18139 -3.00142,1.86856c-1.3448,-0.31283 -2.18139,-1.65661 -1.86856,-3.00142z" fill="#542400" stroke="none" stroke-width="0.5" stroke-linecap="butt"/><path d="M193.34465,243.33762c0,0 2.96757,3.79729 3.92352,5.83893c1.1872,2.53553 2.65744,8.2161 2.65744,8.2161" fill="none" stroke="#542400" stroke-width="5" stroke-linecap="round"/></g><path d="M257.32579,183.78707c-3.22166,0 -5.83333,-3.73096 -5.83333,-8.33333c0,-4.60237 2.61167,-8.33333 5.83333,-8.33333c3.22166,0 5.83333,3.73096 5.83333,8.33333c0,4.60237 -2.61167,8.33333 -5.83333,8.33333z" fill="none" stroke="#093613" stroke-width="5" stroke-linecap="butt"/><path d="M296.10552,175.95166c0,0 -10.65555,5.75214 -15.65728,6.15569c-5.50128,0.44385 -15.99465,-3.60195 -15.99465,-3.60195" fill="none" stroke="#33b04e" stroke-width="5.5" stroke-linecap="round"/><path d="M276.44813,117.00093c0,0 4.99853,1.40034 6.59164,2.87286c1.55861,1.44064 2.86576,5.8687 2.86576,5.8687" data-paper-data="{&quot;index&quot;:null}" fill="none" stroke="#093613" stroke-width="5" stroke-linecap="round"/><g><g><path d="M192.49246,138.6204c0,-13.34688 5.14873,-24.16667 11.5,-24.16667c6.35127,0 11.5,10.81979 11.5,24.16667c0,13.34688 -5.14873,24.16667 -11.5,24.16667c-6.35127,0 -11.5,-10.81979 -11.5,-24.16667z" data-paper-data="{&quot;index&quot;:null}" fill="#00ffe6" stroke="#000000" stroke-width="4" stroke-linecap="butt"/><path d="M195.82579,154.45374c0,0 8.35413,-1.17108 11.4237,-5.33692c3.15054,-4.27574 7.24297,-17.66308 7.24297,-17.66308v16l-4,11.33333l-3.66667,3.66667l-7,-1.33333z" fill="#70fef1" stroke="#71fff1" stroke-width="1.5" stroke-linecap="round"/><g><path d="M204.15912,149.78707c-3.12962,0 -5.66667,-4.77563 -5.66667,-10.66667c0,-5.89104 2.53706,-10.66667 5.66667,-10.66667c3.12962,0 5.66667,4.77563 5.66667,10.66667c0,5.89104 -2.53706,10.66667 -5.66667,10.66667z" fill="#17f1a2" stroke="none" stroke-width="0" stroke-linecap="butt"/><path d="M201.49246,147.45374c0,0 1.33333,3.13839 1.33333,5c0,2.35477 -1.33333,8 -1.33333,8" fill="none" stroke="#16f1a3" stroke-width="2" stroke-linecap="round"/><path d="M206.15912,145.78707c0,0 1.92649,3.11639 2.46421,4.92506c0.65948,2.21825 1.20246,7.40828 1.20246,7.40828" fill="none" stroke="#16f1a3" stroke-width="2" stroke-linecap="round"/></g><path d="M209.26152,140.29981l4.77148,3.57861" fill="none" stroke="#16f1a3" stroke-width="2" stroke-linecap="round"/></g><g fill="none"><g><path d="M204.47332,193.14358l-0.29506,-29.04635" data-paper-data="{&quot;index&quot;:null}" stroke="#273b38" stroke-width="4" stroke-linecap="round"/><path d="M192.49246,138.6204c0,-13.34688 5.14873,-24.16667 11.5,-24.16667c6.35127,0 11.5,10.81979 11.5,24.16667c0,13.34688 -5.14873,24.16666 -11.5,24.16666c-6.35127,0 -11.5,-10.81978 -11.5,-24.16666z" data-paper-data="{&quot;index&quot;:null}" stroke="#263a38" stroke-width="4" stroke-linecap="butt"/><g stroke="url(#color-2)" stroke-width="1.5" stroke-linecap="round"><path d="M191.76765,112.62442l6.26099,12.52198"/><path d="M188.63716,122.01591l12.52198,-6.26099"/></g><g stroke="url(#color-3)" stroke-width="1.5" stroke-linecap="round"><path d="M217.83295,145.54963l-7.20294,12.0049"/><path d="M220.23393,155.15355l-12.0049,-7.20294"/></g></g><path d="M200.49246,174.78707l4.33333,1" stroke="#2fa348" stroke-width="5.5" stroke-linecap="round"/></g></g></g></g></svg>