<svg version="1.1" xmlns="http://www.w3.org/2000/svg" xmlns:xlink="http://www.w3.org/1999/xlink" width="33.98266" height="67.84563" viewBox="0,0,33.98266,67.84563"><g transform="translate(-223.00867,-146.07718)"><g data-paper-data="{&quot;isPaintingLayer&quot;:true}" fill-rule="nonzero" stroke-linejoin="miter" stroke-miterlimit="10" stroke-dasharray="" stroke-dashoffset="0" style="mix-blend-mode: normal"><path d="M224.25867,212.67282v-65.34563h31.48266v65.34563z" data-paper-data="{&quot;index&quot;:null}" fill="#ff66be" stroke="#ff24a4" stroke-width="2.5" stroke-linecap="butt"/><path d="M228.41381,159.44041c-1.34272,0 -1.34271,-1.34271 -1.34271,-1.34271v-0.22379c0,-1.67219 -0.57684,-5.52592 0.53563,-6.90258c1.61419,-1.99752 6.84892,-1.15989 9.01167,-0.92173c0,0 1.33451,0.14828 1.18623,1.48279c-0.14828,1.33451 -1.48278,1.18623 -1.48278,1.18623c-1.48218,-0.16627 -2.97217,-0.31865 -4.4678,-0.21816c-0.72968,0.04902 -1.78469,-0.42008 -2.18557,0.19158c-0.44689,0.68187 0.08805,4.3671 0.08805,5.18189v0.22378c0,0 0,1.34272 -1.34272,1.34272z" data-paper-data="{&quot;index&quot;:null}" fill="#ffa4d9" stroke="none" stroke-width="0.5" stroke-linecap="butt"/><path d="M240.94585,152.72684c-0.74157,0 -1.34271,-0.60116 -1.34271,-1.34272c0,-0.74157 0.60115,-1.34272 1.34271,-1.34272c0.74157,0 1.34272,0.60115 1.34272,1.34272c0,0.74157 -0.60115,1.34272 -1.34272,1.34272z" data-paper-data="{&quot;index&quot;:null}" fill="#ffa4d9" stroke="none" stroke-width="0.5" stroke-linecap="butt"/><path d="M245.79346,168.42605c0,-3.33925 1.50823,-6.04624 3.36872,-6.04624c1.86048,0 3.36872,2.70701 3.36872,6.04624c0,3.33925 -1.50822,6.04624 -3.36872,6.04624c-1.86048,0 -3.36872,-2.707 -3.36872,-6.04624z" data-paper-data="{&quot;index&quot;:null}" fill="#000000" stroke="none" stroke-width="0.5" stroke-linecap="butt"/><path d="M231.60802,170.52633c0,-3.33925 1.50822,-6.04624 3.36871,-6.04624c1.86048,0 3.36873,2.70701 3.36873,6.04624c0,3.33925 -1.50823,6.04624 -3.36873,6.04624c-1.86048,0 -3.36871,-2.707 -3.36871,-6.04624z" data-paper-data="{&quot;index&quot;:null}" fill="#000000" stroke="none" stroke-width="0.5" stroke-linecap="butt"/><path d="M230.61766,162.56721c0,0 1.31744,-1.81557 2.49688,-2.34033c1.12409,-0.50014 4.4217,-0.73787 4.4217,-0.73787" data-paper-data="{&quot;index&quot;:null}" fill="none" stroke="#000000" stroke-width="2" stroke-linecap="round"/><path d="M244.89088,209.11802c-0.22074,-1.32445 1.10371,-1.54519 1.10371,-1.54519l1.45271,-0.23748c0.90033,-0.00284 1.80776,-0.11396 2.70101,-0.0012c0.22784,0.02876 0.51471,0.42329 0.64732,0.2358c0.14652,-0.20716 -0.29501,-0.43522 -0.32836,-0.68676c-0.15684,-1.18318 0,-2.38706 0,-3.58058c0,0 0,-1.34271 1.34272,-1.34271c1.34272,0 1.34271,1.34271 1.34271,1.34271c0,1.21869 0.48995,5.11676 -0.32836,6.02684c-0.94511,1.0511 -3.83912,0.68706 -5.15555,0.68218l-1.23272,0.21009c0,0 -1.32445,0.22075 -1.54519,-1.1037z" data-paper-data="{&quot;index&quot;:null}" fill="#ffa4d9" stroke="none" stroke-width="0.5" stroke-linecap="butt"/><path d="M234.26101,188.51782c0,0 1.42563,-0.58255 2.32699,-0.75967c0.48476,-0.09526 2.65725,-0.21972 2.65725,-0.21972" data-paper-data="{&quot;index&quot;:null}" fill="none" stroke="#000000" stroke-width="2" stroke-linecap="round"/><path d="M231.98221,187.95577c0,0 -0.39991,0.91881 -0.31275,1.26745c0.0981,0.39238 0.8724,0.97116 0.8724,0.97116" fill="none" stroke="#000000" stroke-width="2" stroke-linecap="round"/><path d="M246.28789,156.97058c0,0 3.29761,0.23773 4.4217,0.73787c1.17944,0.52475 2.49688,2.34033 2.49688,2.34033" data-paper-data="{&quot;index&quot;:null}" fill="none" stroke="#000000" stroke-width="2" stroke-linecap="round"/></g></g></svg>