<svg version="1.1" xmlns="http://www.w3.org/2000/svg" xmlns:xlink="http://www.w3.org/1999/xlink" width="74.67029" height="60.22318" viewBox="0,0,74.67029,60.22318"><defs><radialGradient cx="240.07553" cy="179.17926" r="22.5" gradientUnits="userSpaceOnUse" id="color-1"><stop offset="0" stop-color="#ff00f4"/><stop offset="1" stop-color="#5c0054"/></radialGradient></defs><g transform="translate(-202.74037,-150.15756)"><g data-paper-data="{&quot;isPaintingLayer&quot;:true}" fill-rule="nonzero" stroke="none" stroke-linecap="butt" stroke-linejoin="miter" stroke-miterlimit="10" stroke-dasharray="" stroke-dashoffset="0" style="mix-blend-mode: normal"><path d="M217.57553,179.17926c0,-12.42641 10.07359,-22.5 22.5,-22.5c12.42641,0 22.5,10.07359 22.5,22.5c0,12.42641 -10.07359,22.5 -22.5,22.5c-12.42641,0 -22.5,-10.07359 -22.5,-22.5z" fill="url(#color-1)" stroke-width="0"/><path d="M203.10898,187.01475c1.15355,-2.14373 3.07613,-0.85749 3.07613,-0.85749l0.4523,0.37202c0.7556,0.29734 1.47939,0.72655 2.26679,0.89203c4.77155,1.00275 4.7472,-7.49044 6.66779,-10.00502c1.74517,-2.28489 6.27255,-2.80814 8.68212,-3.00977c0,0 2.23713,-0.1663 2.38627,2.32817c0.14914,2.49446 -2.08799,2.66076 -2.08799,2.66076c-1.4758,0.09202 -2.93698,0.50016 -4.33776,1.02629c-0.43246,0.16243 -1.06222,-0.04844 -1.32954,0.36395c-1.02676,1.58397 -0.78773,3.87442 -1.68255,5.55495c-3.04359,5.716 -6.49678,6.884 -11.98318,4.93207l-1.34137,-0.82798c0,0 -1.92258,-1.28624 -0.76903,-3.42997z" fill="#ff00f4" stroke-width="0.5"/><path d="M218.69511,154.301c2.5,0 2.5,2.5 2.5,2.5l-0.00138,2.71681c-0.0553,5.14522 5.3053,4.58227 9.0366,5.69375c0,0 2.38945,0.73521 1.65423,3.12466c-0.73521,2.38945 -3.12466,1.65423 -3.12466,1.65423c-1.80954,-0.58031 -3.86764,-0.13476 -5.64259,-0.81352c-4.64077,-1.77467 -6.44381,-5.02845 -6.92081,-9.49273l-0.00138,-2.88319c0,0 0,-2.5 2.5,-2.5z" fill="#ff00f4" stroke-width="0.5"/><path d="M264.24975,151.14233c1.55865,1.95464 -0.39599,3.51329 -0.39599,3.51329l-2.49219,1.98299c-1.6548,1.02059 -3.13798,2.39531 -4.96439,3.06177c-3.43691,1.25412 -8.12263,-0.31001 -11.80095,0.40028c-0.65806,0.12707 -1.58723,0.08773 -1.89015,0.68558c-0.56372,1.11256 -0.22999,2.48383 -0.34499,3.72574c0,0 -0.411,2.46598 -2.87698,2.05499c-2.46598,-0.411 -2.05499,-2.87698 -2.05499,-2.87698c0.41834,-1.95809 0.12098,-4.22408 1.25501,-5.87426c2.66656,-3.88022 10.20838,-3.06448 14.01097,-3.01475c0.76664,0.01003 1.58292,0.37738 2.29793,0.1006c1.29606,-0.50169 2.30555,-1.55251 3.45832,-2.32877l2.2851,-1.82647c0,0 1.95464,-1.55865 3.51329,0.39599z" fill="#ff00f4" stroke-width="0.5"/><path d="M273.96479,173.46893c0.43837,-0.53716 1.20629,-1.07546 2.30375,-0.40401c1.8274,1.11803 0.91369,3.3541 0.91369,3.3541l-1.7019,1.75684c-2.20319,0.33976 -4.59604,0.47254 -6.64533,-0.57408c-4.50868,-2.30268 -6.89226,-7.69584 -12.24894,-3.65283c-0.57274,0.43228 -0.82447,1.30166 -1.2367,1.9525c0,0 -1.30795,1.92055 -2.8775,0.32009c-1.56954,-1.60046 -0.26159,-3.52101 -0.26159,-3.52101c0.67741,-0.94917 1.15172,-2.19396 2.03224,-2.8475c3.24655,-2.40966 7.93399,-3.41695 11.35929,-0.90788c1.83183,1.34183 3.88536,4.74523 6.38684,4.87169c0.66624,0.03368 1.32109,-0.15892 1.97613,-0.3479z" fill="#ff00f4" stroke-width="0.5"/><path d="M262.46706,209.90672c-1.79882,1.31692 -3.14948,-0.52799 -3.14948,-0.52799l-0.75637,-1.03315c-2.17237,-2.98655 -3.95938,-5.5246 -3.33073,-9.40324c0.44606,-2.75208 4.4005,-8.06966 -0.35305,-8.67406c0,0 -2.20729,-0.49034 -1.77379,-2.70338c0.43351,-2.21304 2.64079,-1.72271 2.64079,-1.72271c1.0459,0.28343 2.25802,0.20332 3.1377,0.85031c3.82223,2.81126 2.86295,7.20817 1.7046,10.92599c-0.4622,1.48346 -1.42228,2.3966 -0.957,4.04431c0.37582,1.3309 1.73344,2.97026 2.5291,4.04892l0.75637,1.03315c0,0 1.35066,1.84491 -0.44815,3.16183z" fill="#ff00f4" stroke-width="0.5"/><path d="M219.39725,206.95034c0,-2.37566 2.37566,-2.37566 2.37566,-2.37566h1.52042c0.7086,0.03777 1.43745,0.28576 2.1258,0.11333c2.48395,-0.62225 1.9014,-4.75653 3.20037,-6.3913c1.48803,-1.87269 3.95542,-2.79895 6.03172,-3.76621c0,0 2.157,-0.99554 3.15254,1.16146c0.99554,2.157 -1.16146,3.15254 -1.16146,3.15254c-0.82718,0.37758 -3.59217,1.50291 -4.23112,2.31547c-1.13667,1.44552 -0.50502,3.83262 -1.66515,5.25938c-2.78507,3.42517 -3.82677,2.79173 -7.45269,2.90665h-1.52042c0,0 -2.37566,0 -2.37566,-2.37566z" fill="#ff00f4" stroke-width="0.5"/></g></g></svg>