<svg version="1.1" xmlns="http://www.w3.org/2000/svg" xmlns:xlink="http://www.w3.org/1999/xlink" width="36.15767" height="37.44201" viewBox="0,0,36.15767,37.44201"><g transform="translate(-221.99667,-162.66987)"><g data-paper-data="{&quot;isPaintingLayer&quot;:true}" fill="#71006b" fill-rule="nonzero" stroke="none" stroke-width="0.5" stroke-linecap="butt" stroke-linejoin="miter" stroke-miterlimit="10" stroke-dasharray="" stroke-dashoffset="0" style="mix-blend-mode: normal"><g><path d="M240.48728,180.88432c-0.25229,-1.76599 0.9356,-2.45185 1.6368,-2.69986c-0.00474,-0.06109 -0.01167,-0.12214 -0.0211,-0.18312c-0.16117,-1.04221 -2.23204,-0.7739 -3.15308,-0.26022c-2.22714,1.24214 -2.38083,2.44485 -1.48515,4.41598c0.83605,1.83989 2.89692,2.61228 4.52384,3.46707c3.85968,2.02788 5.77108,1.985 9.92029,1.54342c2.09686,-2.87232 0.5312,-7.56036 -0.2724,-10.62575c-0.2341,-0.89298 -1.21197,-5.06112 -2.46201,-6.26344c-2.46593,-2.37181 -5.86661,-2.41711 -9.04027,-2.1178c-5.56709,0.52504 -9.47835,2.25077 -12.34625,7.30848c-1.07521,1.8962 -0.78066,5.68334 -0.61721,7.4904c0.40675,4.49685 1.78621,5.28522 4.37296,8.647c0,0 1.52428,1.98156 -0.45728,3.50584c-1.98156,1.52428 -3.50584,-0.45728 -3.50584,-0.45728c-3.16208,-4.11195 -4.78034,-5.57537 -5.38495,-11.19728c-0.33673,-3.13102 -0.41147,-7.31723 1.1407,-10.26532c5.0645,-9.61919 20.90106,-14.57224 29.41348,-6.40931c0.94184,0.90317 1.56334,2.11669 2.08758,3.31167c1.922,4.38117 4.80306,13.28742 2.40829,18.05352c-0.65582,1.30523 -1.88685,2.23041 -2.83028,3.34562c-3.02802,0.60488 -6.44141,1.61816 -9.58958,0.87862c-5.07206,-1.19147 -15.12993,-6.7099 -12.67047,-13.71813c1.99131,-5.67426 10.99465,-9.43819 14.46595,-2.79424c0.69108,1.32269 0.16055,2.98038 0.24083,4.47057l-3.54645,2.67487c0,0 -2.47487,0.35356 -2.82843,-2.12132z"/><path d="M228.09001,193.86226c0.71016,-0.76081 1.12743,-2.16123 2.05193,-2.45996c0.09689,-0.03131 0.19936,-0.05052 0.30832,-0.05562c2.54459,-0.11914 4.75829,2.82506 7.42547,3.01558c1.99874,0.14277 4.8512,-0.51289 6.46429,0.5625c0.95364,0.63576 1.78377,2.17098 1.09631,3.46004c-1.93561,3.62949 -11.00413,0.67681 -13.8347,-1.04508c-0.59596,-0.36253 -3.07097,-1.41458 -3.11005,-2.11803z"/></g></g></g></svg>