<svg version="1.1" xmlns="http://www.w3.org/2000/svg" xmlns:xlink="http://www.w3.org/1999/xlink" width="309.92858" height="50.67604" viewBox="0,0,309.92858,50.67604"><g transform="translate(-85.03571,-148)"><g data-paper-data="{&quot;isPaintingLayer&quot;:true}" fill-rule="nonzero" stroke-linecap="butt" stroke-linejoin="miter" stroke-miterlimit="10" stroke-dasharray="" stroke-dashoffset="0" style="mix-blend-mode: normal"><path d="M95.03572,198.42604l39.84559,-18.86475l-39.84558,-17.98732h260.08299l39.84558,17.98732l-39.84558,18.86475z" fill="#8c00ff" stroke="none" stroke-width="0"/><path d="M85.03572,198.42604l39.84559,-18.86475l-39.84558,-17.98732h260.08299l39.84558,17.98732l-39.84558,18.86475z" fill="#ff8800" stroke="none" stroke-width="0"/><path d="M91.36906,198.67604l39.33632,-19.11475l-39.33632,-18.23732h256.75891l39.33632,18.23732l-39.33632,19.11475z" fill="#000000" stroke="none" stroke-width="0"/><g fill="#ffffff" stroke="none" stroke-width="0"><path d="M173.55303,194.81444v-20.88693l24.61713,-0.10067l-21.40273,2.83579l0.06274,14.51591l16.31098,-0.0251l0.22305,-6.49194l-11.16601,-2.39937l14.14755,-0.15284l-0.0455,12.70516z" data-paper-data="{&quot;index&quot;:null}"/><path d="M165.19158,187.87825v-25.32497l3.64851,22.10569l21.67647,3.21928z" data-paper-data="{&quot;index&quot;:null}"/></g><path d="M237.75001,155.5v-7.5h7.5v7.5z" fill="none" stroke="none" stroke-width="0"/><g fill="#ffffff" stroke="#ffffff" stroke-width="0.5"><path d="M207.59829,175.00895c0.6975,0.00767 5.32272,-0.57542 4.0523,-2.32718c-0.4809,-0.6631 -2.14817,-0.60815 -3.21545,-0.55999c-0.25261,0.97489 -0.58157,1.93347 -0.93594,2.88717zM207.78011,169.64532c1.8355,0.0011 4.781,-0.19488 5.9477,1.64536c2.62945,4.14745 -3.19725,6.19378 -6.12952,6.21828h-1.05358c-0.34029,0.90213 -0.66344,1.80884 -0.92633,2.72977l-0.48024,0.91313c0,0 -0.62017,1.08531 -1.70548,0.46513c-1.08531,-0.62017 -0.46513,-1.70548 -0.46513,-1.70548l0.24704,-0.3596c0.84675,-2.96118 2.39337,-5.81386 2.97617,-8.81083c0,0 0.19983,-0.99913 1.14072,-1.01285c0.24382,-0.08291 0.44864,-0.08291 0.44864,-0.08291z"/><path d="M222.66647,174.25895c0,1.25 -1.25,1.25 -1.25,1.25h-0.45454c-0.70168,-0.00173 -1.46902,-0.23553 -2.1041,0.06284c-0.80727,0.37927 -1.16707,1.02416 -1.44962,1.68668c-0.20973,0.92144 -0.49382,1.81238 -0.94769,2.79704l-0.53365,1.15625c-0.19249,0.44241 -0.63349,0.75175 -1.14675,0.75175c-0.69036,0 -1.25,-0.55964 -1.25,-1.25c0,-0.14146 0.02349,-0.27743 0.0668,-0.40422l0.53668,-1.69946l0.20544,0.06488c0.11279,-0.26326 0.21073,-0.51709 0.29689,-0.76594c0.07333,-0.29644 0.15952,-0.5842 0.2593,-0.8619c0.20862,-0.80953 0.32634,-1.62184 0.46563,-2.60104c0,0 0.17678,-1.23743 1.41421,-1.06066c0.38004,0.05429 0.6267,0.20863 0.78604,0.39644c0.90628,-0.49165 2.02893,-0.76968 3.40082,-0.77265h0.45454c0,0 1.25,0 1.25,1.25z"/><path d="M226.5278,182.04619c-0.42367,0.45681 -1.10628,0.3593 -1.10628,0.3593c-6.42214,-1.16889 -2.88083,-8.52057 2.05361,-9.02681c2.6929,-0.27627 5.24638,1.03368 4.51706,4.18587c-0.51887,2.2426 -2.64765,3.60504 -4.60984,4.32614zM225.21042,179.83227c0.23728,-0.13364 0.4551,-0.16995 0.4551,-0.16995l0.87599,-0.126c2.89238,-0.99373 4.56526,-4.73207 0.06392,-3.44726c-1.55159,0.44287 -3.27316,3.166 -1.395,3.74321z"/><path d="M238.30533,182.00631c-8.04689,2.14885 -6.7382,-9.78079 0.68886,-8.99128c0.53001,0.05634 1.04827,0.20279 1.54906,0.40309c0.33841,-1.05712 0.69499,-2.10242 1.05967,-3.12506c0,0 0.42042,-1.17718 1.5976,-0.75675c1.17718,0.42042 0.75675,1.5976 0.75675,1.5976c-0.45032,1.25892 -0.88747,2.55267 -1.29142,3.86038c0.0609,0.25492 0.03378,0.56456 -0.18482,0.91978c-0.04974,0.08083 -0.10184,0.15175 -0.15566,0.21379c-0.40025,1.37269 -0.75796,2.75405 -1.05029,4.12027l-0.28231,1.13217c0,0 -0.30317,1.21268 -1.51585,0.90951c-0.4118,-0.10295 -0.64881,-0.31078 -0.78224,-0.54039zM236.86016,175.7525c-2.3976,1.1323 -2.55183,4.88904 0.75836,3.85l0.60818,-0.53628c0,0 0.36139,-0.26283 0.80917,-0.25812c0.23226,-0.99544 0.49509,-1.99648 0.78031,-2.9943c-0.93173,-0.40448 -1.94521,-0.53867 -2.95603,-0.0613z"/><path d="M252.41647,173.55441c1.25,0 1.25,1.25 1.25,1.25l-0.0569,0.64557c-0.97172,3.05835 -2.63036,6.48723 -6.34024,6.60395c-1.07773,0.03391 -3.07506,-0.46594 -3.6662,-1.44886c-1.00461,-1.67045 0.9885,-4.392 1.42961,-5.96224c0,0 0.3434,-1.2019 1.54531,-0.8585c1.20191,0.3434 0.8585,1.5453 0.8585,1.5453c-0.11011,0.38001 -1.78433,3.87439 -1.6613,4.03776c0.29478,0.39142 2.07093,0.10535 2.3995,-0.01176c1.77644,-0.63319 2.55184,-3.0291 3.04861,-4.65133l-0.0569,0.10012c0,0 0,-1.25 1.25,-1.25z"/><path d="M261.07996,181.63615c-0.55431,1.10862 -1.65827,0.56831 -1.67682,0.55914c-1.37943,-0.1923 -3.55628,-0.45263 -4.37531,-1.67544c-2.91988,-4.35935 3.92363,-7.23121 6.93409,-7.23817c0,0 1.25,0 1.25,1.25c0,1.25 -1.25,1.25 -1.25,1.25c-1.56228,-0.00415 -3.60154,0.24117 -4.45606,1.81751c-0.24623,0.45424 -0.78197,1.11336 -0.42802,1.48977c0.47856,0.50894 2.26498,0.57362 2.87905,0.65983l0.56406,0.21032c0,0 1.11803,0.55901 0.55902,1.67705zM259.43682,182.19999l0.16652,0.02367c-0.05399,-0.00783 -0.10954,-0.0157 -0.16652,-0.02367z"/><path d="M271.54745,176.58869c-0.69338,1.04006 -1.73344,0.34668 -1.73344,0.34668l-0.4447,-0.30311c-0.25491,-0.13741 -0.51139,-0.27092 -0.76889,-0.4019c-0.23059,1.4595 -0.46395,2.91842 -0.67378,4.38718l-0.19902,0.91257c0,0 -0.27116,1.22024 -1.4914,0.94907c-1.22024,-0.27116 -0.94907,-1.4914 -0.94907,-1.4914l0.16462,-0.7238c0.24832,-1.73824 0.53,-3.46165 0.8007,-5.18874c-0.64395,-0.31835 -1.28372,-0.64603 -1.91071,-1.00373c0,0 -1.08531,-0.62017 -0.46514,-1.70548c0.62018,-1.08531 1.70548,-0.46513 1.70548,-0.46513c0.35057,0.20068 0.70542,0.39164 1.06291,0.57664c0.09134,-0.63765 0.1782,-1.27705 0.25839,-1.91911c0,0 0.15505,-1.24035 1.3954,-1.08531c1.24034,0.15505 1.0853,1.39539 1.0853,1.39539c-0.11613,0.92825 -0.24604,1.85124 -0.38319,2.77155c0.52127,0.25521 1.04075,0.51512 1.55365,0.791l0.64621,0.42416c0,0 1.04006,0.69338 0.34669,1.73344z"/><path d="M281.07325,182.04619c-0.42367,0.45681 -1.10628,0.3593 -1.10628,0.3593c-6.42214,-1.16889 -2.88084,-8.52057 2.0536,-9.02681c2.6929,-0.27627 5.24638,1.03368 4.51706,4.18587c-0.51887,2.2426 -2.64765,3.60504 -4.60983,4.32614zM279.75588,179.83227c0.23728,-0.13364 0.4551,-0.16995 0.4551,-0.16995l0.87598,-0.126c2.89238,-0.99373 4.56526,-4.73207 0.06392,-3.44726c-1.55159,0.44287 -3.27316,3.166 -1.395,3.74321z"/><path d="M272.43671,182.82449c-1.20191,-0.3434 -0.85851,-1.5453 -0.85851,-1.5453l0.21704,-0.74169c0.77093,-1.99834 1.04522,-4.00519 1.48988,-6.08591c0,0 0.26191,-1.22225 1.48417,-0.96034c1.22226,0.26191 0.96034,1.48416 0.96034,1.48416c-0.47456,2.20818 -0.78609,4.33478 -1.60103,6.45954l-0.14659,0.53105c0,0 -0.3434,1.2019 -1.5453,0.8585z"/><path d="M273.80284,170.89532c0,-0.69036 0.55964,-1.25 1.25,-1.25c0.69035,0 1.25,0.55964 1.25,1.25c0,0.69036 -0.55965,1.25 -1.25,1.25c-0.69036,0 -1.25,-0.55964 -1.25,-1.25z"/><path d="M294.07557,181.25895c0,-0.07429 0.00648,-0.14706 0.01891,-0.21779l0.16609,-1.05308c0.03001,-0.41646 0.45908,-3.52093 -0.09915,-3.64887c-2.05399,-0.47073 -3.28614,4.05719 -4.20007,4.9856c-0.00515,0.00523 -0.01031,0.01046 -0.01549,0.01567l0.0049,0.00285l-0.62441,1.07043c-0.21381,0.38224 -0.62257,0.64065 -1.09168,0.64065c-0.69035,0 -1.25,-0.55964 -1.25,-1.25c0,-0.09909 0.01153,-0.19547 0.03332,-0.2879l0.26716,-1.24674c0.37841,-1.76568 0.66528,-3.47832 0.79361,-5.28169c0,0 0.08906,-1.24683 1.33588,-1.15777c1.24683,0.08906 1.15777,1.33588 1.15777,1.33588c-0.01499,0.20905 -0.03193,0.41703 -0.05075,0.62414c1.87885,-1.80042 4.57362,-3.14019 6.12403,-0.22972c0.28987,0.54414 0.16416,1.22318 0.20193,1.83856c0.06208,1.01152 -0.02263,1.76786 -0.09339,2.76702l-0.18968,1.25962c-0.02164,0.16222 -0.07439,0.31459 -0.15206,0.45094c-0.17185,0.33161 -0.52882,0.71973 -1.24515,0.62228c-0.02454,-0.0031 -0.04886,-0.00691 -0.07294,-0.01141c-0.70437,-0.12482 -0.92676,-0.59886 -0.99096,-0.96502c-0.01824,-0.08499 -0.02785,-0.1732 -0.02785,-0.26364z"/><path d="M298.35594,181.39364c0.13804,-1.24236 1.3804,-1.10432 1.3804,-1.10432l0.59699,0.08603c0.45541,-0.03036 0.91043,-0.06723 1.36622,-0.09108c2.73231,-0.14301 1.63191,-0.04416 -0.34636,-0.97854c-1.37846,-0.65107 -2.98198,-0.85641 -3.00287,-2.97542c-0.03571,-3.62265 4.09513,-2.5941 6.33887,-2.5941c0,0 1.25,0 1.25,1.25c0,1.25 -1.25,1.25 -1.25,1.25c-0.54546,0 -1.09091,0 -1.63636,0c-6.06939,0 4.67174,0.83148 2.7574,4.93934c-0.88159,1.89175 -3.6986,1.58678 -5.31061,1.69425l-1.03937,-0.09579c0,0 -1.24236,-0.13804 -1.10432,-1.38039z"/></g><g fill="#ffffff" stroke="none" stroke-width="0.5"><path d="M228.92803,187.67113c0,-1 1,-1 1,-1h0.72727c2.90786,0.17271 3.95518,3.19439 1.253,5.03247c-1.54175,1.04873 -4.56448,-0.67648 -5.31004,-2.00329c-3.27957,-5.83631 4.1961,-6.3019 7.78431,-6.3019c0,0 1,0 1,1c0,1 -1,1 -1,1c-1.89774,0 -5.96912,-0.84615 -6.28022,1.75854c-0.13794,1.15492 0.24536,2.01514 1.3527,2.39384c0.46449,0.15885 1.08898,0.82985 1.40179,0.45151c0.77516,-0.93754 1.07069,-1.4864 -0.20154,-1.33117h-0.72727c0,0 -1,0 -1,-1z"/><path d="M239.06019,187.04354c0.99123,0.13216 0.85906,1.12339 0.85906,1.12339l-0.21268,1.51021c-1.71087,3.47287 -6.17985,2.94904 -5.49221,-1.35223c0,0 0.1644,-0.98639 1.15079,-0.82199c0.98639,0.1644 0.82199,1.15079 0.82199,1.15079c-0.29558,1.68649 0.98268,2.01961 1.5987,0.46596l0.15096,-1.21706c0,0 0.13216,-0.99123 1.12339,-0.85907z"/><path d="M246.83712,190.85295c0,-1 1,-1 1,-1l0.47421,0.00254c0.11156,-0.00734 0.5387,-0.08041 0.94508,-0.08277c-0.04576,-0.02117 -0.08542,-0.04226 -0.1156,-0.06228c-0.45512,-0.30204 -1.16354,-0.46293 -1.30552,-0.99038c-0.19293,-0.71671 -0.03435,-1.61964 0.452,-2.18031c0.24936,-0.28746 2.35888,-0.23225 2.82257,-0.23225c0,0 1,0 1,1c0,1 -1,1 -1,1c-0.09932,0 -0.19248,-0.0006 -0.27972,-0.00172c0.84349,0.25843 1.72552,0.94207 0.88312,2.57471c-0.47471,0.92002 -2.41322,0.90554 -3.25942,0.96993l-0.61671,0.00254c0,0 -1,0 -1,-1z"/><path d="M258.43501,187.67312c-0.27472,0.96152 -1.23624,0.6868 -1.23624,0.6868l-0.52168,-0.14908c0.1003,0.6902 0.18223,1.38716 0.24684,2.09701l0.00411,0.63599c0,0 0,1 -1,1c-1,0 -1,-1 -1,-1l0.00411,-0.45492c-0.09298,-1.02394 -0.22328,-2.01815 -0.39532,-3.00466c-0.54128,-0.21796 -1.07734,-0.4567 -1.65895,-0.72096c0,0 -0.91037,-0.4138 -0.49657,-1.32417c0.4138,-0.91037 1.32417,-0.49656 1.32417,-0.49656c0.11169,0.05079 0.22124,0.10055 0.32914,0.14933c-0.07947,-0.32393 -0.1638,-0.64896 -0.25316,-0.97584c0,0 -0.26312,-0.96476 0.70165,-1.22788c0.96476,-0.26311 1.22788,0.70165 1.22788,0.70165c0.22089,0.81167 0.41324,1.61362 0.57874,2.41582c0.25938,0.08651 0.52891,0.16882 0.81505,0.24741l0.64344,0.18381c0,0 0.96152,0.27472 0.6868,1.23624z"/><path d="M262.56516,186.12989c1.60767,0.20904 2.99138,1.88668 2.40364,3.58118c-0.50974,1.46962 -2.13447,1.84463 -3.41402,2.19756l-0.80857,0.03524c0,0 -0.6936,0 -0.9255,-0.57765c-0.71086,-0.17129 -0.71086,-0.9678 -0.71086,-0.9678c0,-0.72862 0,-1.55676 0,-2.4108c-0.02451,-0.12951 -0.02154,-0.2461 0,-0.35032c0,-1.34724 0,-2.73343 0,-3.87524c0,0 0,-1 1,-1c1,0 1,1 1,1c0,0.86094 0,1.72189 0,2.58283c0.4802,-0.16854 0.97649,-0.27724 1.45532,-0.21498zM261.10984,189.67113v0.28556c2.47295,-0.69741 2.14718,-2.0979 0,-1.41432c0,0.37625 0,0.75251 0,1.12876z"/><path d="M266.638,191.49088c-0.77292,-0.04364 -0.88302,-0.86941 -0.88302,-0.86941c-0.29628,-2.70625 2.36055,-6.27196 4.79831,-2.90443c2.23965,3.09386 -1.21979,5.33453 -3.88941,3.79775zM267.67294,189.74152l0.06469,0.08595c1.43905,1.095 2.00082,-0.62212 0.72606,-1.31959c-0.75629,-0.41379 -0.82828,0.54438 -0.79075,1.23364z"/><path d="M246.2618,190.5195c0.24254,0.97014 -0.72761,1.21268 -0.72761,1.21268l-0.96981,0.21168c-2.50889,-0.0155 -5.47638,-2.16288 -3.21,-4.92793c1.78738,-2.18065 6.5933,-0.05954 2.78522,2.39275c-0.3473,0.22365 -0.80968,0.16421 -1.21451,0.24632c0,0 -0.01921,0.00349 -0.05275,0.00682c0.30816,0.50364 1.16854,0.28609 1.69205,0.28204l0.48474,-0.15196c0,0 0.97014,-0.24254 1.21268,0.72761z"/><path d="M272.91073,191.49088c-0.77292,-0.04364 -0.88302,-0.86941 -0.88302,-0.86941c-0.29628,-2.70625 2.36055,-6.27195 4.79831,-2.90443c2.23965,3.09386 -1.21979,5.33452 -3.88941,3.79774zM273.94567,189.74152l0.06469,0.08595c1.43905,1.095 2.00082,-0.62212 0.72606,-1.31959c-0.75629,-0.41379 -0.82829,0.54438 -0.79075,1.23364z"/><path d="M283.81695,191.92369c-0.70711,0.70711 -1.41421,0 -1.41421,0c-0.60664,-0.60664 -1.39917,-1.39917 -2.11178,-2.11178c0.00048,0.1349 0.00071,0.2698 0.00071,0.40468v0.63636c0,0 0,1 -1,1c-1,0 -1,-1 -1,-1v-0.63636c0,-1.88589 -0.04396,-3.77512 -0.17928,-5.65603c0,0 -0.07125,-0.99746 0.92621,-1.06871c0.99746,-0.07125 1.06871,0.92621 1.06871,0.92621c0.05763,0.81232 0.09942,1.62599 0.12849,2.44024c0.57827,-0.21233 1.15007,-0.44176 1.69957,-0.71796l0.94917,-0.32698c0,0 0.94868,-0.31623 1.26491,0.63246c0.31623,0.94868 -0.63246,1.26491 -0.63246,1.26491l-0.6872,0.21847c-0.35981,0.17907 -0.72761,0.34138 -1.10011,0.49301c0.57455,0.57455 1.14909,1.14909 1.72364,1.72364l0.36364,0.36364c0,0 0.70711,0.70711 0,1.41421z"/></g><path d="M224.50219,187.95602c-0.02083,0.99978 -1.02061,0.97895 -1.02061,0.97895l-0.22217,-0.00463c-6.7532,-0.14069 -13.4902,0.1635 -20.22709,0.02314c0,0 -0.99978,-0.02083 -0.97895,-1.02061c0.02083,-0.99978 1.02061,-0.97895 1.02061,-0.97895c6.73647,0.14034 13.47413,-0.16383 20.22709,-0.02314l0.22217,0.00463c0,0 0.99978,0.02083 0.97895,1.02061z" fill="#ffffff" stroke="none" stroke-width="0.5"/><path d="M307.05556,188.27778c0,1 -1,1 -1,1h-0.66667c-6.2218,0 -12.45036,-0.11424 -18.66667,-0.11111c0,0 -1,0 -1,-1c0,-1 1,-1 1,-1c6.21678,0.00294 12.44453,0.11111 18.66667,0.11111h0.66667c0,0 1,0 1,1z" fill="#ffffff" stroke="none" stroke-width="0.5"/></g></g></svg>