<svg version="1.1" xmlns="http://www.w3.org/2000/svg" xmlns:xlink="http://www.w3.org/1999/xlink" width="309.92857" height="50.67604" viewBox="0,0,309.92857,50.67604"><g transform="translate(-85.03571,-148)"><g data-paper-data="{&quot;isPaintingLayer&quot;:true}" fill-rule="nonzero" stroke-linecap="butt" stroke-linejoin="miter" stroke-miterlimit="10" stroke-dasharray="" stroke-dashoffset="0" style="mix-blend-mode: normal"><path d="M95.03571,198.42604l39.84559,-18.86475l-39.84558,-17.98732h260.08299l39.84558,17.98732l-39.84558,18.86475z" fill="#8c00ff" stroke="none" stroke-width="0"/><path d="M85.03571,198.42604l39.84559,-18.86475l-39.84558,-17.98732h260.08299l39.84558,17.98732l-39.84558,18.86475z" fill="#ff8800" stroke="none" stroke-width="0"/><path d="M91.36905,198.67604l39.33632,-19.11475l-39.33632,-18.23732h256.75891l39.33632,18.23732l-39.33632,19.11475z" fill="#000000" stroke="none" stroke-width="0"/><g fill="#ffffff" stroke="none" stroke-width="0"><path d="M173.55302,194.81444v-20.88693l24.61713,-0.10067l-21.40273,2.83579l0.06274,14.51591l16.31098,-0.0251l0.22305,-6.49194l-11.16601,-2.39937l14.14755,-0.15284l-0.0455,12.70516z" data-paper-data="{&quot;index&quot;:null}"/><path d="M165.19157,187.87825v-25.32497l3.64851,22.10569l21.67647,3.21928z" data-paper-data="{&quot;index&quot;:null}"/></g><path d="M237.75,155.5v-7.5h7.5v7.5z" fill="none" stroke="none" stroke-width="0"/><g fill="#ffffff" stroke="#ffffff" stroke-width="0.5"><path d="M207.59828,178.75895c0.6975,0.00767 5.32272,-0.57542 4.0523,-2.32718c-0.4809,-0.6631 -2.14817,-0.60815 -3.21545,-0.55999c-0.25261,0.97489 -0.58157,1.93347 -0.93594,2.88717zM207.7801,173.39532c1.8355,0.0011 4.781,-0.19488 5.9477,1.64536c2.62945,4.14745 -3.19725,6.19378 -6.12952,6.21828h-1.05358c-0.34029,0.90213 -0.66344,1.80884 -0.92633,2.72977l-0.48024,0.91313c0,0 -0.62017,1.08531 -1.70548,0.46513c-1.08531,-0.62017 -0.46513,-1.70548 -0.46513,-1.70548l0.24704,-0.3596c0.84675,-2.96118 2.39337,-5.81386 2.97617,-8.81083c0,0 0.19983,-0.99913 1.14072,-1.01285c0.24382,-0.08291 0.44864,-0.08291 0.44864,-0.08291z"/><path d="M222.66646,178.00895c0,1.25 -1.25,1.25 -1.25,1.25h-0.45454c-0.70168,-0.00173 -1.46902,-0.23553 -2.1041,0.06284c-0.80727,0.37927 -1.16707,1.02416 -1.44962,1.68668c-0.20973,0.92144 -0.49382,1.81238 -0.94769,2.79704l-0.53365,1.15625c-0.19249,0.44241 -0.63349,0.75175 -1.14675,0.75175c-0.69036,0 -1.25,-0.55964 -1.25,-1.25c0,-0.14146 0.02349,-0.27743 0.0668,-0.40422l0.53668,-1.69946l0.20544,0.06488c0.11279,-0.26326 0.21073,-0.51709 0.29689,-0.76594c0.07333,-0.29644 0.15952,-0.5842 0.2593,-0.8619c0.20862,-0.80953 0.32634,-1.62184 0.46563,-2.60104c0,0 0.17678,-1.23743 1.41421,-1.06066c0.38004,0.05429 0.6267,0.20863 0.78604,0.39644c0.90628,-0.49165 2.02893,-0.76968 3.40082,-0.77265h0.45454c0,0 1.25,0 1.25,1.25z"/><path d="M226.52779,185.79619c-0.42367,0.45681 -1.10628,0.3593 -1.10628,0.3593c-6.42214,-1.16889 -2.88083,-8.52057 2.05361,-9.02681c2.6929,-0.27627 5.24638,1.03368 4.51706,4.18587c-0.51887,2.2426 -2.64765,3.60504 -4.60984,4.32614zM225.21041,183.58227c0.23728,-0.13364 0.4551,-0.16995 0.4551,-0.16995l0.87599,-0.126c2.89238,-0.99373 4.56526,-4.73207 0.06392,-3.44726c-1.55159,0.44287 -3.27316,3.166 -1.395,3.74321z"/><path d="M238.30532,185.75631c-8.04689,2.14885 -6.7382,-9.78079 0.68886,-8.99128c0.53001,0.05634 1.04827,0.20279 1.54906,0.40309c0.33841,-1.05712 0.69499,-2.10242 1.05967,-3.12506c0,0 0.42042,-1.17718 1.5976,-0.75675c1.17718,0.42042 0.75675,1.5976 0.75675,1.5976c-0.45032,1.25892 -0.88747,2.55267 -1.29142,3.86038c0.0609,0.25492 0.03378,0.56456 -0.18482,0.91978c-0.04974,0.08083 -0.10184,0.15175 -0.15566,0.21379c-0.40025,1.37269 -0.75796,2.75405 -1.05029,4.12027l-0.28231,1.13217c0,0 -0.30317,1.21268 -1.51585,0.90951c-0.4118,-0.10295 -0.64881,-0.31078 -0.78224,-0.54039zM236.86015,179.5025c-2.3976,1.1323 -2.55183,4.88904 0.75836,3.85l0.60818,-0.53628c0,0 0.36139,-0.26283 0.80917,-0.25812c0.23226,-0.99544 0.49509,-1.99648 0.78031,-2.9943c-0.93173,-0.40448 -1.94521,-0.53867 -2.95603,-0.0613z"/><path d="M252.41646,177.30441c1.25,0 1.25,1.25 1.25,1.25l-0.0569,0.64557c-0.97172,3.05835 -2.63036,6.48723 -6.34024,6.60395c-1.07773,0.03391 -3.07506,-0.46594 -3.6662,-1.44886c-1.00461,-1.67045 0.9885,-4.392 1.42961,-5.96224c0,0 0.3434,-1.2019 1.54531,-0.8585c1.20191,0.3434 0.8585,1.5453 0.8585,1.5453c-0.11011,0.38001 -1.78433,3.87439 -1.6613,4.03776c0.29478,0.39142 2.07093,0.10535 2.3995,-0.01176c1.77644,-0.63319 2.55184,-3.0291 3.04861,-4.65133l-0.0569,0.10012c0,0 0,-1.25 1.25,-1.25z"/><path d="M261.07995,185.38615c-0.55431,1.10862 -1.65827,0.56831 -1.67682,0.55914c-1.37943,-0.1923 -3.55628,-0.45263 -4.37531,-1.67544c-2.91988,-4.35935 3.92363,-7.23121 6.93409,-7.23817c0,0 1.25,0 1.25,1.25c0,1.25 -1.25,1.25 -1.25,1.25c-1.56228,-0.00415 -3.60154,0.24117 -4.45606,1.81751c-0.24623,0.45424 -0.78197,1.11336 -0.42802,1.48977c0.47856,0.50894 2.26498,0.57362 2.87905,0.65983l0.56406,0.21032c0,0 1.11803,0.55901 0.55902,1.67705zM259.43681,185.94999l0.16652,0.02367c-0.05399,-0.00783 -0.10954,-0.0157 -0.16652,-0.02367z"/><path d="M271.54744,180.33869c-0.69338,1.04006 -1.73344,0.34668 -1.73344,0.34668l-0.4447,-0.30311c-0.25491,-0.13741 -0.51139,-0.27092 -0.76889,-0.4019c-0.23059,1.4595 -0.46395,2.91842 -0.67378,4.38718l-0.19902,0.91257c0,0 -0.27116,1.22024 -1.4914,0.94907c-1.22024,-0.27116 -0.94907,-1.4914 -0.94907,-1.4914l0.16462,-0.7238c0.24832,-1.73824 0.53,-3.46165 0.8007,-5.18874c-0.64395,-0.31835 -1.28372,-0.64603 -1.91071,-1.00373c0,0 -1.08531,-0.62017 -0.46514,-1.70548c0.62018,-1.08531 1.70548,-0.46513 1.70548,-0.46513c0.35057,0.20068 0.70542,0.39164 1.06291,0.57664c0.09134,-0.63765 0.1782,-1.27705 0.25839,-1.91911c0,0 0.15505,-1.24035 1.3954,-1.08531c1.24034,0.15505 1.0853,1.39539 1.0853,1.39539c-0.11613,0.92825 -0.24604,1.85124 -0.38319,2.77155c0.52127,0.25521 1.04075,0.51512 1.55365,0.791l0.64621,0.42416c0,0 1.04006,0.69338 0.34669,1.73344z"/><path d="M281.07324,185.79619c-0.42367,0.45681 -1.10628,0.3593 -1.10628,0.3593c-6.42214,-1.16889 -2.88084,-8.52057 2.0536,-9.02681c2.6929,-0.27627 5.24638,1.03368 4.51706,4.18587c-0.51887,2.2426 -2.64765,3.60504 -4.60983,4.32614zM279.75587,183.58227c0.23728,-0.13364 0.4551,-0.16995 0.4551,-0.16995l0.87598,-0.126c2.89238,-0.99373 4.56526,-4.73207 0.06392,-3.44726c-1.55159,0.44287 -3.27316,3.166 -1.395,3.74321z"/><path d="M272.4367,186.57449c-1.20191,-0.3434 -0.85851,-1.5453 -0.85851,-1.5453l0.21704,-0.74169c0.77093,-1.99834 1.04522,-4.00519 1.48988,-6.08591c0,0 0.26191,-1.22225 1.48417,-0.96034c1.22226,0.26191 0.96034,1.48416 0.96034,1.48416c-0.47456,2.20818 -0.78609,4.33478 -1.60103,6.45954l-0.14659,0.53105c0,0 -0.3434,1.2019 -1.5453,0.8585z"/><path d="M273.80283,174.64532c0,-0.69036 0.55964,-1.25 1.25,-1.25c0.69035,0 1.25,0.55964 1.25,1.25c0,0.69036 -0.55965,1.25 -1.25,1.25c-0.69036,0 -1.25,-0.55964 -1.25,-1.25z"/><path d="M294.07556,185.00895c0,-0.07429 0.00648,-0.14706 0.01891,-0.21779l0.16609,-1.05308c0.03001,-0.41646 0.45908,-3.52093 -0.09915,-3.64887c-2.05399,-0.47073 -3.28614,4.05719 -4.20007,4.9856c-0.00515,0.00523 -0.01031,0.01046 -0.01549,0.01567l0.0049,0.00285l-0.62441,1.07043c-0.21381,0.38224 -0.62257,0.64065 -1.09168,0.64065c-0.69035,0 -1.25,-0.55964 -1.25,-1.25c0,-0.09909 0.01153,-0.19547 0.03332,-0.2879l0.26716,-1.24674c0.37841,-1.76568 0.66528,-3.47832 0.79361,-5.28169c0,0 0.08906,-1.24683 1.33588,-1.15777c1.24683,0.08906 1.15777,1.33588 1.15777,1.33588c-0.01499,0.20905 -0.03193,0.41703 -0.05075,0.62414c1.87885,-1.80042 4.57362,-3.14019 6.12403,-0.22972c0.28987,0.54414 0.16416,1.22318 0.20193,1.83856c0.06208,1.01152 -0.02263,1.76786 -0.09339,2.76702l-0.18968,1.25962c-0.02164,0.16222 -0.07439,0.31459 -0.15206,0.45094c-0.17185,0.33161 -0.52882,0.71973 -1.24515,0.62228c-0.02454,-0.0031 -0.04886,-0.00691 -0.07294,-0.01141c-0.70437,-0.12482 -0.92676,-0.59886 -0.99096,-0.96502c-0.01824,-0.08499 -0.02785,-0.1732 -0.02785,-0.26364z"/><path d="M298.35593,185.14364c0.13804,-1.24236 1.3804,-1.10432 1.3804,-1.10432l0.59699,0.08603c0.45541,-0.03036 0.91043,-0.06723 1.36622,-0.09108c2.73231,-0.14301 1.63191,-0.04416 -0.34636,-0.97854c-1.37846,-0.65107 -2.98198,-0.85641 -3.00287,-2.97542c-0.03571,-3.62265 4.09513,-2.5941 6.33887,-2.5941c0,0 1.25,0 1.25,1.25c0,1.25 -1.25,1.25 -1.25,1.25c-0.54546,0 -1.09091,0 -1.63636,0c-6.06939,0 4.67174,0.83148 2.7574,4.93934c-0.88159,1.89175 -3.6986,1.58678 -5.31061,1.69425l-1.03937,-0.09579c0,0 -1.24236,-0.13804 -1.10432,-1.38039z"/></g></g></g></svg>