<svg version="1.1" xmlns="http://www.w3.org/2000/svg" xmlns:xlink="http://www.w3.org/1999/xlink" width="465.39497" height="157.61376" viewBox="0,0,465.39497,157.61376"><defs><linearGradient x1="387.62637" y1="184.44744" x2="373.32394" y2="244.08556" gradientUnits="userSpaceOnUse" id="color-1"><stop offset="0" stop-color="#fff465"/><stop offset="1" stop-color="#ffea00"/></linearGradient><linearGradient x1="382.79931" y1="204.5753" x2="378.15102" y2="223.95769" gradientUnits="userSpaceOnUse" id="color-2"><stop offset="0" stop-color="#fff465"/><stop offset="1" stop-color="#ffea00"/></linearGradient><linearGradient x1="385.3121" y1="193.85056" x2="375.77617" y2="233.61336" gradientUnits="userSpaceOnUse" id="color-3"><stop offset="0" stop-color="#fff465"/><stop offset="1" stop-color="#ffea00"/></linearGradient><linearGradient x1="131.49998" y1="217.09661" x2="344.49999" y2="217.09661" gradientUnits="userSpaceOnUse" id="color-4"><stop offset="0" stop-color="#ff0000"/><stop offset="1" stop-color="#cc00ff"/></linearGradient><linearGradient x1="118.76042" y1="142.32537" x2="186.81035" y2="142.32537" gradientUnits="userSpaceOnUse" id="color-5"><stop offset="0" stop-color="#a6ffc2"/><stop offset="1" stop-color="#a9ff5e"/></linearGradient></defs><g transform="translate(-7.30252,-101.19312)"><g data-paper-data="{&quot;isPaintingLayer&quot;:true}" fill-rule="nonzero" stroke-linejoin="miter" stroke-miterlimit="10" stroke-dasharray="" stroke-dashoffset="0" style="mix-blend-mode: normal"><g fill="#000000" stroke="#000000" stroke-linecap="butt"><g><path d="M367.63274,245.76141l14.30244,-59.63812l19.38239,4.64829l-14.30244,59.63812z" stroke-width="1.5"/><path d="M411.97008,235.10891l-59.63812,-14.30244l4.64829,-19.38239l59.63812,14.30244z" stroke-width="1.5"/><path d="M370.98072,235.50403l9.53593,-39.7628l17.59091,4.21866l-9.53593,39.7628z" stroke-width="0"/></g><path d="M135.49998,250.59661v-59h213v59z" stroke-width="2"/><path d="M15.50779,147.80471c0,-19.19998 15.56466,-34.76464 34.76464,-34.76464c19.19998,0 34.76464,15.56466 34.76464,34.76464c0,19.19998 -15.56466,34.76464 -34.76464,34.76464c-19.19998,0 -34.76464,-15.56466 -34.76464,-34.76464z" stroke-width="2"/><path d="M122.76042,146.32537c0,-18.79147 15.23349,-34.02496 34.02496,-34.02496c18.79147,0 34.02496,15.23349 34.02496,34.02496c0,18.79147 -15.23349,34.02496 -34.02496,34.02496c-18.79147,0 -34.02496,-15.23349 -34.02496,-34.02496z" stroke-width="2"/><path d="M240.36841,160.00931c0,0.20426 -0.16558,0.36984 -0.36984,0.36984c-0.20426,0 -0.36984,-0.16558 -0.36984,-0.36984c0,-0.20426 0.16558,-0.36984 0.36984,-0.36984c0.20426,0 0.36984,0.16558 0.36984,0.36984z" stroke-width="2"/><path d="M184.89295,149.9536c0,-18.38296 14.90233,-33.28529 33.28529,-33.28529c18.38296,0 33.28529,14.90233 33.28529,33.28529c0,18.38296 -14.90233,33.28529 -33.28529,33.28529c-18.38296,0 -33.28529,-14.90233 -33.28529,-33.28529z" stroke-width="2"/><path d="M241.84781,146.81913c0,-19.40423 15.73024,-35.13447 35.13447,-35.13447c19.40423,0 35.13447,15.73024 35.13447,35.13447c0,19.40423 -15.73024,35.13447 -35.13447,35.13447c-19.40423,0 -35.13447,-15.73024 -35.13447,-35.13447z" stroke-width="2"/><text transform="translate(40.36174,164.81193) scale(1.26361,1.26361)" font-size="40" xml:space="preserve" fill="#000000" fill-rule="nonzero" stroke="#000000" stroke-width="1" stroke-linecap="butt" stroke-linejoin="miter" stroke-miterlimit="10" stroke-dasharray="" stroke-dashoffset="0" font-family="Sans Serif" font-weight="normal" text-anchor="start" style="mix-blend-mode: normal"><tspan x="0" dy="0">I</tspan></text><path d="M297.80868,147.08251c0,-17.15743 13.90884,-31.06627 31.06627,-31.06627c17.15743,0 31.06627,13.90884 31.06627,31.06627c0,17.15743 -13.90884,31.06627 -31.06627,31.06627c-17.15743,0 -31.06627,-13.90884 -31.06627,-31.06627z" stroke-width="2"/><path d="M350.32549,144.79722c0,-19.19998 15.56466,-34.76464 34.76464,-34.76464c19.19998,0 34.76464,15.56466 34.76464,34.76464c0,19.19998 -15.56466,34.76464 -34.76464,34.76464c-19.19998,0 -34.76464,-15.56466 -34.76464,-34.76464z" stroke-width="2"/><text transform="translate(210.55069,168.66954) scale(1.26361,1.26361)" font-size="40" xml:space="preserve" fill="#000000" fill-rule="nonzero" stroke="#000000" stroke-width="1" stroke-linecap="butt" stroke-linejoin="miter" stroke-miterlimit="10" stroke-dasharray="" stroke-dashoffset="0" font-family="&quot;ヒラギノ角ゴ Pro W3&quot;, &quot;Hiragino Kaku Gothic Pro&quot;, Osaka, &quot;メイリオ&quot;, Meiryo, &quot;ＭＳ Ｐゴシック&quot;, &quot;MS PGothic&quot;" font-weight="normal" text-anchor="start" style="mix-blend-mode: normal"><tspan x="0" dy="0">I</tspan></text><text transform="translate(144.48338,164.81193) scale(1.26361,1.26361)" font-size="40" xml:space="preserve" fill="#000000" fill-rule="nonzero" stroke="#000000" stroke-width="1" stroke-linecap="butt" stroke-linejoin="miter" stroke-miterlimit="10" stroke-dasharray="" stroke-dashoffset="0" font-family="&quot;ヒラギノ角ゴ Pro W3&quot;, &quot;Hiragino Kaku Gothic Pro&quot;, Osaka, &quot;メイリオ&quot;, Meiryo, &quot;ＭＳ Ｐゴシック&quot;, &quot;MS PGothic&quot;" font-weight="normal" text-anchor="start" style="mix-blend-mode: normal"><tspan x="0" dy="0">F</tspan></text><text transform="translate(258.18062,164.85939) scale(1.26361,1.26361)" font-size="40" xml:space="preserve" fill="#000000" fill-rule="nonzero" stroke="#000000" stroke-width="1" stroke-linecap="butt" stroke-linejoin="miter" stroke-miterlimit="10" stroke-dasharray="" stroke-dashoffset="0" font-family="&quot;ヒラギノ角ゴ Pro W3&quot;, &quot;Hiragino Kaku Gothic Pro&quot;, Osaka, &quot;メイリオ&quot;, Meiryo, &quot;ＭＳ Ｐゴシック&quot;, &quot;MS PGothic&quot;" font-weight="normal" text-anchor="start" style="mix-blend-mode: normal"><tspan x="0" dy="0">N</tspan></text><text transform="translate(321.47144,163.97834) scale(1.26361,1.26361)" font-size="40" xml:space="preserve" fill="#000000" fill-rule="nonzero" stroke="#000000" stroke-width="1" stroke-linecap="butt" stroke-linejoin="miter" stroke-miterlimit="10" stroke-dasharray="" stroke-dashoffset="0" font-family="&quot;ヒラギノ角ゴ Pro W3&quot;, &quot;Hiragino Kaku Gothic Pro&quot;, Osaka, &quot;メイリオ&quot;, Meiryo, &quot;ＭＳ Ｐゴシック&quot;, &quot;MS PGothic&quot;" font-weight="normal" text-anchor="start" style="mix-blend-mode: normal"><tspan x="0" dy="0">I</tspan></text><path d="M405.82446,146.32852c0,-17.30522 14.02866,-31.33388 31.33389,-31.33388c17.30522,0 31.33388,14.02866 31.33388,31.33388c0,17.30522 -14.02866,31.33388 -31.33388,31.33388c-17.30522,0 -31.33389,-14.02866 -31.33389,-31.33388z" stroke-width="2"/><text transform="translate(419.93382,166.91107) scale(1.41146,1.41146)" font-size="40" xml:space="preserve" fill="#000000" fill-rule="nonzero" stroke="#000000" stroke-width="1" stroke-linecap="butt" stroke-linejoin="miter" stroke-miterlimit="10" stroke-dasharray="" stroke-dashoffset="0" font-family="&quot;ヒラギノ角ゴ Pro W3&quot;, &quot;Hiragino Kaku Gothic Pro&quot;, Osaka, &quot;メイリオ&quot;, Meiryo, &quot;ＭＳ Ｐゴシック&quot;, &quot;MS PGothic&quot;" font-weight="normal" text-anchor="start" style="mix-blend-mode: normal"><tspan x="0" dy="0">Y</tspan></text><text transform="translate(364.93382,167.85502) scale(1.41146,1.41146)" font-size="40" xml:space="preserve" fill="#000000" fill-rule="nonzero" stroke="#000000" stroke-width="1" stroke-linecap="butt" stroke-linejoin="miter" stroke-miterlimit="10" stroke-dasharray="" stroke-dashoffset="0" font-family="&quot;ヒラギノ角ゴ Pro W3&quot;, &quot;Hiragino Kaku Gothic Pro&quot;, Osaka, &quot;メイリオ&quot;, Meiryo, &quot;ＭＳ Ｐゴシック&quot;, &quot;MS PGothic&quot;" font-weight="normal" text-anchor="start" style="mix-blend-mode: normal"><tspan x="0" dy="0">T</tspan></text><text transform="translate(144.49998,237.84245) scale(1.34375,1.34375)" font-size="40" xml:space="preserve" fill="#000000" fill-rule="nonzero" stroke="#000000" stroke-width="1" stroke-linecap="butt" stroke-linejoin="miter" stroke-miterlimit="10" stroke-dasharray="" stroke-dashoffset="0" font-family="&quot;ヒラギノ角ゴ Pro W3&quot;, &quot;Hiragino Kaku Gothic Pro&quot;, Osaka, &quot;メイリオ&quot;, Meiryo, &quot;ＭＳ Ｐゴシック&quot;, &quot;MS PGothic&quot;" font-weight="normal" text-anchor="start" style="mix-blend-mode: normal"><tspan x="0" dy="0">PLAYER</tspan></text><path d="M76.16099,149.0487c0,-16.74892 13.57768,-30.3266 30.3266,-30.3266c16.74892,0 30.3266,13.57768 30.3266,30.3266c0,16.74892 -13.57768,30.3266 -30.3266,30.3266c-16.74892,0 -30.3266,-13.57768 -30.3266,-30.3266z" stroke-width="2"/><text transform="translate(89.87291,167.41258) scale(1.26361,1.26361)" font-size="40" xml:space="preserve" fill="#000000" fill-rule="nonzero" stroke="#000000" stroke-width="1" stroke-linecap="butt" stroke-linejoin="miter" stroke-miterlimit="10" stroke-dasharray="" stroke-dashoffset="0" font-family="&quot;ヒラギノ角ゴ Pro W3&quot;, &quot;Hiragino Kaku Gothic Pro&quot;, Osaka, &quot;メイリオ&quot;, Meiryo, &quot;ＭＳ Ｐゴシック&quot;, &quot;MS PGothic&quot;" font-weight="normal" text-anchor="start" style="mix-blend-mode: normal"><tspan x="0" dy="0">N</tspan></text></g><g stroke-linecap="butt"><path d="M363.63274,241.76141l14.30244,-59.63812l19.38239,4.64829l-14.30244,59.63812z" fill="url(#color-1)" stroke="#000000" stroke-width="1.5"/><path d="M407.97008,231.10891l-59.63812,-14.30244l4.64829,-19.38239l59.63812,14.30244z" fill="url(#color-2)" stroke="#000000" stroke-width="1.5"/><path d="M366.98072,231.50403l9.53593,-39.7628l17.59091,4.21866l-9.53593,39.7628z" fill="url(#color-3)" stroke="none" stroke-width="0"/></g><path d="M131.49998,246.59661v-59h213v59z" fill="url(#color-4)" stroke="#980000" stroke-width="2" stroke-linecap="butt"/><path d="M11.50779,143.80471c0,-19.19998 15.56466,-34.76464 34.76464,-34.76464c19.19998,0 34.76464,15.56466 34.76464,34.76464c0,19.19998 -15.56466,34.76464 -34.76464,34.76464c-19.19998,0 -34.76464,-15.56466 -34.76464,-34.76464z" fill="#a7ffe9" stroke="#000000" stroke-width="2" stroke-linecap="butt"/><path d="M118.76042,142.32537c0,-18.79147 15.23349,-34.02496 34.02496,-34.02496c18.79147,0 34.02496,15.23349 34.02496,34.02496c0,18.79147 -15.23349,34.02496 -34.02496,34.02496c-18.79147,0 -34.02496,-15.23349 -34.02496,-34.02496z" fill="url(#color-5)" stroke="#000000" stroke-width="2" stroke-linecap="butt"/><path d="M236.36841,156.00931c0,0.20426 -0.16558,0.36984 -0.36984,0.36984c-0.20426,0 -0.36984,-0.16558 -0.36984,-0.36984c0,-0.20426 0.16558,-0.36984 0.36984,-0.36984c0.20426,0 0.36984,0.16558 0.36984,0.36984z" fill="#a7abff" stroke="#000000" stroke-width="2" stroke-linecap="butt"/><path d="M180.89295,145.9536c0,-18.38296 14.90233,-33.28529 33.28529,-33.28529c18.38296,0 33.28529,14.90233 33.28529,33.28529c0,18.38296 -14.90233,33.28529 -33.28529,33.28529c-18.38296,0 -33.28529,-14.90233 -33.28529,-33.28529z" fill="#ffea2f" stroke="#000000" stroke-width="2" stroke-linecap="butt"/><path d="M237.84781,142.81913c0,-19.40423 15.73024,-35.13447 35.13447,-35.13447c19.40423,0 35.13447,15.73024 35.13447,35.13447c0,19.40423 -15.73024,35.13447 -35.13447,35.13447c-19.40423,0 -35.13447,-15.73024 -35.13447,-35.13447z" fill="#5ca3ff" stroke="#000000" stroke-width="2" stroke-linecap="butt"/><path d="M293.80868,143.08251c0,-17.15743 13.90884,-31.06627 31.06627,-31.06627c17.15743,0 31.06627,13.90884 31.06627,31.06627c0,17.15743 -13.90884,31.06627 -31.06627,31.06627c-17.15743,0 -31.06627,-13.90884 -31.06627,-31.06627z" fill="#ffa6a6" stroke="#000000" stroke-width="2" stroke-linecap="butt"/><path d="M346.32549,140.79722c0,-19.19998 15.56466,-34.76464 34.76464,-34.76464c19.19998,0 34.76464,15.56466 34.76464,34.76464c0,19.19998 -15.56466,34.76464 -34.76464,34.76464c-19.19998,0 -34.76464,-15.56466 -34.76464,-34.76464z" fill="#ff64fd" stroke="#000000" stroke-width="2" stroke-linecap="butt"/><path d="M401.82446,142.32852c0,-17.30522 14.02866,-31.33388 31.33389,-31.33388c17.30522,0 31.33388,14.02866 31.33388,31.33388c0,17.30522 -14.02866,31.33388 -31.33388,31.33388c-17.30522,0 -31.33389,-14.02866 -31.33389,-31.33388z" fill="#ffbe6a" stroke="#000000" stroke-width="2" stroke-linecap="butt"/><path d="M72.16099,145.0487c0,-16.74892 13.57768,-30.3266 30.3266,-30.3266c16.74892,0 30.3266,13.57768 30.3266,30.3266c0,16.74892 -13.57768,30.3266 -30.3266,30.3266c-16.74892,0 -30.3266,-13.57768 -30.3266,-30.3266z" fill="#a7abff" stroke="#000000" stroke-width="2" stroke-linecap="butt"/><g fill="none" stroke="#ff4a00" stroke-width="5.5" stroke-linecap="round"><path d="M45.36733,127.55208v30.33333"/><path d="M40.36733,126.21875h10.33333"/><path d="M40.03399,158.88541h10.33334"/></g><path d="M7.30252,258.80689v-157.61376h465.39497v157.61376z" fill="none" stroke="none" stroke-width="NaN" stroke-linecap="butt"/><g fill="none" stroke="#ff4a00" stroke-width="5.5" stroke-linecap="round"><path d="M213.70067,130.88542v30.33333"/><path d="M208.70066,129.55208h10.33334"/><path d="M208.70066,162.21875h10.33334"/></g><g fill="none" stroke="#ff4a00" stroke-width="5.5" stroke-linecap="round"><path d="M324.36733,127.55208v30.33333"/><path d="M319.36733,126.21875h10.33334"/><path d="M319.034,158.88541h10.33333"/></g><g fill="none" stroke="#ff4a00" stroke-width="5.5" stroke-linecap="round"><path d="M365.36733,126.21875h26.66667"/><path d="M379.034,126.88541v34.33334"/></g><path d="M420.7377,124.55208l12,21.66667l12.66667,-21.66667" fill="none" stroke="#ff4a00" stroke-width="5.5" stroke-linecap="round"/><path d="M432.7377,160.21875v-13.33334" fill="none" stroke="#ff4a00" stroke-width="5.5" stroke-linecap="round"/><path d="M90.36733,161.21875v-28l24.33334,24v-28.33334" fill="none" stroke="#ff4a00" stroke-width="5.5" stroke-linecap="round"/><path d="M258.70067,158.55208v-28l24.33333,24v-28.33333" fill="none" stroke="#ff4a00" stroke-width="5.5" stroke-linecap="round"/><g fill="none" stroke="#ff4a00" stroke-width="5.5" stroke-linecap="round"><path d="M148.034,158.21875v-31h15.66667"/><path d="M148.70066,143.55208h15"/></g><path d="M182.39193,199.55208v33.66667h17" fill="none" stroke="#e3ff0d" stroke-width="7" stroke-linecap="round"/><path d="M206.39193,233.55208l14.33333,-29.33333l14.33334,29.33333" fill="none" stroke="#e3ff0d" stroke-width="7" stroke-linecap="round"/><path d="M214.0586,221.88541h13.33334" fill="none" stroke="#e3ff0d" stroke-width="7" stroke-linecap="round"/><path d="M239.0586,199.55208l11.66666,19.33333l12,-19.33333" fill="none" stroke="#e3ff0d" stroke-width="7" stroke-linecap="round"/><path d="M250.72526,217.21875v16.33333" fill="none" stroke="#e3ff0d" stroke-width="7" stroke-linecap="round"/><path d="M149.39193,233.55208v-34c0,0 11.28529,-2.28859 16.66666,3c2.51011,2.46683 3.05027,4.4013 3.07151,6.32519c0.02429,2.20069 -0.83604,4.38753 -3.73817,7.34148c-5.43922,5.53636 -15.33334,2.33333 -15.33334,2.33333" fill="none" stroke="#e3ff0d" stroke-width="7" stroke-linecap="round"/><path d="M291.0586,199.88541h-16.33334v33.33334h16.33334" fill="none" stroke="#e3ff0d" stroke-width="7" stroke-linecap="round"/><path d="M275.0586,215.55208h15.66666" fill="none" stroke="#e3ff0d" stroke-width="7" stroke-linecap="round"/><path d="M304.39193,233.55208v-34c0,0 11.2853,-2.28859 16.66666,3c2.51011,2.46683 3.05027,4.4013 3.07151,6.32519c0.02429,2.20069 -0.83604,4.38753 -3.73817,7.34148c-5.43922,5.53636 -15.33334,2.33333 -15.33334,2.33333" fill="none" stroke="#e3ff0d" stroke-width="7" stroke-linecap="round"/><path d="M318.05859,220.21874l7.66667,13.33333" fill="none" stroke="#e3ff0d" stroke-width="7" stroke-linecap="round"/></g></g></svg>