<svg version="1.1" xmlns="http://www.w3.org/2000/svg" xmlns:xlink="http://www.w3.org/1999/xlink" width="337.02276" height="106.67572" viewBox="0,0,337.02276,106.67572"><defs><linearGradient x1="239.99996" y1="128.19002" x2="239.99996" y2="205.20922" gradientUnits="userSpaceOnUse" id="color-1"><stop offset="0" stop-color="#dbff66"/><stop offset="1" stop-color="#8fff66"/></linearGradient></defs><g transform="translate(-71.48862,-126.94002)"><g data-paper-data="{&quot;isPaintingLayer&quot;:true}" fill-rule="nonzero" stroke-linejoin="miter" stroke-miterlimit="10" stroke-dasharray="" stroke-dashoffset="0" style="mix-blend-mode: normal"><g><path d="M407.26138,171.23445c0,21.26877 -17.65789,38.51049 -39.44227,38.51049h-255.6364c-21.78437,0 -39.4441,-17.24172 -39.4441,-38.51049v0c0,-21.26698 17.65972,-38.5087 39.4441,-38.5087h255.6364c21.78437,0 39.44227,17.24172 39.44227,38.5087z" fill="#000000" stroke="#000000" stroke-width="2.5" stroke-linecap="butt"/><path d="M407.26138,166.69872c0,21.26877 -17.65789,38.51049 -39.44227,38.51049h-255.6364c-21.78437,0 -39.4441,-17.24172 -39.4441,-38.51049v0c0,-21.26698 17.65972,-38.5087 39.4441,-38.5087h255.6364c21.78437,0 39.44227,17.24172 39.44227,38.5087z" fill="url(#color-1)" stroke="#3bed00" stroke-width="2.5" stroke-linecap="butt"/><g fill="none" stroke="none"><g stroke-width="0" stroke-linecap="round"><g><path d="M120.01498,169.94222l20.83415,0.97462l-0.27413,23.6345c0,0 -13.4386,0.07125 -21.10477,-0.01185c-7.30205,-0.07915 -12.78688,0.03732 -18.91872,-6.56682c-6.13184,-6.60415 -5.55578,-15.40487 -5.14734,-19.35293c0.72054,-6.96465 2.50786,-16.79051 7.06627,-20.60642c2.57941,-2.15928 10.28112,-1.81078 15.9044,-1.73506c6.35005,0.08552 20.28122,2.22236 20.28122,2.22236"/></g></g><g stroke-width="1" stroke-linecap="butt" font-family="sans-serif" font-weight="normal" font-size="12" text-anchor="start"><g/></g></g><g fill="#000000" stroke="#000000" stroke-linecap="butt" font-family="Sans Serif" font-weight="normal" font-size="40" text-anchor="start"><text transform="translate(109.08159,223.84988) scale(0.66334,0.66334)" font-size="40" xml:space="preserve" fill="#000000" fill-rule="nonzero" stroke="#000000" stroke-width="5" stroke-linecap="butt" stroke-linejoin="miter" stroke-miterlimit="10" stroke-dasharray="" stroke-dashoffset="0" font-family="Sans Serif" font-weight="normal" text-anchor="start" style="mix-blend-mode: normal"><tspan x="0" dy="0">the Jumping Triangle</tspan></text><text transform="translate(109.08159,223.84988) scale(0.66334,0.66334)" font-size="40" xml:space="preserve" fill="#000000" fill-rule="nonzero" stroke="#000000" stroke-width="1" stroke-linecap="butt" stroke-linejoin="miter" stroke-miterlimit="10" stroke-dasharray="" stroke-dashoffset="0" font-family="Sans Serif" font-weight="normal" text-anchor="start" style="mix-blend-mode: normal"><tspan x="0" dy="0">the Jumping Triangle</tspan></text></g><g fill="none" stroke-width="8.5"><g stroke="#ff9500"><path d="M163.32809,171.1056l16.44801,-1.46192" stroke-linecap="round"/><path d="M373.04023,169.64368l-16.44801,1.46192" stroke-linecap="round"/><g><path d="M120.01499,166.79018l20.83415,0.97462l-0.27413,23.6345c0,0 -13.4386,0.07125 -21.10477,-0.01185c-7.30205,-0.07915 -12.78688,0.03732 -18.91872,-6.56682c-6.13184,-6.60415 -5.55578,-15.40487 -5.14734,-19.35293c0.72054,-6.96465 2.50786,-16.79051 7.06627,-20.60642c2.57941,-2.15928 10.28112,-1.81078 15.9044,-1.73506c6.35005,0.08552 20.28122,2.22236 20.28122,2.22236" stroke-linecap="round"/><path d="M191.56386,192.79087l-29.05815,-0.97462l-0.27414,-45.56339l25.49441,-1.70559" stroke-linecap="round"/><path d="M222.81507,193.03452c-10.29518,0 -18.64108,-10.89674 -18.64108,-24.33857c0,-13.44181 8.34589,-24.33857 18.64108,-24.33857c10.29518,0 18.64108,10.89674 18.64108,24.33857c0,13.44181 -8.34589,24.33857 -18.64108,24.33857z" stroke-linecap="butt"/><path d="M259.70202,192.79086c0,0 -3.83441,-38.1248 0.76096,-44.86479c3.58135,-5.25274 16.19198,-3.7411 20.29224,-0.22546c4.09777,3.51351 6.65219,12.10503 1.52192,17.13429c-5.13028,5.02926 -18.77033,3.38177 -18.77033,3.38177l18.26302,24.57418" stroke-linecap="round"/><path d="M319.43268,168.51404l15.64935,0.93535l-0.20591,22.68202c0,0 -10.09426,0.06837 -15.85264,-0.01138c-5.48487,-0.07596 -9.60474,0.03582 -14.21061,-6.30218c-4.60586,-6.33801 -4.17317,-14.78405 -3.86637,-18.57301c0.54122,-6.68399 1.88376,-16.11386 5.30776,-19.77598c1.9375,-2.07225 7.72256,-1.73781 11.94643,-1.66512c4.76978,0.08207 15.23404,2.1328 15.23404,2.1328" stroke-linecap="round"/><path d="M384.82796,192.79087l-29.05815,-0.97462l-0.27413,-45.56339l25.49441,-1.70559" stroke-linecap="round"/></g></g><g stroke="#ffa529"><path d="M177.64149,169.70027l-17.031,1.51374" stroke-linecap="round"/><path d="M377.75581,169.70028l-17.031,1.51374" stroke-linecap="round"/><g><path d="M115.76219,166.74563l21.57261,1.00917l-0.28385,24.47221c0,0 -13.91492,0.07376 -21.85283,-0.01227c-7.56086,-0.08195 -13.2401,0.03865 -19.58928,-6.79959c-6.34918,-6.83823 -5.75272,-15.95089 -5.32979,-20.03889c0.74608,-7.21152 2.59677,-17.38565 7.31674,-21.33681c2.67084,-2.23581 10.64554,-1.87496 16.46811,-1.79655c6.57513,0.08855 21.00009,2.30114 21.00009,2.30114" stroke-linecap="round"/><path d="M189.84705,193.6679l-30.08811,-1.00917l-0.28385,-47.17839l26.39805,-1.76603" stroke-linecap="round"/><path d="M222.20594,193.9202c-10.66009,0 -19.3018,-11.28299 -19.3018,-25.20125c0,-13.91826 8.64172,-25.20124 19.3018,-25.20124c10.66009,0 19.3018,11.28297 19.3018,25.20124c0,13.91826 -8.64172,25.20125 -19.3018,25.20125z" stroke-linecap="butt"/><path d="M260.40036,193.6679c0,0 -3.97032,-39.47612 0.78792,-46.455c3.7083,-5.43893 16.76589,-3.8737 21.01149,-0.23344c4.24302,3.63804 6.88797,12.53408 1.57587,17.7416c-5.31211,5.20754 -19.43563,3.50164 -19.43563,3.50164l18.91035,25.44521" stroke-linecap="round"/><path d="M322.24817,168.53057l16.20404,0.9685l-0.21321,23.48599c0,0 -10.45206,0.07079 -16.41453,-0.01178c-5.67927,-0.07866 -9.94517,0.03708 -14.71429,-6.52557c-4.76913,-6.56265 -4.3211,-15.30807 -4.00342,-19.23132c0.56041,-6.92089 1.95053,-16.685 5.49589,-20.47693c2.00618,-2.14571 7.99628,-1.79941 12.36986,-1.72416c4.93884,0.08498 15.774,2.2084 15.774,2.2084" stroke-linecap="round"/><path d="M389.96133,193.6679l-30.08811,-1.00917l-0.28385,-47.17839l26.39805,-1.76603" stroke-linecap="round"/></g></g></g><g stroke-linecap="butt" font-family="Sans Serif" font-weight="normal" font-size="40" text-anchor="start"><text transform="translate(109.08159,220.69784) scale(0.66334,0.66334)" font-size="40" xml:space="preserve" fill="#ffffff" fill-rule="nonzero" stroke="#af5200" stroke-width="5" stroke-linecap="butt" stroke-linejoin="miter" stroke-miterlimit="10" stroke-dasharray="" stroke-dashoffset="0" font-family="Sans Serif" font-weight="normal" text-anchor="start" style="mix-blend-mode: normal"><tspan x="0" dy="0">the Jumping Triangle</tspan></text><text transform="translate(109.08159,220.69784) scale(0.66334,0.66334)" font-size="40" xml:space="preserve" fill="#ff7700" fill-rule="nonzero" stroke="none" stroke-width="1" stroke-linecap="butt" stroke-linejoin="miter" stroke-miterlimit="10" stroke-dasharray="" stroke-dashoffset="0" font-family="Sans Serif" font-weight="normal" text-anchor="start" style="mix-blend-mode: normal"><tspan x="0" dy="0">the Jumping Triangle</tspan></text></g></g></g></g></svg>