<svg version="1.1" xmlns="http://www.w3.org/2000/svg" xmlns:xlink="http://www.w3.org/1999/xlink" width="63.31044" height="63.31044" viewBox="0,0,63.31044,63.31044"><defs><radialGradient cx="240" cy="180" r="29.90522" gradientUnits="userSpaceOnUse" id="color-1"><stop offset="0" stop-color="#cebcff"/><stop offset="1" stop-color="#7a30ff"/></radialGradient><linearGradient x1="241.62501" y1="163.5" x2="241.62501" y2="196.5" gradientUnits="userSpaceOnUse" id="color-2"><stop offset="0" stop-color="#6c38ff"/><stop offset="1" stop-color="#812bff"/></linearGradient></defs><g transform="translate(-208.34478,-148.34478)"><g data-paper-data="{&quot;isPaintingLayer&quot;:true}" fill-rule="nonzero" stroke-linejoin="miter" stroke-miterlimit="10" stroke-dasharray="" stroke-dashoffset="0" style="mix-blend-mode: normal"><path d="M210.09478,209.90522v-59.81044h59.81044v59.81044z" fill="url(#color-1)" stroke="#ffffff" stroke-width="3.5" stroke-linecap="butt"/><g><path d="M221.875,196.5l3.25,-33h33l-3.125,33z" fill="url(#color-2)" stroke="#5a00ff" stroke-width="2" stroke-linecap="butt"/><g data-paper-data="{&quot;index&quot;:null}" fill="#8356ff" stroke="none" stroke-width="0.5" stroke-linecap="butt"><path d="M226.76735,171.87557v-1.57143c0.05046,-0.90399 -0.26549,-1.90825 0.15137,-2.71197c1.8618,-3.58958 6.28084,-2.1795 9.45577,-2.18089c0,0 1.75,0 1.75,1.75c0,1.75 -1.75,1.75 -1.75,1.75c-2.15789,-0.0009 -6.45742,-1.58759 -6.10714,1.39286v1.57143c0,0 0,1.75 -1.75,1.75c-1.75,0 -1.75,-1.75 -1.75,-1.75z"/><path d="M241.37449,168.91127c-0.9665,0 -1.75,-0.7835 -1.75,-1.75c0,-0.9665 0.7835,-1.75 1.75,-1.75c0.9665,0 1.75,0.7835 1.75,1.75c0,0.9665 -0.7835,1.75 -1.75,1.75z"/></g><path d="M245.64622,192.87557c0,-1.75 1.75,-1.75 1.75,-1.75l1.16247,0.02035c1.77082,-0.13373 1.98452,-0.22015 1.6634,-2.00281c0,0 -0.12468,-1.74555 1.62087,-1.87024c1.74555,-0.12468 1.87024,1.62087 1.87024,1.62087c0.06985,3.69209 -0.9809,4.99853 -4.62231,5.71148l-1.69467,0.02035c0,0 -1.75,0 -1.75,-1.75z" fill="#8356ff" stroke="none" stroke-width="0.5" stroke-linecap="butt"/><g><path d="M229.82478,167.87557l2.28571,-2l2.85714,-0.28571" fill="none" stroke="#000000" stroke-width="2" stroke-linecap="round"/><path d="M249.94753,164.604l2.86217,-0.23l2.60662,1.55886" data-paper-data="{&quot;index&quot;:null}" fill="none" stroke="#000000" stroke-width="2" stroke-linecap="round"/><path d="M235.30693,183.10771c-2.16969,0 -3.92857,-3.26192 -3.92857,-7.28571c0,-4.02378 1.75888,-7.28571 3.92857,-7.28571c2.16969,0 3.92857,3.26192 3.92857,7.28571c0,4.02378 -1.75888,7.28571 -3.92857,7.28571z" fill="#000000" stroke="none" stroke-width="0" stroke-linecap="butt"/><path d="M252.07478,182.05414c-2.16969,0 -3.92857,-3.26193 -3.92857,-7.28572c0,-4.02379 1.75888,-7.28571 3.92857,-7.28571c2.16969,0 3.92857,3.26192 3.92857,7.28571c0,4.02379 -1.75888,7.28572 -3.92857,7.28572z" fill="#000000" stroke="none" stroke-width="0" stroke-linecap="butt"/><path d="M238.11049,188.21485l3.28571,0.71429" fill="none" stroke="#000000" stroke-width="2" stroke-linecap="round"/><path d="M238.60538,183.55977c0,0.75 -0.75,0.75 -0.75,0.75h-1.25c-1.51051,0 -2.9205,-0.18969 -4.36217,-0.66349c0,0 -0.71151,-0.23717 -0.47434,-0.94868c0.23717,-0.71151 0.94869,-0.47434 0.94869,-0.47434c1.28483,0.43556 2.54275,0.58652 3.88783,0.58652h1.25c0,0 0.75,0 0.75,0.75z" fill="#000000" stroke="none" stroke-width="0.5" stroke-linecap="butt"/><path d="M249.56643,181.78943h1.25c1.34508,0 2.603,-0.15096 3.88783,-0.58652c0,0 0.71152,-0.23717 0.94869,0.47434c0.23717,0.71151 -0.47434,0.94868 -0.47434,0.94868c-1.44167,0.4738 -2.85165,0.66349 -4.36217,0.66349h-1.25c0,0 -0.75,0 -0.75,-0.75c0,-0.75 0.75,-0.75 0.75,-0.75z" data-paper-data="{&quot;index&quot;:null}" fill="#000000" stroke="none" stroke-width="0.5" stroke-linecap="butt"/></g></g></g></g></svg>