<svg version="1.1" xmlns="http://www.w3.org/2000/svg" xmlns:xlink="http://www.w3.org/1999/xlink" width="73.06004" height="62.16839" viewBox="0,0,73.06004,62.16839"><defs><linearGradient x1="243.18467" y1="150.03087" x2="239.47559" y2="205.10884" gradientUnits="userSpaceOnUse" id="color-1"><stop offset="0" stop-color="#ffaa33"/><stop offset="1" stop-color="#ff7300"/></linearGradient><linearGradient x1="218.21363" y1="183.39349" x2="209.82539" y2="175.55312" gradientUnits="userSpaceOnUse" id="color-2"><stop offset="0" stop-color="#ffaa33"/><stop offset="1" stop-color="#ff7300"/></linearGradient><linearGradient x1="272.59631" y1="195.3546" x2="261.50356" y2="192.39062" gradientUnits="userSpaceOnUse" id="color-3"><stop offset="0" stop-color="#ffaa33"/><stop offset="1" stop-color="#ff7300"/></linearGradient></defs><g transform="translate(-203.44403,-148.5409)"><g data-paper-data="{&quot;isPaintingLayer&quot;:true}" fill-rule="nonzero" stroke-linejoin="miter" stroke-miterlimit="10" stroke-dasharray="" stroke-dashoffset="0" style="mix-blend-mode: normal"><g fill="#000000" stroke="#000000"><path d="M208.98285,205.35688c0,0 15.81754,-17.42014 21.62923,-26.3847c5.52469,-8.52186 13.53343,-26.06711 13.53343,-26.06711l30.09646,56.4442z" data-paper-data="{&quot;index&quot;:null}" stroke-width="1.5" stroke-linecap="round"/><g><path d="M244.63737,163.71746l2.63517,5.51873" stroke-width="3.5" stroke-linecap="round"/><path d="M247.18912,173.51456c0.09092,-1.1044 1.05992,-1.92597 2.16432,-1.83505c1.1044,0.09092 1.92597,1.05992 1.83505,2.16432c-0.09092,1.1044 -1.05992,1.92597 -2.16432,1.83505c-1.1044,-0.09092 -1.92597,-1.05992 -1.83505,-2.16432z" stroke-width="0.5" stroke-linecap="butt"/></g><path d="M238.87373,194.68692c0,0 0.87928,0.73145 1.48739,0.99521c0.74767,0.32429 3.16707,0.58451 3.16707,0.58451" stroke-width="2" stroke-linecap="round"/><path d="M224.12019,188.18146l8.10626,18.86237l-23.62117,-1.59071z" data-paper-data="{&quot;index&quot;:null}" stroke-width="0" stroke-linecap="round"/><path d="M208.60544,205.32295c0,0 15.14605,-16.09076 21.12956,-24.80911c3.5862,-5.22532 8.17897,-14.10959 11.24404,-20.30496c1.9963,-4.03509 3.34455,-6.92953 3.34455,-6.92953c0,0 0.95096,1.78312 2.00607,3.76152c3.94384,7.39495 28.0279,52.55406 28.0279,52.55406z" data-paper-data="{&quot;index&quot;:null}" stroke-width="2" stroke-linecap="round"/><g stroke-width="0" stroke-linecap="butt"><path d="M235.07415,181.50408c0.20956,-3.11183 2.06117,-5.52119 4.13574,-5.38148c2.07455,0.1397 3.5864,2.77559 3.37685,5.8874c-0.20956,3.11183 -2.06117,5.5212 -4.13572,5.3815c-2.07455,-0.1397 -3.58643,-2.77559 -3.37687,-5.88742z"/><path d="M248.58431,181.42091c0.20956,-3.11183 2.06118,-5.5212 4.13573,-5.3815c2.07455,0.1397 3.58642,2.77559 3.37686,5.88742c-0.20956,3.11183 -2.06117,5.52119 -4.13574,5.38148c-2.07455,-0.1397 -3.58641,-2.77559 -3.37685,-5.8874z"/></g><g stroke-width="2" stroke-linecap="round"><path d="M233.93314,174.52155c0,0 2.54036,-1.82348 3.82997,-2.05515c1.3841,-0.24863 4.21117,0.61069 4.21117,0.61069"/><path d="M250.14436,172.67165c0,0 2.91676,-0.47252 4.25502,-0.04056c1.2469,0.40248 3.51983,2.5501 3.51983,2.5501" data-paper-data="{&quot;index&quot;:null}"/></g><g data-paper-data="{&quot;index&quot;:null}" stroke-width="1.5" stroke-linecap="round"><path d="M216.97994,173.20472l3.44671,12.85057c0,0 -3.70927,-1.52765 -5.75925,-2.03739c-2.15647,-0.53623 -7.03427,-0.93549 -7.03427,-0.93549z" data-paper-data="{&quot;index&quot;:null}"/><path d="M216.9626,173.15098c0,0 2.75685,10.282 3.20828,11.96572c0.12078,0.45046 0.22962,0.85644 0.22962,0.85644c0,0 -0.61603,-0.24817 -1.49255,-0.57757c-1.3458,-0.50573 -3.30569,-1.20293 -4.59284,-1.48727c-2.14758,-0.47441 -6.73451,-0.76712 -6.73451,-0.76712z" data-paper-data="{&quot;index&quot;:null}"/></g><g data-paper-data="{&quot;index&quot;:null}" stroke-width="1.5" stroke-linecap="round"><path d="M265.8251,188.42115l9.0943,9.71138c0,0 -3.99154,0.39998 -6.03992,0.91612c-2.15479,0.54294 -6.64546,2.48874 -6.64546,2.48874z" data-paper-data="{&quot;index&quot;:null}"/><path d="M265.78449,188.38193c0,0 7.27571,7.77071 8.46713,9.04319c0.31875,0.34043 0.60603,0.64727 0.60603,0.64727c0,0 -0.6603,0.0713 -1.58864,0.1937c-1.42534,0.18792 -3.48257,0.49627 -4.75189,0.85186c-2.11783,0.5933 -6.30173,2.49604 -6.30173,2.49604z" data-paper-data="{&quot;index&quot;:null}"/></g></g><g><path d="M206.48285,202.85688c0,0 15.81754,-17.42014 21.62923,-26.3847c5.52469,-8.52186 13.53343,-26.06711 13.53343,-26.06711l30.09645,56.44421z" data-paper-data="{&quot;index&quot;:null}" fill="url(#color-1)" stroke="none" stroke-width="1.5" stroke-linecap="round"/><g><path d="M242.13736,161.21746l2.63517,5.51873" fill="none" stroke="#ffb44c" stroke-width="3.5" stroke-linecap="round"/><path d="M244.68912,171.01456c0.09093,-1.1044 1.05992,-1.92598 2.16432,-1.83505c1.1044,0.09093 1.92598,1.05992 1.83505,2.16432c-0.09093,1.1044 -1.05992,1.92598 -2.16432,1.83505c-1.1044,-0.09093 -1.92598,-1.05992 -1.83505,-2.16432z" fill="#ffb44c" stroke="none" stroke-width="0.5" stroke-linecap="butt"/></g><path d="M236.37373,192.18692c0,0 0.87928,0.73144 1.48739,0.9952c0.74767,0.32429 3.16707,0.58452 3.16707,0.58452" fill="none" stroke="#000000" stroke-width="2" stroke-linecap="round"/><path d="M221.62019,185.68146l8.10626,18.86237l-23.62117,-1.59071z" data-paper-data="{&quot;index&quot;:null}" fill="#f16d00" stroke="none" stroke-width="0" stroke-linecap="round"/><path d="M206.10544,202.82295c0,0 15.14605,-16.09076 21.12955,-24.8091c3.5862,-5.22532 8.17897,-14.10959 11.24404,-20.30496c1.9963,-4.03509 3.34455,-6.92953 3.34455,-6.92953c0,0 0.95096,1.78312 2.00607,3.76152c3.94383,7.39494 28.0279,52.55406 28.0279,52.55406z" data-paper-data="{&quot;index&quot;:null}" fill="none" stroke="#ffb700" stroke-width="2" stroke-linecap="round"/><g fill="#000000" stroke="none" stroke-width="0" stroke-linecap="butt"><path d="M232.57415,179.00409c0.20956,-3.11183 2.06118,-5.52119 4.13574,-5.38148c2.07455,0.13971 3.58641,2.77558 3.37685,5.8874c-0.20956,3.11183 -2.06118,5.5212 -4.13573,5.3815c-2.07455,-0.13971 -3.58643,-2.77558 -3.37687,-5.88742z"/><path d="M246.08431,178.92091c0.20956,-3.11183 2.06118,-5.5212 4.13573,-5.3815c2.07455,0.13971 3.58643,2.77558 3.37687,5.88742c-0.20956,3.11183 -2.06118,5.52119 -4.13574,5.38148c-2.07455,-0.13971 -3.58641,-2.77558 -3.37685,-5.8874z"/></g><g fill="none" stroke="#000000" stroke-width="2" stroke-linecap="round"><path d="M231.43314,172.02156c0,0 2.54035,-1.82348 3.82996,-2.05515c1.38409,-0.24863 4.21117,0.61069 4.21117,0.61069"/><path d="M247.64436,170.17165c0,0 2.91677,-0.47252 4.25503,-0.04056c1.2469,0.40248 3.51983,2.5501 3.51983,2.5501" data-paper-data="{&quot;index&quot;:null}"/></g><g data-paper-data="{&quot;index&quot;:null}" stroke-width="1.5" stroke-linecap="round"><path d="M214.47994,170.70472l3.44671,12.85057c0,0 -3.70927,-1.52764 -5.75925,-2.03739c-2.15647,-0.53622 -7.03426,-0.93549 -7.03426,-0.93549z" data-paper-data="{&quot;index&quot;:null}" fill="url(#color-2)" stroke="none"/><path d="M214.4626,170.65098c0,0 2.75685,10.282 3.20828,11.96572c0.12078,0.45046 0.22962,0.85645 0.22962,0.85645c0,0 -0.61603,-0.24817 -1.49255,-0.57757c-1.34579,-0.50573 -3.30569,-1.20293 -4.59284,-1.48727c-2.14759,-0.47441 -6.73451,-0.76712 -6.73451,-0.76712z" data-paper-data="{&quot;index&quot;:null}" fill="none" stroke="#ffb700"/></g><g data-paper-data="{&quot;index&quot;:null}" stroke-width="1.5" stroke-linecap="round"><path d="M263.3251,185.92116l9.0943,9.71138c0,0 -3.99155,0.39998 -6.03992,0.91612c-2.15479,0.54294 -6.64546,2.48875 -6.64546,2.48875z" data-paper-data="{&quot;index&quot;:null}" fill="url(#color-3)" stroke="none"/><path d="M263.28449,185.88193c0,0 7.27571,7.77071 8.46713,9.04319c0.31875,0.34043 0.60603,0.64726 0.60603,0.64726c0,0 -0.66031,0.0713 -1.58864,0.1937c-1.42534,0.18792 -3.48257,0.49627 -4.75189,0.85186c-2.11783,0.59329 -6.30173,2.49605 -6.30173,2.49605z" data-paper-data="{&quot;index&quot;:null}" fill="none" stroke="#ffb700"/></g></g></g></g></svg>