<svg version="1.1" xmlns="http://www.w3.org/2000/svg" xmlns:xlink="http://www.w3.org/1999/xlink" width="371.5" height="134" viewBox="0,0,371.5,134"><defs><linearGradient x1="354.80384" y1="148.18095" x2="340.50141" y2="207.81909" gradientUnits="userSpaceOnUse" id="color-1"><stop offset="0" stop-color="#fff465"/><stop offset="1" stop-color="#ffea00"/></linearGradient><linearGradient x1="349.97678" y1="168.3088" x2="345.32849" y2="187.69122" gradientUnits="userSpaceOnUse" id="color-2"><stop offset="0" stop-color="#fff465"/><stop offset="1" stop-color="#ffea00"/></linearGradient><linearGradient x1="352.48957" y1="157.58406" x2="342.95364" y2="197.34689" gradientUnits="userSpaceOnUse" id="color-3"><stop offset="0" stop-color="#fff465"/><stop offset="1" stop-color="#ffea00"/></linearGradient></defs><g transform="translate(-54.25,-113)"><g data-paper-data="{&quot;isPaintingLayer&quot;:true}" fill-rule="nonzero" stroke-linejoin="miter" stroke-miterlimit="10" stroke-dasharray="" stroke-dashoffset="0" style="mix-blend-mode: normal"><g fill="none" stroke="#000000" stroke-width="14.5" stroke-linecap="round"><path d="M196.0575,164.14746l9.51017,25.93682l10.59087,-20.96559l10.807,21.18173l9.94245,-26.58524"/><path d="M309.31494,174.30604c0,0 -3.76165,-1.73744 -6.26806,-1.51298c-2.50642,0.22446 -6.63816,-0.75522 -8.21332,2.80982c-1.90596,4.31372 0.64964,6.66533 3.50604,8.11316c3.00193,1.52159 10.2058,1.34854 10.11079,4.42297c0.61,0.87106 0.51869,4.08881 -0.65841,5.96511c-1.08796,1.73424 -5.57554,2.16502 -6.69036,2.24821c-2.32098,0.1732 -7.13262,-1.94527 -7.13262,-1.94527"/><path d="M260.89954,183.38393c0,0 -15.60152,0.47624 -16.42665,4.3228c-0.51379,2.39516 -1.17333,6.75467 2.55581,8.21399c4.60959,1.80387 14.51926,-0.00066 14.51926,-0.00066c0,0 -0.0836,-15.24756 -1.0807,-18.15578c-0.9971,-2.90822 -3.2762,-4.62906 -6.70035,-4.53895c-3.42415,0.09011 -8.64561,1.51298 -8.64561,1.51298"/><g><path d="M274.30024,172.79306v23.127"/><path d="M274.94865,177.98043c0,0 4.33471,-3.81513 6.28159,-4.65497c1.69147,-0.72966 4.74156,-0.10012 4.74156,-0.10012"/></g></g><g fill="none" stroke="#000000" stroke-width="14.5"><g><path d="M150.57199,184.46463c0,-5.96855 -4.11269,-10.80701 -9.18595,-10.80701c-5.07326,0 -9.18596,4.83846 -9.18596,10.80701c0,5.96855 4.1127,10.80701 9.18596,10.80701c5.07326,0 9.18595,-4.83846 9.18595,-10.80701z" stroke-linecap="butt"/><path d="M152.30112,173.22534c0,0 1.77317,22.29848 -1.94526,32.20489c-3.83763,5.83514 -15.77823,1.94526 -15.77823,1.94526" stroke-linecap="round"/></g><g stroke-linecap="round"><path d="M122.0415,165.01202h-14.91367v30.90805h14.69754"/><path d="M107.5601,179.06113h14.26525"/></g><g><path d="M181.69618,184.46463c0,-5.96855 -4.11269,-10.80701 -9.18596,-10.80701c-5.07326,0 -9.18596,4.83846 -9.18596,10.80701c0,5.96855 4.1127,10.80701 9.18596,10.80701c5.07326,0 9.18596,-4.83846 9.18596,-10.80701z" stroke-linecap="butt"/><path d="M183.4253,173.22534c0,0 1.77317,22.29848 -1.94526,32.20489c-3.83763,5.83514 -15.77823,1.94526 -15.77823,1.94526" stroke-linecap="round"/></g></g><g fill="none" stroke="#ffaf66" stroke-width="8.5" stroke-linecap="round"><path d="M192.8154,160.90535l9.51017,25.93682l10.59087,-20.9656l10.80701,21.18174l9.94245,-26.58524"/><path d="M306.07284,171.06394c0,0 -3.76165,-1.73744 -6.26806,-1.51298c-2.50642,0.22446 -6.63816,-0.75522 -8.21332,2.80982c-1.90596,4.31372 0.64964,6.66533 3.50604,8.11316c3.00193,1.52159 10.2058,1.34854 10.11079,4.42297c0.61,0.87106 0.51869,4.08881 -0.65841,5.96511c-1.08796,1.73424 -5.57554,2.16502 -6.69036,2.24822c-2.32098,0.1732 -7.13262,-1.94527 -7.13262,-1.94527"/><path d="M257.65744,180.14183c0,0 -15.60152,0.47624 -16.42665,4.3228c-0.51379,2.39516 -1.17333,6.75467 2.55581,8.21399c4.60959,1.80387 14.51926,-0.00066 14.51926,-0.00066c0,0 -0.0836,-15.24756 -1.0807,-18.15578c-0.9971,-2.90822 -3.2762,-4.62906 -6.70035,-4.53895c-3.42415,0.09011 -8.6456,1.51298 -8.6456,1.51298"/><g><path d="M271.05814,169.55096v23.127"/><path d="M271.70655,174.73833c0,0 4.33471,-3.81513 6.28159,-4.65497c1.69147,-0.72966 4.74156,-0.10012 4.74156,-0.10012"/></g></g><g fill="none" stroke="#9966ff" stroke-width="8.5"><g stroke-linecap="round"><path d="M118.7994,161.76992h-14.91367v30.90805h14.69753"/><path d="M104.318,175.81903h14.26525"/></g><g><path d="M147.3299,181.22253c0,-5.96855 -4.11269,-10.80701 -9.18596,-10.80701c-5.07326,0 -9.18596,4.83847 -9.18596,10.80701c0,5.96855 4.1127,10.80701 9.18596,10.80701c5.07326,0 9.18596,-4.83846 9.18596,-10.80701z" stroke-linecap="butt"/><path d="M149.05901,169.98324c0,0 1.77317,22.29848 -1.94526,32.20489c-3.83763,5.83514 -15.77823,1.94526 -15.77823,1.94526" stroke-linecap="round"/></g><g><path d="M178.45408,181.22253c0,-5.96855 -4.11269,-10.80701 -9.18596,-10.80701c-5.07326,0 -9.18596,4.83847 -9.18596,10.80701c0,5.96855 4.1127,10.80701 9.18596,10.80701c5.07326,0 9.18596,-4.83846 9.18596,-10.80701z" stroke-linecap="butt"/><path d="M180.1832,169.98324c0,0 1.77317,22.29848 -1.94526,32.20489c-3.83763,5.83514 -15.77823,1.94526 -15.77823,1.94526" stroke-linecap="round"/></g></g><g stroke-linecap="butt"><g fill="#000000" stroke="#000000"><path d="M334.81021,209.49494l14.30244,-59.63812l19.38239,4.64829l-14.30244,59.63812z" stroke-width="1.5"/><path d="M379.14755,198.84243l-59.63812,-14.30244l4.64829,-19.38239l59.63812,14.30244z" stroke-width="1.5"/><path d="M338.15819,199.23756l9.53593,-39.7628l17.59091,4.21866l-9.53593,39.7628z" stroke-width="0"/></g><g><path d="M330.81021,205.49494l14.30244,-59.63812l19.38239,4.64829l-14.30244,59.63812z" fill="url(#color-1)" stroke="#000000" stroke-width="1.5"/><path d="M375.14755,194.84243l-59.63812,-14.30244l4.64829,-19.38239l59.63812,14.30244z" fill="url(#color-2)" stroke="#000000" stroke-width="1.5"/><path d="M334.15819,195.23756l9.53593,-39.7628l17.59091,4.21866l-9.53593,39.7628z" fill="url(#color-3)" stroke="none" stroke-width="0"/></g></g><path d="M54.25,247v-134h371.5v134z" fill="none" stroke="none" stroke-width="0" stroke-linecap="butt"/></g></g></svg>