<svg version="1.1" xmlns="http://www.w3.org/2000/svg" xmlns:xlink="http://www.w3.org/1999/xlink" width="469.81841" height="88.44729" viewBox="0,0,469.81841,88.44729"><defs><linearGradient x1="456.99772" y1="183.72553" x2="456.99772" y2="216.72553" gradientUnits="userSpaceOnUse" id="color-1"><stop offset="0" stop-color="#6c38ff"/><stop offset="1" stop-color="#812bff"/></linearGradient></defs><g transform="translate(-4.77848,-134.90083)"><g data-paper-data="{&quot;isPaintingLayer&quot;:true}" fill-rule="nonzero" stroke-linejoin="miter" stroke-miterlimit="10" stroke-dasharray="" stroke-dashoffset="0" style="mix-blend-mode: normal"><g><path d="M318.91267,178.44503l33.24662,-41.79315l25.08968,41.79315l-33.94981,41.79315z" fill="#009cff" stroke="#0077ff" stroke-width="2" stroke-linecap="butt"/><path d="M343.48586,175.61522c0,0 2.04901,-0.28571 4.04878,-0.28571c2.56918,0 10.09057,0.28571 10.09057,0.28571" fill="none" stroke="#000000" stroke-width="2" stroke-linecap="round"/><path d="M356.74663,197.28577l-0.1217,1.34431c-1.85368,4.34217 -5.47342,8.42501 -8.42554,12.19993c0,0 -1.38874,1.7746 -3.16334,0.38585c-1.7746,-1.38874 -0.38585,-3.16334 -0.38585,-3.16334c2.01868,-2.57772 3.64996,-5.43781 5.65985,-8.0061c0.68457,-0.87475 1.48244,-1.7112 1.96441,-2.70562c0.06073,-0.67483 0.39683,-1.82805 1.96251,-2.01902c2.23682,-0.27283 2.50966,1.96398 2.50966,1.96398z" data-paper-data="{&quot;index&quot;:null}" fill="#63c3ff" stroke="none" stroke-width="0.5" stroke-linecap="butt"/><path d="M339.27005,158.64008l0.12616,-1.39362c1.92166,-4.50143 5.67415,-8.73399 8.73454,-12.64735c0,0 1.43967,-1.83968 3.27935,-0.4c1.83968,1.43967 0.4,3.27935 0.4,3.27935c-2.09272,2.67225 -3.78381,5.63725 -5.86742,8.29972c-0.70968,0.90684 -1.53681,1.77396 -2.03647,2.80485c-0.06296,0.69958 -0.41139,1.89508 -2.03449,2.09306c-2.31886,0.28285 -2.6017,-2.03601 -2.6017,-2.03601z" fill="#63c3ff" stroke="none" stroke-width="0.5" stroke-linecap="butt"/><path d="M338.06754,166.44503c-1.29016,0 -2.33604,-1.04588 -2.33604,-2.33604c0,-1.29016 1.04588,-2.33604 2.33604,-2.33604c1.29016,0 2.33604,1.04588 2.33604,2.33604c0,1.29016 -1.04588,2.33604 -2.33604,2.33604z" fill="#63c3ff" stroke="none" stroke-width="0.5" stroke-linecap="butt"/><g><path d="M336.08089,182.02915c-2.07843,0 -3.76333,-3.02408 -3.76333,-6.75448c0,-3.73038 1.68492,-6.75448 3.76333,-6.75448c2.07842,0 3.76331,3.02408 3.76331,6.75448c0,3.7304 -1.6849,6.75448 -3.76331,6.75448z" data-paper-data="{&quot;index&quot;:null}" fill="#000000" stroke="none" stroke-width="0.5" stroke-linecap="butt"/><path d="M334.07076,172.29176l-1.42857,-1" fill="none" stroke="#000000" stroke-width="3" stroke-linecap="round"/></g><g><path d="M364.35859,179.10705c-2.07843,0 -3.76333,-3.02408 -3.76333,-6.75448c0,-3.73038 1.68492,-6.75448 3.76333,-6.75448c2.07842,0 3.76331,3.02408 3.76331,6.75448c0,3.7304 -1.6849,6.75448 -3.76331,6.75448z" data-paper-data="{&quot;index&quot;:null}" fill="#000000" stroke="none" stroke-width="0.5" stroke-linecap="butt"/><path d="M368.29131,168.61967l-1.42857,1" data-paper-data="{&quot;index&quot;:null}" fill="none" stroke="#000000" stroke-width="3" stroke-linecap="round"/></g></g><g><path d="M437.24771,216.72553l3.25,-33h33l-3.125,33z" fill="url(#color-1)" stroke="#5a00ff" stroke-width="2" stroke-linecap="butt"/><g data-paper-data="{&quot;index&quot;:null}" fill="#8356ff" stroke="none" stroke-width="0.5" stroke-linecap="butt"><path d="M442.14006,192.1011v-1.57143c0.05046,-0.90399 -0.26549,-1.90825 0.15137,-2.71197c1.8618,-3.58958 6.28084,-2.1795 9.45577,-2.18089c0,0 1.75,0 1.75,1.75c0,1.75 -1.75,1.75 -1.75,1.75c-2.15789,-0.0009 -6.45742,-1.58759 -6.10714,1.39286v1.57143c0,0 0,1.75 -1.75,1.75c-1.75,0 -1.75,-1.75 -1.75,-1.75z"/><path d="M456.7472,189.1368c-0.9665,0 -1.75,-0.7835 -1.75,-1.75c0,-0.9665 0.7835,-1.75 1.75,-1.75c0.9665,0 1.75,0.7835 1.75,1.75c0,0.9665 -0.7835,1.75 -1.75,1.75z"/></g><path d="M461.01893,213.1011c0,-1.75 1.75,-1.75 1.75,-1.75l1.16247,0.02035c1.77082,-0.13373 1.98452,-0.22015 1.6634,-2.00281c0,0 -0.12468,-1.74555 1.62087,-1.87024c1.74555,-0.12468 1.87024,1.62087 1.87024,1.62087c0.06985,3.69209 -0.9809,4.99853 -4.62231,5.71148l-1.69467,0.02035c0,0 -1.75,0 -1.75,-1.75z" fill="#8356ff" stroke="none" stroke-width="0.5" stroke-linecap="butt"/><g><path d="M445.19749,188.1011l2.28571,-2l2.85714,-0.28571" fill="none" stroke="#000000" stroke-width="2" stroke-linecap="round"/><path d="M465.32024,184.82953l2.86217,-0.23l2.60662,1.55886" data-paper-data="{&quot;index&quot;:null}" fill="none" stroke="#000000" stroke-width="2" stroke-linecap="round"/><path d="M450.67964,203.33324c-2.16969,0 -3.92857,-3.26192 -3.92857,-7.28571c0,-4.02378 1.75888,-7.28571 3.92857,-7.28571c2.16969,0 3.92857,3.26192 3.92857,7.28571c0,4.02378 -1.75888,7.28571 -3.92857,7.28571z" fill="#000000" stroke="none" stroke-width="0" stroke-linecap="butt"/><path d="M467.44749,202.27967c-2.16969,0 -3.92857,-3.26193 -3.92857,-7.28572c0,-4.02379 1.75888,-7.28571 3.92857,-7.28571c2.16969,0 3.92857,3.26192 3.92857,7.28571c0,4.02379 -1.75888,7.28572 -3.92857,7.28572z" fill="#000000" stroke="none" stroke-width="0" stroke-linecap="butt"/><path d="M453.4832,208.44038l3.28571,0.71429" fill="none" stroke="#000000" stroke-width="2" stroke-linecap="round"/><path d="M453.97809,203.7853c0,0.75 -0.75,0.75 -0.75,0.75h-1.25c-1.51051,0 -2.9205,-0.18969 -4.36217,-0.66349c0,0 -0.71151,-0.23717 -0.47434,-0.94868c0.23717,-0.71151 0.94869,-0.47434 0.94869,-0.47434c1.28483,0.43556 2.54275,0.58652 3.88783,0.58652h1.25c0,0 0.75,0 0.75,0.75z" fill="#000000" stroke="none" stroke-width="0.5" stroke-linecap="butt"/><path d="M464.93914,202.01496h1.25c1.34508,0 2.603,-0.15096 3.88783,-0.58652c0,0 0.71152,-0.23717 0.94869,0.47434c0.23717,0.71151 -0.47434,0.94868 -0.47434,0.94868c-1.44167,0.4738 -2.85165,0.66349 -4.36217,0.66349h-1.25c0,0 -0.75,0 -0.75,-0.75c0,-0.75 0.75,-0.75 0.75,-0.75z" data-paper-data="{&quot;index&quot;:null}" fill="#000000" stroke="none" stroke-width="0.5" stroke-linecap="butt"/></g></g><g><path d="M393.24843,216.9775l7.43566,-73h35.17043l-7.43566,73z" data-paper-data="{&quot;index&quot;:null}" fill="#ff66be" stroke="#ff24a4" stroke-width="2.5" stroke-linecap="butt"/><path d="M404.54326,157.50966c-1.5,0 -1.5,-1.5 -1.5,-1.5v-0.25c0,-1.86806 -0.6444,-6.17321 0.59838,-7.71112c1.80327,-2.2315 7.65117,-1.29576 10.06727,-1.0297c0,0 1.49083,0.16565 1.32518,1.65648c-0.16565,1.49083 -1.65647,1.32518 -1.65647,1.32518c-1.65579,-0.18574 -3.32032,-0.35597 -4.99115,-0.24372c-0.81515,0.05476 -1.99375,-0.46928 -2.44158,0.21402c-0.49923,0.76174 0.09837,4.87864 0.09837,5.78888v0.25c0,0 0,1.5 -1.5,1.5z" data-paper-data="{&quot;index&quot;:null}" fill="#ffa4d9" stroke="none" stroke-width="0.5" stroke-linecap="butt"/><path d="M418.54326,150.00968c-0.82843,0 -1.5,-0.67157 -1.5,-1.5c0,-0.82843 0.67157,-1.5 1.5,-1.5c0.82843,0 1.5,0.67157 1.5,1.5c0,0.82843 -0.67157,1.5 -1.5,1.5z" data-paper-data="{&quot;index&quot;:null}" fill="#ffa4d9" stroke="none" stroke-width="0.5" stroke-linecap="butt"/><path d="M423.06303,168.72186c0,-3.7304 1.6849,-6.75448 3.76332,-6.75448c2.07841,0 3.76332,3.0241 3.76332,6.75448c0,3.7304 -1.68489,6.75448 -3.76332,6.75448c-2.07841,0 -3.76332,-3.02408 -3.76332,-6.75448z" data-paper-data="{&quot;index&quot;:null}" fill="#000000" stroke="none" stroke-width="0.5" stroke-linecap="butt"/><path d="M409.5862,171.06818c0,-3.7304 1.68489,-6.75448 3.76331,-6.75448c2.07841,0 3.76333,3.0241 3.76333,6.75448c0,3.7304 -1.6849,6.75448 -3.76333,6.75448c-2.07841,0 -3.76331,-3.02408 -3.76331,-6.75448z" data-paper-data="{&quot;index&quot;:null}" fill="#000000" stroke="none" stroke-width="0.5" stroke-linecap="butt"/><path d="M410.18407,186.41163l2.5,-0.5" data-paper-data="{&quot;index&quot;:null}" fill="none" stroke="#000000" stroke-width="2" stroke-linecap="round"/><path d="M425.40998,159.57901c0,0 2.94064,-0.50425 4.11055,0.21715c1.22751,0.75692 3.09002,4.22292 3.09002,4.22292" data-paper-data="{&quot;index&quot;:null}" fill="none" stroke="#000000" stroke-width="2" stroke-linecap="round"/><path d="M407.53024,165.26905c0,0 1.8625,-3.466 3.09002,-4.22292c1.16991,-0.72139 4.11055,-0.21715 4.11055,-0.21715" data-paper-data="{&quot;index&quot;:null}" fill="none" stroke="#000000" stroke-width="2" stroke-linecap="round"/><path d="M416.29742,213.0063c-0.2466,-1.47959 1.23299,-1.72619 1.23299,-1.72619l1.62288,-0.2653c1.00579,-0.00317 2.01951,-0.1273 3.01739,-0.00134c0.25453,0.03213 0.575,0.47287 0.72315,0.26342c0.16369,-0.23142 -0.32957,-0.4862 -0.36682,-0.7672c-0.17521,-1.32177 0,-2.66667 0,-4c0,0 0,-1.5 1.5,-1.5c1.5,0 1.5,1.5 1.5,1.5c0,1.36145 0.54734,5.71612 -0.36682,6.7328c-1.05581,1.17422 -4.28882,0.76755 -5.75946,0.76209l-1.37712,0.2347c0,0 -1.47959,0.2466 -1.72619,-1.23299z" fill="#ffa4d9" stroke="none" stroke-width="0.5" stroke-linecap="butt"/></g><g><path d="M286.12804,206.30717c0,-11.3519 9.20253,-20.55443 20.55443,-20.55443c11.3519,0 20.55443,9.20253 20.55443,20.55443c0,11.3519 -9.20253,12.17556 -20.55443,12.17556c-11.3519,0 -20.55443,-0.82366 -20.55443,-12.17556z" fill="#ffdf28" stroke="none" stroke-width="NaN" stroke-linecap="butt"/><path d="M291.70345,203.29936c0,-3.7304 1.68489,-6.75448 3.76331,-6.75448c2.07841,0 3.76333,3.0241 3.76333,6.75448c0,3.7304 -1.6849,6.75448 -3.76333,6.75448c-2.07841,0 -3.76331,-3.02408 -3.76331,-6.75448z" data-paper-data="{&quot;index&quot;:null}" fill="#000000" stroke="none" stroke-width="0.5" stroke-linecap="butt"/><path d="M301.24372,205.12845c0,0 1.15646,1 3.15249,1c2.57031,0 10.98686,-1 10.98686,-1" fill="none" stroke="#000000" stroke-width="2" stroke-linecap="round"/><path d="M318.24989,191.91918c0.51838,0.12599 1.31079,0.51117 1.31079,1.68876c0,1.75 -1.75,1.75 -1.75,1.75l-1.38216,-0.40561c-3.32658,-2.78403 -6.31841,-4.69723 -10.67683,-4.06325c0,0 -1.73241,0.24749 -1.9799,-1.48492c-0.24749,-1.73241 1.48493,-1.9799 1.48493,-1.9799c5.2399,-0.73665 9.02712,1.27363 12.99317,4.49493z" fill="#ffec83" stroke="none" stroke-width="0.5" stroke-linecap="butt"/><path d="M298.5174,190.20401c0,-0.9665 0.7835,-1.75 1.75,-1.75c0.9665,0 1.75,0.7835 1.75,1.75c0,0.9665 -0.7835,1.75 -1.75,1.75c-0.9665,0 -1.75,-0.7835 -1.75,-1.75z" fill="#ffec83" stroke="none" stroke-width="0.5" stroke-linecap="butt"/><g data-paper-data="{&quot;index&quot;:null}"><path d="M321.70276,159.50707l9.75453,59.95471" fill="none" stroke="#000000" stroke-width="5" stroke-linecap="round"/><path d="M325.59421,169.24035c0,0 -16.36351,-3.52669 -24.80854,-2.44399c-9.7684,1.25236 -30.41172,9.52351 -30.41172,9.52351c0,0 9.61996,-10.26066 18.42677,-13.43731c9.0679,-3.27083 35.22026,-5.91338 35.22026,-5.91338l1.57322,12.27117z" fill="#2b2b2b" stroke="none" stroke-width="0" stroke-linecap="butt"/></g><path d="M316.64883,200.46648c0,-3.7304 1.68489,-6.75448 3.76331,-6.75448c2.07841,0 3.76333,3.0241 3.76333,6.75448c0,3.7304 -1.6849,6.75448 -3.76333,6.75448c-2.07841,0 -3.76331,-3.02408 -3.76331,-6.75448z" data-paper-data="{&quot;index&quot;:null}" fill="#000000" stroke="none" stroke-width="0.5" stroke-linecap="butt"/></g><g><g stroke="#00ff14" stroke-width="1.5" stroke-linecap="butt"><path d="M114.45339,218.55399l12.20632,-36.60343h69.42104v36.60343z" fill="#00ed63"/><path d="M126.82637,218.55399v-36.60342h69.50437l12.12299,36.60342z" data-paper-data="{&quot;index&quot;:null}" fill="#00ff6c"/></g><path d="M154.41187,197.64871c0,-3.7304 1.68489,-6.75448 3.76331,-6.75448c2.07841,0 3.76333,3.0241 3.76333,6.75448c0,3.7304 -1.6849,6.75448 -3.76333,6.75448c-2.07841,0 -3.76331,-3.02408 -3.76331,-6.75448z" data-paper-data="{&quot;index&quot;:null}" fill="#000000" stroke="none" stroke-width="0.5" stroke-linecap="butt"/><path d="M170.3432,196.7584c0,-3.7304 1.68489,-6.75448 3.76331,-6.75448c2.07841,0 3.76333,3.0241 3.76333,6.75448c0,3.7304 -1.6849,6.75448 -3.76333,6.75448c-2.07841,0 -3.76331,-3.02408 -3.76331,-6.75448z" data-paper-data="{&quot;index&quot;:null}" fill="#000000" stroke="none" stroke-width="0.5" stroke-linecap="butt"/><path d="M154.00344,190.02152c0,0 2.08802,-2.43054 3.13261,-2.53768c1.17423,-0.12043 3.56943,1.85029 3.56943,1.85029" fill="none" stroke="#000000" stroke-width="2.5" stroke-linecap="round"/><path d="M170.70662,188.84674c0,0 2.08801,-2.43054 3.1326,-2.53768c1.17423,-0.12043 3.56944,1.85029 3.56944,1.85029" fill="none" stroke="#000000" stroke-width="2.5" stroke-linecap="round"/><path d="M162.91427,209.27425l5.70497,0.34663" fill="none" stroke="#000000" stroke-width="2.5" stroke-linecap="round"/><path d="M130.26331,192.46476c-1.75,0 -1.75,-1.75 -1.75,-1.75v-0.68739c0,-1.20392 -0.09778,-5.49492 0.46221,-6.16851c0.76007,-0.91426 4.61011,-0.73621 5.75582,-0.73691c0,0 1.75,0 1.75,1.75c0,1.75 -1.75,1.75 -1.75,1.75c-0.77771,-0.0005 -1.5613,0.09392 -2.33313,-0.00151c-0.30874,-0.03817 -0.73546,-0.68207 -0.8471,-0.3917c-0.17554,0.45657 0.40312,0.90719 0.46221,1.39276c0.09686,0.79608 0,1.60391 0,2.40586v0.68739c0,0 0,1.75 -1.75,1.75z" fill="#80ffb5" stroke="none" stroke-width="0.5" stroke-linecap="butt"/><path d="M185.56655,214.08596c0,-1.75 1.75,-1.75 1.75,-1.75l0.82161,0.00515c3.61333,0.2801 7.23949,0.3303 10.86399,0.33854c0.40698,0.00093 0.98478,-0.05787 1.54635,-0.08233c-0.34727,-0.43325 -0.64581,-0.91802 -1.00042,-1.34352c0,0 -1.12032,-1.34439 0.22406,-2.46471c1.34439,-1.12032 2.46471,0.22406 2.46471,0.22406c0.71867,0.86246 3.89516,5.54273 3.39723,6.69158c-0.55861,1.28884 -2.50808,0.12065 -3.86986,0.46518c-4.02028,1.01711 -9.78678,-0.02544 -13.8945,-0.33911l-0.55317,0.00515c0,0 -1.75,0 -1.75,-1.75z" fill="#80ffb5" stroke="none" stroke-width="0.5" stroke-linecap="butt"/><path d="M137.62121,184.87196c0,-0.9665 0.7835,-1.75 1.75,-1.75c0.9665,0 1.75,0.7835 1.75,1.75c0,0.9665 -0.7835,1.75 -1.75,1.75c-0.9665,0 -1.75,-0.7835 -1.75,-1.75z" fill="#80ffb5" stroke="none" stroke-width="0.5" stroke-linecap="butt"/></g><g stroke="none" stroke-linecap="butt"><g><g data-paper-data="{&quot;index&quot;:null}"><path d="M161.94913,222.06381l1.76265,-32.15964l23.4323,1.28431l-1.76264,32.15964z" fill="#ffffff" stroke-width="0"/><path d="M186.05336,193.83443l0.00328,-0.05978c0.03604,-0.65754 0.07208,-1.31508 0.10812,-1.97262c0,0 0.00983,-0.17933 0.18915,-0.1695c0.17933,0.00983 0.1695,0.18916 0.1695,0.18916c-0.03604,0.65754 -0.07536,1.37485 -0.1114,2.0324c0,0 -0.00983,0.17933 -0.18915,0.1695c-0.17933,-0.00983 -0.1695,-0.18916 -0.1695,-0.18916z" fill="#000000" stroke-width="0.5"/><path d="M184.54051,222.53033l0.00328,-0.05978c0.03604,-0.65754 0.07208,-1.31507 0.10812,-1.97261c0,0 0.00983,-0.17933 0.18916,-0.1695c0.17933,0.00983 0.1695,0.18915 0.1695,0.18915c-0.03604,0.65754 -0.07536,1.37485 -0.1114,2.03239c0,0 -0.00983,0.17933 -0.18916,0.1695c-0.17933,-0.00983 -0.1695,-0.18915 -0.1695,-0.18915z" fill="#000000" stroke-width="0.5"/></g><g data-paper-data="{&quot;index&quot;:null}"><path d="M160.69913,221.73046l1.76265,-32.82631l23.4323,1.86764l-23.34598,31.15964z" fill="#f9f9f9" stroke-width="0"/><path d="M184.80336,192.83443l0.00328,-0.05978c0.03604,-0.65754 0.07208,-1.31508 0.10812,-1.97262c0,0 0.00983,-0.17933 0.18915,-0.1695c0.17933,0.00983 0.1695,0.18916 0.1695,0.18916c-0.03604,0.65754 -0.07536,1.37485 -0.1114,2.0324c0,0 -0.00983,0.17933 -0.18915,0.1695c-0.17933,-0.00983 -0.1695,-0.18916 -0.1695,-0.18916z" fill="#000000" stroke-width="0.5"/><path d="M183.29051,221.53033l0.00328,-0.05978c0.03604,-0.65754 0.07208,-1.31507 0.10812,-1.97261c0,0 0.00983,-0.17933 0.18916,-0.1695c0.17933,0.00983 0.1695,0.18915 0.1695,0.18915c-0.03604,0.65754 -0.07536,1.37485 -0.1114,2.03239c0,0 -0.00983,0.17933 -0.18916,0.1695c-0.17933,-0.00983 -0.1695,-0.18915 -0.1695,-0.18915z" fill="#000000" stroke-width="0.5"/></g><g data-paper-data="{&quot;index&quot;:null}"><path d="M161.94913,221.56381l1.76265,-32.15964l23.4323,1.28431l-1.76264,32.15964z" fill="#ffffff" stroke-width="0"/><path d="M186.05336,193.33443l0.00328,-0.05978c0.03604,-0.65754 0.07208,-1.31508 0.10812,-1.97262c0,0 0.00983,-0.17933 0.18915,-0.1695c0.17933,0.00983 0.1695,0.18916 0.1695,0.18916c-0.03604,0.65754 -0.07536,1.37485 -0.1114,2.0324c0,0 -0.00983,0.17933 -0.18915,0.1695c-0.17933,-0.00983 -0.1695,-0.18916 -0.1695,-0.18916z" fill="#000000" stroke-width="0.5"/><path d="M184.54051,222.03033l0.00328,-0.05978c0.03604,-0.65754 0.07208,-1.31507 0.10812,-1.97261c0,0 0.00983,-0.17933 0.18916,-0.1695c0.17933,0.00983 0.1695,0.18915 0.1695,0.18915c-0.03604,0.65754 -0.07536,1.37485 -0.1114,2.03239c0,0 -0.00983,0.17933 -0.18916,0.1695c-0.17933,-0.00983 -0.1695,-0.18915 -0.1695,-0.18915z" fill="#000000" stroke-width="0.5"/></g></g><path d="M169.48524,194.3605c0.07249,0.01399 0.20264,0.06422 0.20264,0.2446c0,0.25 -0.25,0.25 -0.25,0.25l-0.3205,-0.17094c-0.21077,-1.18362 -3.33963,0.6149 -3.68377,0.74145c0,0 -0.23717,0.07906 -0.31623,-0.15811c-0.07906,-0.23717 0.15811,-0.31623 0.15811,-0.31623c0.45156,-0.12433 0.69606,-0.9102 1.17328,-1.0021c0.45892,-0.08838 2.47867,-0.19705 3.03648,0.41134z" fill="#000000" stroke-width="0.5"/><path d="M181.43488,196.72697c-0.03855,0.24701 -0.28556,0.20846 -0.28556,0.20846l-0.17651,-0.02755c-0.3298,-0.05149 -0.66044,-0.09786 -0.99165,-0.13936c-1.7288,-0.34492 -4.61682,-1.37416 -6.248,-0.36573c0,0 -0.21437,0.12862 -0.343,-0.08575c-0.12862,-0.21437 0.08575,-0.343 0.08575,-0.343c1.81685,-1.06393 4.66571,-0.08397 6.58534,0.30093c0.33023,0.04119 0.65985,0.08758 0.98866,0.13888l0.17651,0.02755c0,0 0.24701,0.03855 0.20846,0.28556z" fill="#000000" stroke-width="0.5"/><path d="M173.35454,197.52175c0,0.25 -0.25,0.25 -0.25,0.25l-0.21945,-0.00187c-0.94169,0.22051 -3.86404,-1.37693 -4.11873,0.13424c0,0 -0.04903,0.24515 -0.29417,0.19612c-0.24515,-0.04903 -0.19612,-0.29417 -0.19612,-0.29417c0.15136,-0.68019 2.53431,-1.47709 3.46925,-1.11095c0.37991,0.14878 0.68468,0.68452 1.07868,0.57852l0.28055,-0.00187c0,0 0.25,0 0.25,0.25z" fill="#000000" stroke-width="0.5"/><path d="M176.85203,194.81973c0.03536,0.24749 -0.21213,0.28284 -0.21213,0.28284l-0.17672,0.02525c-1.06613,0.1523 -1.2301,0.12239 -1.95787,-0.60194c-0.18923,-0.21611 -0.32952,-0.29532 -0.35146,-0.59237c-0.02439,-0.33022 -0.20329,0.81735 -0.53378,0.83776c-0.42114,0.02602 -0.59324,-1.05636 -0.92131,-1.17691c-0.23335,-0.08574 -0.70119,0.63255 -1.09202,0.58053c-0.20038,-0.02667 -0.37027,0.23333 -0.4317,0.42592c0,0 -0.07906,0.23717 -0.31623,0.15811c-0.23717,-0.07906 -0.15811,-0.31623 -0.15811,-0.31623c0.19677,-0.57031 1.46973,-1.50293 2.14295,-1.32688c0.23425,0.06126 0.50791,0.48069 0.67236,0.80995c0.16495,-0.25537 0.94857,-0.20564 1.35442,0.25852c0.37317,0.37483 0.99843,0.52335 1.52203,0.44855l0.17672,-0.02525c0,0 0.24749,-0.03536 0.28284,0.21213z" fill="#000000" stroke-width="0.5"/><path d="M172.36465,200.53186c-0.17678,0.17678 -0.35355,0 -0.35355,0l-0.14373,-0.18105c-0.18167,-0.63712 -2.24007,0.20019 -2.56742,-0.12934c-0.84403,-2.16554 -0.68201,1.32889 -1.8142,0.68826c-1.08907,-0.61623 -0.01975,-2.61779 -1.54163,-0.93855c-0.14552,0.16057 -0.288,0.33939 -0.35241,0.54629c0,0 -0.07906,0.23717 -0.31623,0.15811c-0.23717,-0.07906 -0.15811,-0.31623 -0.15811,-0.31623c0.63539,-1.82087 3.21882,-1.79658 2.58071,0.09769c-0.17171,0.50973 0.43213,-1.06322 0.88945,-1.34635c0.64676,-0.40042 0.93982,0.35136 1.14811,0.86133c0.04623,-0.11354 0.18265,-0.34636 0.41904,-0.36474c0.71002,-0.05518 1.92979,-0.12314 2.18702,0.5854l0.02294,-0.01439c0,0 0.17678,0.17678 0,0.35355z" fill="#000000" stroke-width="0.5"/><path d="M182.77121,201.6051c0,0.25 -0.25,0.25 -0.25,0.25h-0.16667c-0.61085,-0.03363 -1.26207,-0.56334 -1.679,-1.01903c-0.58544,0.07626 -0.41227,1.15076 -1.15176,1.18568c-1.41478,0.06682 -2.18843,-2.68088 -3.28551,-0.70929c0,0 -0.12403,0.21706 -0.3411,0.09303c-0.21706,-0.12403 -0.09303,-0.3411 -0.09303,-0.3411c1.39019,-2.38119 2.34984,0.47639 3.71449,0.45738c0.45189,-0.00629 0.45766,-1.17653 1.34824,-1.14765c0.31235,0.29297 1.05443,1.03439 1.48766,0.98097h0.16667c0,0 0.25,0 0.25,0.25z" fill="#000000" stroke-width="0.5"/><path d="M183.43041,198.71112c0.06063,0.24254 -0.1819,0.30317 -0.1819,0.30317l-0.42125,0.0893c-0.35144,-0.16268 -2.28814,0.0881 -2.47509,-0.42943c-0.94588,0.749 -0.63678,-0.76024 -1.00115,-0.49883c-0.16701,0.11982 -0.41286,0.86412 -0.74648,0.84642c-0.22335,-0.01185 -1.25891,-1.47351 -1.16667,0.16667c0,0 0,0.25 -0.25,0.25c-0.25,0 -0.25,-0.25 -0.25,-0.25c0.01306,-0.38556 0.53752,-1.43735 1.08333,-1.41667c0.16894,0.0064 0.39626,0.27337 0.53278,0.49225c0.08914,-0.22933 0.41277,-0.50291 0.6374,-0.5625c0.87234,-0.23138 0.88697,1.12527 0.85837,0.62089l0.28706,-0.38334c0.57138,0.66536 1.78333,0.23275 2.545,0.66753l0.24542,-0.07736c0,0 0.24254,-0.06063 0.30317,0.1819z" fill="#000000" stroke-width="0.5"/><path d="M170.93788,203.8551c0,0.25 -0.25,0.25 -0.25,0.25h-0.25c-1.16223,-0.03008 -2.15246,-0.66666 -2.58333,-0.27089v0.02089c0,0.13807 -0.11193,0.25 -0.25,0.25c-0.06904,0 -0.13154,-0.02798 -0.17678,-0.07322l-0.25,-0.25l0.01197,-0.01197l-0.0439,-0.02719c-0.15502,-0.80399 -0.02286,0.37088 -0.62462,0.36238c-0.56658,-0.00801 -0.40052,-0.42565 -0.51234,-0.6857c-0.00508,-0.0118 -0.45948,0.63765 -0.50049,0.76475c0,0 -0.07906,0.23717 -0.31623,0.15811c-0.23717,-0.07906 -0.15811,-0.31623 -0.15811,-0.31623c0.29924,-0.87589 1.49842,-1.0173 2.14302,-0.81417c0.07552,-0.08737 0.23611,-0.19061 0.52678,-0.31302c0.53395,-0.22487 0.76558,0.81368 0.88861,0.79994c0.71043,-0.07932 1.17365,-0.06817 1.84543,-0.0937h0.25c0,0 0.25,0 0.25,0.25z" fill="#000000" stroke-width="0.5"/><path d="M179.27121,203.8551c0,0.25 -0.25,0.25 -0.25,0.25h-0.33333c-0.55377,0 -2.18101,0.25255 -2.29529,-0.36896c-0.90396,0.60771 -1.75485,0.16131 -2.59291,0.4259c-0.39386,0.12435 -0.47758,-1.04179 -0.8618,-0.89027c-0.1771,0.06984 -0.38496,0.68944 -0.4295,0.82906c0,0 -0.07906,0.23717 -0.31623,0.15811c-0.23717,-0.07906 -0.15811,-0.31623 -0.15811,-0.31623c0.09793,-0.28384 0.44617,-1.19274 0.90384,-1.17094c0.25181,0.01199 0.51215,0.5798 0.61776,0.85638c-0.01617,-0.19846 0.17443,-0.37812 0.38928,-0.42779c0.38889,-0.08991 0.70208,0.76528 1.05166,0.57262c0.50142,-0.27633 1.08362,-0.40824 1.65326,-0.46559c0.17286,0.55834 1.43979,0.29771 2.03804,0.29771h0.33333c0,0 0.25,0 0.25,0.25z" fill="#000000" stroke-width="0.5"/></g><g data-paper-data="{&quot;index&quot;:null}"><path d="M81.55366,221.6628c-12.37118,0 -22.4,-17.01318 -22.4,-38c0,-20.98682 10.02882,-38 22.4,-38c12.37118,0 22.4,17.01318 22.4,38c0,20.98682 -10.02882,38 -22.4,38z" fill="#26ffe5" stroke="#46c0ff" stroke-width="2" stroke-linecap="butt"/><path d="M70.94807,157.04091c-1.15233,-0.96028 -0.19206,-2.11261 -0.19206,-2.11261l1.09167,-1.30038c0.43346,-0.36389 0.86692,-0.72778 1.30038,-1.09167c0,0 0.004,-0.00333 0.01172,-0.00936c0.00746,-0.00636 0.01152,-0.00961 0.01152,-0.00961l1.19283,-0.93106c3.44715,-1.92709 5.16793,-3.63669 9.50986,-3.18846c0,0 1.49083,0.16565 1.32518,1.65647c-0.16565,1.49083 -1.65647,1.32518 -1.65647,1.32518c-3.64027,-0.44104 -4.816,1.14112 -7.69014,2.81154l-0.77566,0.64282c-0.00538,0.00473 -0.00828,0.00714 -0.00828,0.00714c-0.36654,0.30278 -0.73308,0.60555 -1.09962,0.90833l-0.90833,1.09962c0,0 -0.96028,1.15233 -2.11261,0.19206z" fill="#7bfff0" stroke="none" stroke-width="0.5" stroke-linecap="butt"/><path d="M67.00835,159.68858c0,-0.82843 0.67157,-1.5 1.5,-1.5c0.82843,0 1.5,0.67157 1.5,1.5c0,0.82843 -0.67157,1.5 -1.5,1.5c-0.82843,0 -1.5,-0.67157 -1.5,-1.5z" fill="#7bfff0" stroke="none" stroke-width="0.5" stroke-linecap="butt"/><path d="M66.91564,185.60812c0,0 8.92881,-4.13858 13.81372,-5.17253c5.14584,-1.08918 16.31933,-1.20548 16.31933,-1.20548" data-paper-data="{&quot;index&quot;:null}" fill="none" stroke="#000000" stroke-width="2.5" stroke-linecap="round"/><path d="M72.11237,186.94237c0,-0.4234 1.33815,-0.76663 2.98885,-0.76663c1.65069,0 2.98885,0.34323 2.98885,0.76663c0,0.4234 -1.33815,0.76663 -2.98885,0.76663c-1.65069,0 -2.98885,-0.34323 -2.98885,-0.76663z" fill="#000000" stroke="none" stroke-width="0.5" stroke-linecap="butt"/><path d="M89.53249,183.86422c0,-0.48476 1.33815,-0.87774 2.98885,-0.87774c1.65069,0 2.98885,0.39298 2.98885,0.87774c0,0.48476 -1.33815,0.87774 -2.98885,0.87774c-1.65069,0 -2.98885,-0.39298 -2.98885,-0.87774z" fill="#000000" stroke="none" stroke-width="0.5" stroke-linecap="butt"/><path d="M81.67505,196.95964h11.89552" fill="none" stroke="#000000" stroke-width="2" stroke-linecap="round"/></g><path d="M259.88299,220.62243h-41.66667l-6.33333,-30.46777l27.33333,-28.1989l26.33334,28.1989z" fill="#66ff9b" stroke="#00ff90" stroke-width="2" stroke-linecap="butt"/><path d="M229.00699,179.73676c0,0 2.08802,-0.5734 3.13261,-0.68054c1.17423,-0.12043 3.56943,-0.00686 3.56943,-0.00686" fill="none" stroke="#000000" stroke-width="2.5" stroke-linecap="round"/><path d="M248.41961,209.19644c0,0 -9.03748,-0.77661 -11.71948,-0.60365c-1.64636,0.10617 -2.12835,0.9713 -2.12835,0.9713" fill="none" stroke="#000000" stroke-width="2.5" stroke-linecap="round"/><path d="M251.1181,178.60493c0,0 2.3952,-0.11358 3.56943,0.00685c1.04459,0.10714 3.13261,0.68054 3.13261,0.68054" data-paper-data="{&quot;index&quot;:null}" fill="none" stroke="#000000" stroke-width="2.5" stroke-linecap="round"/><g><path d="M54.52956,219.33175h-48.02727l24.01363,-41.99267z" fill="#ff0000" stroke="#d40000" stroke-width="2" stroke-linecap="butt"/><path d="M35.07824,194.35999c-1.56582,0.52194 -2.08777,-1.04388 -2.08777,-1.04388l-0.05444,-0.34727c-1.41836,-2.15431 -2.24453,-4.51074 -3.52262,-6.77417c0,0 -0.80919,-1.43856 0.62937,-2.24774c1.43856,-0.80919 2.24774,0.62937 2.24774,0.62937c1.21737,2.17195 2.01229,4.52343 3.39215,6.56146l0.43946,1.13447c0,0 0.52194,1.56582 -1.04388,2.08777z" fill="#ff4848" stroke="none" stroke-width="0.5" stroke-linecap="butt"/><path d="M24.20327,202.87727c0,-1.65069 1.33815,-2.98885 2.98885,-2.98885c1.65069,0 2.98885,1.33815 2.98885,2.98885c0,1.65069 -1.33815,2.98885 -2.98885,2.98885c-1.65069,0 -2.98885,-1.33815 -2.98885,-2.98885z" fill="#000000" stroke="none" stroke-width="0.5" stroke-linecap="butt"/><path d="M35.80435,200.19912c0,-1.65069 1.33815,-2.98885 2.98885,-2.98885c1.65069,0 2.98885,1.33815 2.98885,2.98885c0,1.65069 -1.33815,2.98885 -2.98885,2.98885c-1.65069,0 -2.98885,-1.33815 -2.98885,-2.98885z" fill="#000000" stroke="none" stroke-width="0.5" stroke-linecap="butt"/><path d="M22.90881,211.89454h11.89552" fill="none" stroke="#000000" stroke-width="2" stroke-linecap="round"/><path d="M21.85313,195.04851h7" fill="none" stroke="#000000" stroke-width="1.5" stroke-linecap="round"/><path d="M43.05313,196.47708l-6.6,1.2" fill="none" stroke="#000000" stroke-width="1.5" stroke-linecap="round"/></g><g><path d="M253.33722,193.66411c0,-3.7304 1.68489,-6.75448 3.76331,-6.75448c2.07841,0 3.76333,3.0241 3.76333,6.75448c0,3.7304 -1.6849,6.75448 -3.76333,6.75448c-2.07841,0 -3.76331,-3.02408 -3.76331,-6.75448z" data-paper-data="{&quot;index&quot;:null}" fill="#000000" stroke="none" stroke-width="0.5" stroke-linecap="butt"/><path d="M260.39183,188.24851l-1.42857,1" data-paper-data="{&quot;index&quot;:null}" fill="none" stroke="#000000" stroke-width="3" stroke-linecap="round"/></g><g><path d="M232.52653,194.25285c0,-3.7304 1.68489,-6.75448 3.76331,-6.75448c2.07841,0 3.76333,3.0241 3.76333,6.75448c0,3.7304 -1.6849,6.75448 -3.76333,6.75448c-2.07841,0 -3.76331,-3.02408 -3.76331,-6.75448z" data-paper-data="{&quot;index&quot;:null}" fill="#000000" stroke="none" stroke-width="0.5" stroke-linecap="butt"/><path d="M234.30611,190.10565l-1.42857,-1" fill="none" stroke="#000000" stroke-width="3" stroke-linecap="round"/></g><g stroke="#bb3f0c" stroke-width="1"><path d="M224.25946,195.46971c0,-4.89166 3.96548,-8.85714 8.85714,-8.85714c4.89166,0 8.85714,3.96548 8.85714,8.85714c0,4.89166 -3.96548,8.85714 -8.85714,8.85714c-4.89166,0 -8.85714,-3.96548 -8.85714,-8.85714z" fill-opacity="0.32239" fill="#ccfff5" stroke-linecap="butt"/><path d="M244.97374,195.04114c0,-4.89166 3.96547,-8.85714 8.85714,-8.85714c4.89166,0 8.85714,3.96548 8.85714,8.85714c0,4.89166 -3.96548,8.85715 -8.85714,8.85715c-4.89166,0 -8.85714,-3.96548 -8.85714,-8.85715z" fill-opacity="0.32239" fill="#ccfff5" stroke-linecap="butt"/><path d="M244.99003,196.16469h-2.66667" fill="none" stroke-linecap="round"/><path d="M266.43448,192.94247l-0.66667,2.88889l-2.55556,-0.11111" fill="none" stroke-linecap="round"/><path d="M224.21225,196.2758h-11.88889l-1,-2.33333" fill="none" stroke-linecap="round"/></g><g fill="#000000" stroke="none" stroke-width="1" stroke-linecap="butt" font-family="Sans Serif" font-weight="normal" font-size="40" text-anchor="start"><text transform="translate(102.57753,161.38244) scale(0.35714,0.35714)" font-size="40" xml:space="preserve" fill="#000000" fill-rule="nonzero" stroke="none" stroke-width="1" stroke-linecap="butt" stroke-linejoin="miter" stroke-miterlimit="10" stroke-dasharray="" stroke-dashoffset="0" font-family="Sans Serif" font-weight="normal" text-anchor="start" style="mix-blend-mode: normal"><tspan x="0" dy="0">z</tspan></text><text transform="translate(110.43468,154.07643) scale(0.29699,0.29699)" font-size="40" xml:space="preserve" fill="#000000" fill-rule="nonzero" stroke="none" stroke-width="1" stroke-linecap="butt" stroke-linejoin="miter" stroke-miterlimit="10" stroke-dasharray="" stroke-dashoffset="0" font-family="Sans Serif" font-weight="normal" text-anchor="start" style="mix-blend-mode: normal"><tspan x="0" dy="0">z</tspan></text></g></g></g></svg>