<svg version="1.1" xmlns="http://www.w3.org/2000/svg" xmlns:xlink="http://www.w3.org/1999/xlink" width="63.31044" height="63.31044" viewBox="0,0,63.31044,63.31044"><defs><radialGradient cx="240" cy="180" r="29.90522" gradientUnits="userSpaceOnUse" id="color-1"><stop offset="0" stop-color="#f5e1da"/><stop offset="1" stop-color="#e69b5c"/></radialGradient></defs><g transform="translate(-208.34478,-148.34478)"><g data-paper-data="{&quot;isPaintingLayer&quot;:true}" fill-rule="nonzero" stroke-linejoin="miter" stroke-miterlimit="10" stroke-dasharray="" stroke-dashoffset="0" style="mix-blend-mode: normal"><path d="M210.09478,209.90522v-59.81044h59.81044v59.81044z" fill="url(#color-1)" stroke="#ffffff" stroke-width="3.5" stroke-linecap="butt"/><g stroke="#000000"><path d="M224.16072,172.15583l-1.71429,6.07143l-2.78571,-4.71428l-2.21429,5l-2.5,-5.78572" fill="none" stroke-width="4" stroke-linecap="round"/><g fill="none" stroke-width="4" stroke-linecap="round"><path d="M227.16072,174.44154c1.25519,-0.92978 1.89484,-0.33969 2.78571,0.14286c0.89087,0.48255 0.64286,1.71428 0.64286,1.71428l-4.21429,0.28572c0,0 -0.46947,-1.21308 0.78572,-2.14286z"/><path d="M230.66072,179.01296c0,0 -0.66829,0.36682 -1.28572,0.42857c-0.61744,0.06175 -0.97168,0.09705 -1.57143,-0.14285c-0.59975,-0.2399 -0.97303,-0.40592 -1.28571,-1c-0.31267,-0.59408 -0.14286,-1.71428 -0.14286,-1.71428"/></g><g fill="none" stroke-width="4" stroke-linecap="round"><path d="M232.94643,171.01297l0.42857,8.07143"/><path d="M233.30358,174.5844c0,0 0.86184,-0.65987 1.5,-0.92857c0.63816,-0.2687 0.91559,-0.171 1.42857,0c0.51298,0.171 0.64812,0.21343 1,0.57143c0.46197,0.47002 0.86393,1.99702 0.5,3.21428c-0.14254,0.47677 -0.42799,0.85678 -1,1.21429c-0.57201,0.35751 -0.76767,0.25124 -1.28572,0.21429c-0.92935,-0.06628 -1.85714,-1 -1.85714,-1"/></g><path d="M246.66072,171.15583c0,0 -1.17869,-0.22807 -1.92857,-0.14285c-0.74989,0.08522 -0.84709,0.13281 -1.21428,0.5c-0.36719,0.36719 -0.55463,0.73131 -0.57143,1.28571c-0.0168,0.55439 0.11636,0.79548 0.5,1.07143c0.38364,0.27595 3.14563,1.11653 3.57143,2c0.34092,0.70736 0.2647,0.31087 0.28571,0.85714c0.02101,0.54627 0.03745,0.53137 -0.21428,0.85715c-0.25173,0.32577 -0.53417,0.54338 -0.92857,0.71429c-0.39441,0.17091 -0.72036,0.19132 -1.21429,0.21429c-0.49393,0.02298 -1.85714,-0.21429 -1.85714,-0.21429" fill="none" stroke-width="4" stroke-linecap="round"/><g fill="none" stroke-width="4" stroke-linecap="round"><path d="M255.08929,177.87011c0,0 -0.89869,0.09767 -1.14286,0c-0.24416,-0.09767 -0.58855,-0.35765 -0.64285,-0.78571c-0.29559,-2.33004 -0.21429,-6.07143 -0.21429,-6.07143"/><path d="M252.01786,172.65583l2.92857,-0.21429"/></g><g><path d="M250.08929,178.15583l-0.35714,-5.5" fill="none" stroke-width="4" stroke-linecap="round"/><path d="M248.83929,170.5844c0,-0.41422 0.33578,-0.75 0.75,-0.75c0.41422,0 0.75,0.33578 0.75,0.75c0,0.41422 -0.33578,0.75 -0.75,0.75c-0.41422,0 -0.75,-0.33578 -0.75,-0.75z" fill="#9966ff" stroke-width="2.5" stroke-linecap="butt"/></g><g fill="none" stroke-width="4" stroke-linecap="round"><path d="M257.23216,174.72726c0,0 -0.46949,-1.21308 0.78571,-2.14286c1.25519,-0.92978 1.89484,-0.33969 2.78571,0.14286c0.89087,0.48255 0.64285,1.71428 0.64285,1.71428l-4.21428,0.28572z"/><path d="M261.51786,177.15582c0,0 -0.66828,0.36682 -1.28571,0.42857c-0.61743,0.06175 -0.97168,0.09705 -1.57143,-0.14285c-0.59974,-0.2399 -0.97303,-0.40592 -1.28571,-1c-0.31268,-0.59408 -0.14286,-1.71428 -0.14286,-1.71428"/></g><g><path d="M263.875,169.79869l0.28571,5" fill="none" stroke-width="4" stroke-linecap="round"/><path d="M263.55357,176.94154c0,-0.41422 0.33578,-0.75 0.75,-0.75c0.41422,0 0.75,0.33578 0.75,0.75c0,0.41422 -0.33578,0.75 -0.75,0.75c-0.41422,0 -0.75,-0.33578 -0.75,-0.75z" fill="#9966ff" stroke-width="2.5" stroke-linecap="butt"/></g></g><g stroke="#e6965c"><path d="M224.16072,172.15583l-1.71429,6.07143l-2.78571,-4.71428l-2.21429,5l-2.5,-5.78572" fill="none" stroke-width="2.5" stroke-linecap="round"/><g fill="none" stroke-width="2.5" stroke-linecap="round"><path d="M227.16072,174.44154c1.25519,-0.92978 1.89484,-0.33969 2.78571,0.14286c0.89087,0.48255 0.64286,1.71428 0.64286,1.71428l-4.21429,0.28572c0,0 -0.46947,-1.21308 0.78572,-2.14286z"/><path d="M230.66072,179.01296c0,0 -0.66829,0.36682 -1.28572,0.42857c-0.61744,0.06175 -0.97168,0.09705 -1.57143,-0.14285c-0.59975,-0.2399 -0.97303,-0.40592 -1.28571,-1c-0.31267,-0.59408 -0.14286,-1.71428 -0.14286,-1.71428"/></g><g fill="none" stroke-width="2.5" stroke-linecap="round"><path d="M232.94643,171.01297l0.42857,8.07143"/><path d="M233.30358,174.5844c0,0 0.86184,-0.65987 1.5,-0.92857c0.63816,-0.2687 0.91559,-0.171 1.42857,0c0.51298,0.171 0.64812,0.21343 1,0.57143c0.46197,0.47002 0.86393,1.99702 0.5,3.21428c-0.14254,0.47677 -0.42799,0.85678 -1,1.21429c-0.57201,0.35751 -0.76767,0.25124 -1.28572,0.21429c-0.92935,-0.06628 -1.85714,-1 -1.85714,-1"/></g><path d="M246.66072,171.15583c0,0 -1.17869,-0.22807 -1.92857,-0.14285c-0.74989,0.08522 -0.84709,0.13281 -1.21428,0.5c-0.36719,0.36719 -0.55463,0.73131 -0.57143,1.28571c-0.0168,0.55439 0.11636,0.79548 0.5,1.07143c0.38364,0.27595 3.14563,1.11653 3.57143,2c0.34092,0.70736 0.2647,0.31087 0.28571,0.85714c0.02101,0.54627 0.03745,0.53137 -0.21428,0.85715c-0.25173,0.32577 -0.53417,0.54338 -0.92857,0.71429c-0.39441,0.17091 -0.72036,0.19132 -1.21429,0.21429c-0.49393,0.02298 -1.85714,-0.21429 -1.85714,-0.21429" fill="none" stroke-width="2.5" stroke-linecap="round"/><g fill="none" stroke-width="2.5" stroke-linecap="round"><path d="M255.08929,177.87011c0,0 -0.89869,0.09767 -1.14286,0c-0.24416,-0.09767 -0.58855,-0.35765 -0.64285,-0.78571c-0.29559,-2.33004 -0.21429,-6.07143 -0.21429,-6.07143"/><path d="M252.01786,172.65583l2.92857,-0.21429"/></g><g><path d="M250.08929,178.15583l-0.35714,-5.5" fill="none" stroke-width="2.5" stroke-linecap="round"/><path d="M248.83929,170.5844c0,-0.41422 0.33578,-0.75 0.75,-0.75c0.41422,0 0.75,0.33578 0.75,0.75c0,0.41422 -0.33578,0.75 -0.75,0.75c-0.41422,0 -0.75,-0.33578 -0.75,-0.75z" fill="#9966ff" stroke-width="1" stroke-linecap="butt"/></g><g fill="none" stroke-width="2.5" stroke-linecap="round"><path d="M257.23216,174.72726c0,0 -0.46949,-1.21308 0.78571,-2.14286c1.25519,-0.92978 1.89484,-0.33969 2.78571,0.14286c0.89087,0.48255 0.64285,1.71428 0.64285,1.71428l-4.21428,0.28572z"/><path d="M261.51786,177.15582c0,0 -0.66828,0.36682 -1.28571,0.42857c-0.61743,0.06175 -0.97168,0.09705 -1.57143,-0.14285c-0.59974,-0.2399 -0.97303,-0.40592 -1.28571,-1c-0.31268,-0.59408 -0.14286,-1.71428 -0.14286,-1.71428"/></g><g><path d="M263.875,169.79869l0.28571,5" fill="none" stroke-width="2.5" stroke-linecap="round"/><path d="M263.55357,176.94154c0,-0.41422 0.33578,-0.75 0.75,-0.75c0.41422,0 0.75,0.33578 0.75,0.75c0,0.41422 -0.33578,0.75 -0.75,0.75c-0.41422,0 -0.75,-0.33578 -0.75,-0.75z" fill="#9966ff" stroke-width="1" stroke-linecap="butt"/></g></g><g><path d="M224.16072,172.15583l-1.71429,6.07143l-2.78571,-4.71428l-2.21429,5l-2.5,-5.78572" fill="none" stroke="#ffa666" stroke-width="1.5" stroke-linecap="round"/><g fill="none" stroke="#ffa666" stroke-width="1.5" stroke-linecap="round"><path d="M227.16072,174.44154c1.25519,-0.92978 1.89484,-0.33969 2.78571,0.14286c0.89087,0.48255 0.64286,1.71428 0.64286,1.71428l-4.21429,0.28572c0,0 -0.46947,-1.21308 0.78572,-2.14286z"/><path d="M230.66072,179.01296c0,0 -0.66829,0.36682 -1.28572,0.42857c-0.61744,0.06175 -0.97168,0.09705 -1.57143,-0.14285c-0.59975,-0.2399 -0.97303,-0.40592 -1.28571,-1c-0.31267,-0.59408 -0.14286,-1.71428 -0.14286,-1.71428"/></g><g fill="none" stroke="#ffa666" stroke-width="1.5" stroke-linecap="round"><path d="M232.94643,171.01297l0.42857,8.07143"/><path d="M233.30358,174.5844c0,0 0.86184,-0.65987 1.5,-0.92857c0.63816,-0.2687 0.91559,-0.171 1.42857,0c0.51298,0.171 0.64812,0.21343 1,0.57143c0.46197,0.47002 0.86393,1.99702 0.5,3.21428c-0.14254,0.47677 -0.42799,0.85678 -1,1.21429c-0.57201,0.35751 -0.76767,0.25124 -1.28572,0.21429c-0.92935,-0.06628 -1.85714,-1 -1.85714,-1"/></g><path d="M246.66072,171.15583c0,0 -1.17869,-0.22807 -1.92857,-0.14285c-0.74989,0.08522 -0.84709,0.13281 -1.21428,0.5c-0.36719,0.36719 -0.55463,0.73131 -0.57143,1.28571c-0.0168,0.55439 0.11636,0.79548 0.5,1.07143c0.38364,0.27595 3.14563,1.11653 3.57143,2c0.34092,0.70736 0.2647,0.31087 0.28571,0.85714c0.02101,0.54627 0.03745,0.53137 -0.21428,0.85715c-0.25173,0.32577 -0.53417,0.54338 -0.92857,0.71429c-0.39441,0.17091 -0.72036,0.19132 -1.21429,0.21429c-0.49393,0.02298 -1.85714,-0.21429 -1.85714,-0.21429" fill="none" stroke="#ffa666" stroke-width="1.5" stroke-linecap="round"/><g fill="none" stroke="#ffa666" stroke-width="1.5" stroke-linecap="round"><path d="M255.08929,177.87011c0,0 -0.89869,0.09767 -1.14286,0c-0.24416,-0.09767 -0.58855,-0.35765 -0.64285,-0.78571c-0.29559,-2.33004 -0.21429,-6.07143 -0.21429,-6.07143"/><path d="M252.01786,172.65583l2.92857,-0.21429"/></g><g><path d="M250.08929,178.15583l-0.35714,-5.5" fill="none" stroke="#ffa666" stroke-width="1.5" stroke-linecap="round"/><path d="M248.83929,170.5844c0,-0.41422 0.33578,-0.75 0.75,-0.75c0.41422,0 0.75,0.33578 0.75,0.75c0,0.41422 -0.33578,0.75 -0.75,0.75c-0.41422,0 -0.75,-0.33578 -0.75,-0.75z" fill="#ffa666" stroke="none" stroke-width="0.5" stroke-linecap="butt"/></g><g fill="none" stroke="#ffa666" stroke-width="1.5" stroke-linecap="round"><path d="M257.23216,174.72726c0,0 -0.46949,-1.21308 0.78571,-2.14286c1.25519,-0.92978 1.89484,-0.33969 2.78571,0.14286c0.89087,0.48255 0.64285,1.71428 0.64285,1.71428l-4.21428,0.28572z"/><path d="M261.51786,177.15582c0,0 -0.66828,0.36682 -1.28571,0.42857c-0.61743,0.06175 -0.97168,0.09705 -1.57143,-0.14285c-0.59974,-0.2399 -0.97303,-0.40592 -1.28571,-1c-0.31268,-0.59408 -0.14286,-1.71428 -0.14286,-1.71428"/></g><g><path d="M263.875,169.79869l0.28571,5" fill="none" stroke="#ffa666" stroke-width="1.5" stroke-linecap="round"/><path d="M263.55357,176.94154c0,-0.41422 0.33578,-0.75 0.75,-0.75c0.41422,0 0.75,0.33578 0.75,0.75c0,0.41422 -0.33578,0.75 -0.75,0.75c-0.41422,0 -0.75,-0.33578 -0.75,-0.75z" fill="#ffa666" stroke="none" stroke-width="0.5" stroke-linecap="butt"/></g></g><g fill="#000000" stroke="none" stroke-width="0.5" stroke-linecap="butt"><path d="M236.67131,194.80926c0,1.25 -1.25,1.25 -1.25,1.25h-0.625c-1.02151,-0.00217 -2.04317,0.09841 -3.05554,0.23478c-0.66983,0.12185 -3.21463,0.61997 -3.59597,0.48425c-2.99132,-1.06463 -2.27693,-2.12734 -0.85737,-3.97792c1.32566,-1.72817 6.83509,-3.87209 6.8849,-6.31584c0.07315,-3.58921 -4.581,-0.78715 -5.55764,-0.13522c0,0 -1.04006,0.69338 -1.73344,-0.34668c-0.69338,-1.04006 0.34669,-1.73344 0.34669,-1.73344c2.94795,-1.96258 6.38345,-3.6017 8.63563,0.38932c0.31204,0.55295 0.80246,1.09056 0.80674,1.72546c0.0205,3.04347 -3.53397,4.66186 -5.4565,6.26696c-0.19819,0.16547 -0.78048,0.91133 -1.38671,1.45053c0.0531,-0.00916 0.10162,-0.01783 0.14399,-0.02607c0.4592,-0.08924 0.92052,-0.16728 1.38077,-0.25092c1.14163,-0.15083 2.29291,-0.26305 3.44446,-0.26522h0.625c0,0 1.25,0 1.25,1.25z"/><path d="M238.67131,194.80926c0,-0.69036 0.55964,-1.25 1.25,-1.25c0.69036,0 1.25,0.55964 1.25,1.25c0,0.69036 -0.55964,1.25 -1.25,1.25c-0.69036,0 -1.25,-0.55964 -1.25,-1.25z"/><path d="M247.17565,195.65004c-0.45696,0.12201 -0.8966,-0.07782 -0.8966,-0.07782c-1.53751,-0.71427 -1.69759,-0.61213 -2.89514,-1.90854c-2.52663,-2.73521 -2.46344,-8.90229 1.15418,-10.93217c3.53772,-1.98504 7.52512,0.03274 8.91774,3.48585c0.63182,1.56665 0.46619,3.1166 0.45441,4.75781c-0.96033,3.48229 -2.70079,5.52647 -6.49915,4.85022zM246.28821,192.63944c0.645,-0.30727 1.27552,0.18313 1.27552,0.18313l0.86779,0.72056c1.82214,0.34936 2.58404,-1.3421 3.00085,-2.89978c-0.01071,-1.171 0.16874,-2.38026 -0.29559,-3.49219c-0.87376,-2.09239 -3.05591,-3.46793 -5.33226,-2.26415c-3.17591,1.67949 -1.71176,5.90143 0.48369,7.75243z"/></g></g></g></svg>