<svg version="1.1" xmlns="http://www.w3.org/2000/svg" xmlns:xlink="http://www.w3.org/1999/xlink" width="394.77716" height="109.97786" viewBox="0,0,394.77716,109.97786"><defs><linearGradient x1="205.10815" y1="128.22694" x2="205.10815" y2="202.50794" gradientUnits="userSpaceOnUse" id="color-1"><stop offset="0" stop-color="#dbff66"/><stop offset="1" stop-color="#8fff66"/></linearGradient><linearGradient x1="368.23098" y1="196.43702" x2="378.86178" y2="196.43702" gradientUnits="userSpaceOnUse" id="color-2"><stop offset="0" stop-color="#ffb44c"/><stop offset="1" stop-color="#63ffdb"/></linearGradient></defs><g transform="translate(-46.36142,-126.54521)"><g data-paper-data="{&quot;isPaintingLayer&quot;:true}" fill-rule="nonzero" stroke-linejoin="miter" stroke-miterlimit="10" stroke-dasharray="" stroke-dashoffset="0" style="mix-blend-mode: normal"><path d="M362.60483,170.36657c0,20.51262 -16.62703,37.14136 -37.13964,37.14136h-240.71241c-20.51261,0 -37.14136,-16.62874 -37.14136,-37.14136v0c0,-20.5109 16.62875,-37.13964 37.14136,-37.13964h240.71241c20.51261,0 37.13964,16.62874 37.13964,37.13964z" fill="#000000" stroke-opacity="0" stroke="#3bed00" stroke-width="2.5" stroke-linecap="butt"/><path d="M362.60483,165.36657c0,20.51262 -16.62703,37.14136 -37.13964,37.14136h-240.71241c-20.51261,0 -37.14136,-16.62874 -37.14136,-37.14136v0c0,-20.5109 16.62875,-37.13964 37.14136,-37.13964h240.71241c20.51261,0 37.13964,16.62874 37.13964,37.13964z" fill="url(#color-1)" stroke="#3bed00" stroke-width="2.5" stroke-linecap="butt"/><g fill="none" stroke-width="8.5"><g stroke="#ff9500"><path d="M148.04914,167.29864l-15.30914,1.44865" stroke-linecap="round"/><path d="M312.62239,168.74728l15.30914,-1.44865" stroke-linecap="round"/><g><path d="M92.42595,164.47106l19.39158,0.96577l-0.25515,23.41989c0,0 -12.5081,0.0706 -19.64347,-0.01174c-6.79646,-0.07843 -11.90151,0.03698 -17.60878,-6.5072c-5.70727,-6.54418 -5.1711,-15.26499 -4.79093,-19.1772c0.67065,-6.90142 2.33422,-16.63805 6.577,-20.41931c2.40081,-2.13967 9.56926,-1.79434 14.80317,-1.7193c5.91037,0.08474 18.87694,2.20218 18.87694,2.20218" stroke-linecap="round"/><path d="M159.02071,190.23566l-27.04615,-0.96577l-0.25516,-45.14968l23.72917,-1.6901" stroke-linecap="round"/><path d="M188.10809,190.4771c-9.58234,0 -17.35036,-10.7978 -17.35036,-24.11757c0,-13.31976 7.76802,-24.11757 17.35036,-24.11757c9.58234,0 17.35036,10.7978 17.35036,24.11757c0,13.31976 -7.76802,24.11757 -17.35036,24.11757z" stroke-linecap="butt"/><path d="M222.44098,190.23565c0,0 -3.56891,-37.77862 0.70827,-44.45741c3.33338,-5.20505 15.07084,-3.70713 18.8872,-0.22341c3.81404,3.48161 6.19159,11.99511 1.41654,16.97871c-4.77505,4.9836 -17.47066,3.35106 -17.47066,3.35106l16.99848,24.35104" stroke-linecap="round"/><path d="M278.03584,166.17925l14.56579,0.92685l-0.19166,22.47607c0,0 -9.39533,0.06775 -14.75499,-0.01127c-5.1051,-0.07527 -8.9397,0.0355 -13.22666,-6.24496c-4.28695,-6.28046 -3.88422,-14.64982 -3.59866,-18.40437c0.50375,-6.6233 1.75333,-15.96754 4.94025,-19.59642c1.80334,-2.05344 7.18785,-1.72203 11.11925,-1.65001c4.43952,0.08132 14.17923,2.11343 14.17923,2.11343" stroke-linecap="round"/><path d="M338.9031,190.23566l-27.04615,-0.96577l-0.25515,-45.14968l23.72917,-1.6901" stroke-linecap="round"/></g></g><g stroke="#ffa529"><path d="M130.21057,168.35471l15.85177,-1.5" stroke-linecap="round"/><path d="M316.46883,168.35471l15.85177,-1.5" stroke-linecap="round"/><g><path d="M88.46759,163.92691l20.07891,1l-0.2642,24.25c0,0 -12.95145,0.0731 -20.33973,-0.01216c-7.03735,-0.08121 -12.32335,0.0383 -18.23291,-6.73784c-5.90956,-6.77614 -5.3544,-15.80606 -4.96075,-19.85693c0.69442,-7.14604 2.41696,-17.22778 6.81012,-21.14307c2.48591,-2.21551 9.90844,-1.85794 15.32786,-1.78024c6.11986,0.08775 19.54603,2.28024 19.54603,2.28024" stroke-linecap="round"/><path d="M157.42279,190.60471l-28.00479,-1l-0.2642,-46.75l24.57024,-1.75" stroke-linecap="round"/><path d="M187.54115,190.85471c-9.92198,0 -17.96534,-11.18054 -17.96534,-24.97242c0,-13.79188 8.04336,-24.97241 17.96534,-24.97241c9.92198,0 17.96534,11.18052 17.96534,24.97241c0,13.79189 -8.04336,24.97242 -17.96534,24.97242z" stroke-linecap="butt"/><path d="M223.09097,190.60471c0,0 -3.69541,-39.11768 0.73337,-46.03319c3.45153,-5.38954 15.60502,-3.83852 19.55665,-0.23132c3.94923,3.60501 6.41105,12.42027 1.46675,17.58051c-4.9443,5.16025 -18.0899,3.46984 -18.0899,3.46984l17.60099,25.21416" stroke-linecap="round"/><path d="M280.65636,165.69564l15.08207,0.9597l-0.19845,23.27273c0,0 -9.72835,0.07015 -15.27798,-0.01167c-5.28604,-0.07794 -9.25656,0.03675 -13.69547,-6.46631c-4.43891,-6.50306 -4.0219,-15.16907 -3.72622,-19.0567c0.5216,-6.85805 1.81547,-16.5335 5.11535,-20.291c1.86727,-2.12622 7.44262,-1.78307 11.51337,-1.7085c4.59687,0.08421 14.6818,2.18835 14.6818,2.18835" stroke-linecap="round"/><path d="M343.68107,190.60471l-28.00479,-1l-0.2642,-46.75l24.57024,-1.75" stroke-linecap="round"/></g></g></g><g><g stroke="#000000"><path d="M368.23099,196.43702c0,-2.93561 2.37978,-5.3154 5.31539,-5.3154c2.93561,0 5.3154,2.37978 5.3154,5.3154c0,2.93561 -2.37979,5.3154 -5.3154,5.3154c-2.93561,0 -5.31539,-2.37978 -5.31539,-5.3154z" fill="#ffffff" stroke-width="5" stroke-linecap="butt"/><path d="M432.38858,147.602l-36.82641,10.00718l-0.40028,18.01292c0,0 13.63223,-4.16104 24.41751,5.60402c10.78528,9.76506 -1.12555,17.37295 -5.60402,18.01292c-9.03524,1.29112 -26.41894,-1.20086 -26.41894,-1.20086" fill="none" stroke-width="17.5" stroke-linecap="round"/><g fill="none" stroke-width="17.5" stroke-linecap="round"><path d="M350.08619,167.10916l25.51776,-17.56301l-21.75101,57.91356"/><path d="M339.11456,206.6277l33.15438,4.30685"/></g></g><g><path d="M368.23098,196.43702c0,-2.93561 2.37978,-5.3154 5.3154,-5.3154c2.93561,0 5.3154,2.37978 5.3154,5.3154c0,2.93561 -2.37978,5.3154 -5.3154,5.3154c-2.93561,0 -5.3154,-2.37978 -5.3154,-5.3154z" fill="url(#color-2)" stroke="none" stroke-width="0.5" stroke-linecap="butt"/><path d="M432.38858,147.60198l-36.82641,10.00718l-0.40029,18.01292c0,0 13.63223,-4.16104 24.41751,5.60402c10.78528,9.76505 -1.12556,17.37295 -5.60402,18.01292c-9.03524,1.29112 -26.41894,-1.20086 -26.41894,-1.20086" fill="none" stroke="#63ffdb" stroke-width="12" stroke-linecap="round"/><g fill="none" stroke="#ffb44c" stroke-width="12" stroke-linecap="round"><path d="M350.08619,167.10916l25.51776,-17.56301l-21.75101,57.91356"/><path d="M372.26895,210.93455l-33.15439,-4.30685"/></g></g></g><g><g stroke="#000000"><path d="M122.25944,204.94163c-0.02249,-1.50505 1.17936,-2.74337 2.6844,-2.76586c1.50505,-0.02249 2.74337,1.17936 2.76586,2.6844c0.02249,1.50505 -1.17936,2.74337 -2.6844,2.76586c-1.50505,0.02249 -2.74337,-1.17936 -2.76586,-2.6844z" fill="#ffffff" stroke-width="3.5" stroke-linecap="butt"/><g fill="none" stroke-width="9.5"><g><path d="M143.67046,202.83474l-2.95246,21.30492" stroke-linecap="round"/><path d="M130.27827,218.6625c-0.04349,-2.90976 2.28008,-5.30385 5.18985,-5.34734c2.90976,-0.04349 5.30385,2.28008 5.34734,5.18984c0.04349,2.90976 -2.28008,5.30385 -5.18984,5.34734c-2.90976,0.04349 -5.30385,-2.28008 -5.34734,-5.18985z" stroke-linecap="butt"/></g><g><path d="M162.20136,202.55778l-2.95246,21.30492" stroke-linecap="round"/><path d="M148.80923,218.38551c-0.04349,-2.90976 2.28008,-5.30385 5.18985,-5.34734c2.90976,-0.04349 5.30385,2.28008 5.34734,5.18984c0.04349,2.90976 -2.28008,5.30385 -5.18984,5.34734c-2.90976,0.04349 -5.30385,-2.28008 -5.34734,-5.18985z" stroke-linecap="butt"/></g><path d="M210.40485,223.36805l1.99309,-22.27185c0,0 9.43801,-1.68693 11.82037,3.02153c2.38236,4.70847 1.13018,13.79774 -2.35763,17.33462c-4.02611,4.08275 -11.45583,1.9157 -11.45583,1.9157z" stroke-linecap="round"/><g stroke-linecap="round"><path d="M167.17063,216.49439c0,0 -0.00564,-3.51136 1.13015,-4.58166c1.07037,-1.00866 3.56013,-1.65258 5.49997,-1.66618c1.93984,-0.0136 3.56673,0.58212 4.30928,1.5974c0.79918,1.09271 1.14464,3.3908 -1.12969,4.45149c-2.56136,1.19455 -9.8097,0.19894 -9.8097,0.19894z"/><path d="M177.63846,223.85323c0,0 -6.28431,-1.11568 -8.72094,-2.33513c-2.43663,-1.21945 -1.74883,-5.1545 -1.74883,-5.1545"/></g><g stroke-linecap="round"><path d="M232.59919,217.21249c0,0 -0.00564,-3.51137 1.13015,-4.58167c1.07037,-1.00866 3.56013,-1.65257 5.49997,-1.66617c1.93984,-0.0136 3.56673,0.58212 4.30928,1.5974c0.79918,1.09271 1.14464,3.3908 -1.12969,4.45149c-2.56136,1.19455 -9.8097,0.19895 -9.8097,0.19895z"/><path d="M243.06702,224.57134c0,0 -6.28431,-1.11568 -8.72094,-2.33513c-2.43663,-1.21945 -1.74883,-5.1545 -1.74883,-5.1545"/></g><path d="M304.928,224.66634c0,0 5.03281,0.67027 6.79201,-0.7507c1.7592,-1.42097 1.66746,-3.81212 -0.19316,-5.462c-1.86062,-1.64988 -4.78381,0.98197 -6.36236,-0.35102c-1.57855,-1.33299 -1.9686,-4.56173 0.2433,-6.10771c2.21189,-1.54598 6.90285,-0.79619 6.90285,-0.79619" stroke-linecap="round"/><g stroke-linecap="round"><path d="M185.68755,223.10752l-0.04365,-12.64679"/><path d="M186.71559,214.07904c0,0 3.03305,-2.66204 4.32111,-2.68129c1.59931,-0.0239 3.40788,0.55172 4.10646,2.40996c0.69858,1.85824 -0.16034,8.72477 -0.16034,8.72477"/></g><g><path d="M251.08952,231.77307l0.86512,-19.92903" stroke-linecap="round"/><path d="M252.04695,218.02102c-0.04739,-3.17064 2.48451,-5.77936 5.65515,-5.82675c3.17064,-0.04739 5.77936,2.4845 5.82675,5.65514c0.04739,3.17064 -2.4845,5.77937 -5.65514,5.82676c-3.17064,0.04739 -5.77937,-2.4845 -5.82676,-5.65515z" stroke-linecap="butt"/></g><g stroke-linecap="round"><path d="M273.66488,224.89386l1.65244,-25.61034"/><path d="M280.56933,210.25339l-11.67286,-2.87837"/></g><g stroke-linecap="round"><path d="M287.83181,200.11412l-0.3509,25.15476"/><path d="M288.02947,213.34009c0,0 6.2498,-1.18595 8.3083,1.47493c2.0585,2.66087 0.58591,10.02197 0.58591,10.02197"/></g><g stroke-linecap="round"><path d="M101.8715,202.5509l-1.70517,19.65084"/><path d="M112.52298,222.19876l1.33639,-20.00875"/><path d="M117.08634,211.4093c-4.08485,6.00008 -14.32522,2.03127 -14.32522,2.03127"/></g><path d="M122.71311,223.13675l1.29048,-10.92226" stroke-linecap="round"/></g></g><g><path d="M122.25944,204.94163c-0.02249,-1.50505 1.17936,-2.74337 2.6844,-2.76586c1.50505,-0.02249 2.74337,1.17936 2.76586,2.6844c0.02249,1.50505 -1.17936,2.74337 -2.6844,2.76586c-1.50505,0.02249 -2.74337,-1.17936 -2.76586,-2.6844z" fill="#ffffff" stroke="none" stroke-width="0.5" stroke-linecap="butt"/><g fill="none" stroke="#ffffff" stroke-width="6"><g><path d="M143.67046,202.83474l-2.95246,21.30492" stroke-linecap="round"/><path d="M130.27827,218.6625c-0.04349,-2.90976 2.28008,-5.30385 5.18985,-5.34734c2.90976,-0.04349 5.30385,2.28008 5.34734,5.18984c0.04349,2.90976 -2.28008,5.30385 -5.18984,5.34734c-2.90976,0.04349 -5.30385,-2.28008 -5.34734,-5.18985z" stroke-linecap="butt"/></g><g><path d="M162.20136,202.55778l-2.95246,21.30492" stroke-linecap="round"/><path d="M148.80923,218.38551c-0.04349,-2.90976 2.28008,-5.30385 5.18985,-5.34734c2.90976,-0.04349 5.30385,2.28008 5.34734,5.18984c0.04349,2.90976 -2.28008,5.30385 -5.18984,5.34734c-2.90976,0.04349 -5.30385,-2.28008 -5.34734,-5.18985z" stroke-linecap="butt"/></g><path d="M210.40485,223.36805l1.99309,-22.27185c0,0 9.43801,-1.68693 11.82037,3.02153c2.38236,4.70847 1.13018,13.79774 -2.35763,17.33462c-4.02611,4.08275 -11.45583,1.9157 -11.45583,1.9157z" stroke-linecap="round"/><g stroke-linecap="round"><path d="M167.17063,216.49439c0,0 -0.00564,-3.51136 1.13015,-4.58166c1.07037,-1.00866 3.56013,-1.65258 5.49997,-1.66618c1.93984,-0.0136 3.56673,0.58212 4.30928,1.5974c0.79918,1.09271 1.14464,3.3908 -1.12969,4.45149c-2.56136,1.19455 -9.8097,0.19894 -9.8097,0.19894z"/><path d="M177.63846,223.85323c0,0 -6.28431,-1.11568 -8.72094,-2.33513c-2.43663,-1.21945 -1.74883,-5.1545 -1.74883,-5.1545"/></g><g stroke-linecap="round"><path d="M232.59919,217.21249c0,0 -0.00564,-3.51137 1.13015,-4.58167c1.07037,-1.00866 3.56013,-1.65257 5.49997,-1.66617c1.93984,-0.0136 3.56673,0.58212 4.30928,1.5974c0.79918,1.09271 1.14464,3.3908 -1.12969,4.45149c-2.56136,1.19455 -9.8097,0.19895 -9.8097,0.19895z"/><path d="M243.06702,224.57134c0,0 -6.28431,-1.11568 -8.72094,-2.33513c-2.43663,-1.21945 -1.74883,-5.1545 -1.74883,-5.1545"/></g><path d="M304.928,224.66634c0,0 5.03281,0.67027 6.79201,-0.7507c1.7592,-1.42097 1.66746,-3.81212 -0.19316,-5.462c-1.86062,-1.64988 -4.78381,0.98197 -6.36236,-0.35102c-1.57855,-1.33299 -1.9686,-4.56173 0.2433,-6.10771c2.21189,-1.54598 6.90285,-0.79619 6.90285,-0.79619" stroke-linecap="round"/><g stroke-linecap="round"><path d="M185.68755,223.10752l-0.04365,-12.64679"/><path d="M186.71559,214.07904c0,0 3.03305,-2.66204 4.32111,-2.68129c1.59931,-0.0239 3.40788,0.55172 4.10646,2.40996c0.69858,1.85824 -0.16034,8.72477 -0.16034,8.72477"/></g><g><path d="M251.08952,231.77307l0.86512,-19.92903" stroke-linecap="round"/><path d="M252.04695,218.02102c-0.04739,-3.17064 2.48451,-5.77936 5.65515,-5.82675c3.17064,-0.04739 5.77936,2.4845 5.82675,5.65514c0.04739,3.17064 -2.4845,5.77937 -5.65514,5.82676c-3.17064,0.04739 -5.77937,-2.4845 -5.82676,-5.65515z" stroke-linecap="butt"/></g><g stroke-linecap="round"><path d="M273.66488,224.89386l1.65244,-25.61034"/><path d="M280.56933,210.25339l-11.67286,-2.87837"/></g><g stroke-linecap="round"><path d="M287.83181,200.11412l-0.3509,25.15476"/><path d="M288.02947,213.34009c0,0 6.2498,-1.18595 8.3083,1.47493c2.0585,2.66087 0.58591,10.02197 0.58591,10.02197"/></g><g stroke-linecap="round"><path d="M101.8715,202.5509l-1.70517,19.65084"/><path d="M112.52298,222.19876l1.33639,-20.00875"/><path d="M117.08634,211.4093c-4.08485,6.00008 -14.32522,2.03127 -14.32522,2.03127"/></g><path d="M122.71311,223.13675l1.29048,-10.92226" stroke-linecap="round"/></g></g></g></g></g></svg>