<svg version="1.1" xmlns="http://www.w3.org/2000/svg" xmlns:xlink="http://www.w3.org/1999/xlink" width="63.31044" height="63.31044" viewBox="0,0,63.31044,63.31044"><defs><radialGradient cx="240" cy="180" r="29.90522" gradientUnits="userSpaceOnUse" id="color-1"><stop offset="0" stop-color="#f5edda"/><stop offset="1" stop-color="#e6bd5c"/></radialGradient></defs><g transform="translate(-208.34478,-148.34478)"><g data-paper-data="{&quot;isPaintingLayer&quot;:true}" fill-rule="nonzero" stroke-linejoin="miter" stroke-miterlimit="10" stroke-dasharray="" stroke-dashoffset="0" style="mix-blend-mode: normal"><path d="M210.09478,209.90522v-59.81044h59.81044v59.81044z" fill="url(#color-1)" stroke="#ffffff" stroke-width="3.5" stroke-linecap="butt"/><g stroke="#000000"><path d="M224.16072,172.15583l-1.71429,6.07143l-2.78571,-4.71428l-2.21429,5l-2.5,-5.78572" fill="none" stroke-width="4" stroke-linecap="round"/><g fill="none" stroke-width="4" stroke-linecap="round"><path d="M227.16072,174.44154c1.25519,-0.92978 1.89484,-0.33969 2.78571,0.14286c0.89087,0.48255 0.64286,1.71428 0.64286,1.71428l-4.21429,0.28572c0,0 -0.46947,-1.21308 0.78572,-2.14286z"/><path d="M230.66072,179.01296c0,0 -0.66829,0.36682 -1.28572,0.42857c-0.61744,0.06175 -0.97168,0.09705 -1.57143,-0.14285c-0.59975,-0.2399 -0.97303,-0.40592 -1.28571,-1c-0.31267,-0.59408 -0.14286,-1.71428 -0.14286,-1.71428"/></g><g fill="none" stroke-width="4" stroke-linecap="round"><path d="M232.94643,171.01297l0.42857,8.07143"/><path d="M233.30358,174.5844c0,0 0.86184,-0.65987 1.5,-0.92857c0.63816,-0.2687 0.91559,-0.171 1.42857,0c0.51298,0.171 0.64812,0.21343 1,0.57143c0.46197,0.47002 0.86393,1.99702 0.5,3.21428c-0.14254,0.47677 -0.42799,0.85678 -1,1.21429c-0.57201,0.35751 -0.76767,0.25124 -1.28572,0.21429c-0.92935,-0.06628 -1.85714,-1 -1.85714,-1"/></g><path d="M246.66072,171.15583c0,0 -1.17869,-0.22807 -1.92857,-0.14285c-0.74989,0.08522 -0.84709,0.13281 -1.21428,0.5c-0.36719,0.36719 -0.55463,0.73131 -0.57143,1.28571c-0.0168,0.55439 0.11636,0.79548 0.5,1.07143c0.38364,0.27595 3.14563,1.11653 3.57143,2c0.34092,0.70736 0.2647,0.31087 0.28571,0.85714c0.02101,0.54627 0.03745,0.53137 -0.21428,0.85715c-0.25173,0.32577 -0.53417,0.54338 -0.92857,0.71429c-0.39441,0.17091 -0.72036,0.19132 -1.21429,0.21429c-0.49393,0.02298 -1.85714,-0.21429 -1.85714,-0.21429" fill="none" stroke-width="4" stroke-linecap="round"/><g fill="none" stroke-width="4" stroke-linecap="round"><path d="M255.08929,177.87011c0,0 -0.89869,0.09767 -1.14286,0c-0.24416,-0.09767 -0.58855,-0.35765 -0.64285,-0.78571c-0.29559,-2.33004 -0.21429,-6.07143 -0.21429,-6.07143"/><path d="M252.01786,172.65583l2.92857,-0.21429"/></g><g><path d="M250.08929,178.15583l-0.35714,-5.5" fill="none" stroke-width="4" stroke-linecap="round"/><path d="M248.83929,170.5844c0,-0.41422 0.33578,-0.75 0.75,-0.75c0.41422,0 0.75,0.33578 0.75,0.75c0,0.41422 -0.33578,0.75 -0.75,0.75c-0.41422,0 -0.75,-0.33578 -0.75,-0.75z" fill="#9966ff" stroke-width="2.5" stroke-linecap="butt"/></g><g fill="none" stroke-width="4" stroke-linecap="round"><path d="M257.23216,174.72726c0,0 -0.46949,-1.21308 0.78571,-2.14286c1.25519,-0.92978 1.89484,-0.33969 2.78571,0.14286c0.89087,0.48255 0.64285,1.71428 0.64285,1.71428l-4.21428,0.28572z"/><path d="M261.51786,177.15582c0,0 -0.66828,0.36682 -1.28571,0.42857c-0.61743,0.06175 -0.97168,0.09705 -1.57143,-0.14285c-0.59974,-0.2399 -0.97303,-0.40592 -1.28571,-1c-0.31268,-0.59408 -0.14286,-1.71428 -0.14286,-1.71428"/></g><g><path d="M263.875,169.79869l0.28571,5" fill="none" stroke-width="4" stroke-linecap="round"/><path d="M263.55357,176.94154c0,-0.41422 0.33578,-0.75 0.75,-0.75c0.41422,0 0.75,0.33578 0.75,0.75c0,0.41422 -0.33578,0.75 -0.75,0.75c-0.41422,0 -0.75,-0.33578 -0.75,-0.75z" fill="#9966ff" stroke-width="2.5" stroke-linecap="butt"/></g></g><g stroke="#e6bc5c"><path d="M224.16072,172.15583l-1.71429,6.07143l-2.78571,-4.71428l-2.21429,5l-2.5,-5.78572" fill="none" stroke-width="2.5" stroke-linecap="round"/><g fill="none" stroke-width="2.5" stroke-linecap="round"><path d="M227.16072,174.44154c1.25519,-0.92978 1.89484,-0.33969 2.78571,0.14286c0.89087,0.48255 0.64286,1.71428 0.64286,1.71428l-4.21429,0.28572c0,0 -0.46947,-1.21308 0.78572,-2.14286z"/><path d="M230.66072,179.01296c0,0 -0.66829,0.36682 -1.28572,0.42857c-0.61744,0.06175 -0.97168,0.09705 -1.57143,-0.14285c-0.59975,-0.2399 -0.97303,-0.40592 -1.28571,-1c-0.31267,-0.59408 -0.14286,-1.71428 -0.14286,-1.71428"/></g><g fill="none" stroke-width="2.5" stroke-linecap="round"><path d="M232.94643,171.01297l0.42857,8.07143"/><path d="M233.30358,174.5844c0,0 0.86184,-0.65987 1.5,-0.92857c0.63816,-0.2687 0.91559,-0.171 1.42857,0c0.51298,0.171 0.64812,0.21343 1,0.57143c0.46197,0.47002 0.86393,1.99702 0.5,3.21428c-0.14254,0.47677 -0.42799,0.85678 -1,1.21429c-0.57201,0.35751 -0.76767,0.25124 -1.28572,0.21429c-0.92935,-0.06628 -1.85714,-1 -1.85714,-1"/></g><path d="M246.66072,171.15583c0,0 -1.17869,-0.22807 -1.92857,-0.14285c-0.74989,0.08522 -0.84709,0.13281 -1.21428,0.5c-0.36719,0.36719 -0.55463,0.73131 -0.57143,1.28571c-0.0168,0.55439 0.11636,0.79548 0.5,1.07143c0.38364,0.27595 3.14563,1.11653 3.57143,2c0.34092,0.70736 0.2647,0.31087 0.28571,0.85714c0.02101,0.54627 0.03745,0.53137 -0.21428,0.85715c-0.25173,0.32577 -0.53417,0.54338 -0.92857,0.71429c-0.39441,0.17091 -0.72036,0.19132 -1.21429,0.21429c-0.49393,0.02298 -1.85714,-0.21429 -1.85714,-0.21429" fill="none" stroke-width="2.5" stroke-linecap="round"/><g fill="none" stroke-width="2.5" stroke-linecap="round"><path d="M255.08929,177.87011c0,0 -0.89869,0.09767 -1.14286,0c-0.24416,-0.09767 -0.58855,-0.35765 -0.64285,-0.78571c-0.29559,-2.33004 -0.21429,-6.07143 -0.21429,-6.07143"/><path d="M252.01786,172.65583l2.92857,-0.21429"/></g><g><path d="M250.08929,178.15583l-0.35714,-5.5" fill="none" stroke-width="2.5" stroke-linecap="round"/><path d="M248.83929,170.5844c0,-0.41422 0.33578,-0.75 0.75,-0.75c0.41422,0 0.75,0.33578 0.75,0.75c0,0.41422 -0.33578,0.75 -0.75,0.75c-0.41422,0 -0.75,-0.33578 -0.75,-0.75z" fill="#9966ff" stroke-width="1" stroke-linecap="butt"/></g><g fill="none" stroke-width="2.5" stroke-linecap="round"><path d="M257.23216,174.72726c0,0 -0.46949,-1.21308 0.78571,-2.14286c1.25519,-0.92978 1.89484,-0.33969 2.78571,0.14286c0.89087,0.48255 0.64285,1.71428 0.64285,1.71428l-4.21428,0.28572z"/><path d="M261.51786,177.15582c0,0 -0.66828,0.36682 -1.28571,0.42857c-0.61743,0.06175 -0.97168,0.09705 -1.57143,-0.14285c-0.59974,-0.2399 -0.97303,-0.40592 -1.28571,-1c-0.31268,-0.59408 -0.14286,-1.71428 -0.14286,-1.71428"/></g><g><path d="M263.875,169.79869l0.28571,5" fill="none" stroke-width="2.5" stroke-linecap="round"/><path d="M263.55357,176.94154c0,-0.41422 0.33578,-0.75 0.75,-0.75c0.41422,0 0.75,0.33578 0.75,0.75c0,0.41422 -0.33578,0.75 -0.75,0.75c-0.41422,0 -0.75,-0.33578 -0.75,-0.75z" fill="#9966ff" stroke-width="1" stroke-linecap="butt"/></g></g><g><path d="M224.16072,172.15583l-1.71429,6.07143l-2.78571,-4.71428l-2.21429,5l-2.5,-5.78572" fill="none" stroke="#ffd166" stroke-width="1.5" stroke-linecap="round"/><g fill="none" stroke="#ffd166" stroke-width="1.5" stroke-linecap="round"><path d="M227.16072,174.44154c1.25519,-0.92978 1.89484,-0.33969 2.78571,0.14286c0.89087,0.48255 0.64286,1.71428 0.64286,1.71428l-4.21429,0.28572c0,0 -0.46947,-1.21308 0.78572,-2.14286z"/><path d="M230.66072,179.01296c0,0 -0.66829,0.36682 -1.28572,0.42857c-0.61744,0.06175 -0.97168,0.09705 -1.57143,-0.14285c-0.59975,-0.2399 -0.97303,-0.40592 -1.28571,-1c-0.31267,-0.59408 -0.14286,-1.71428 -0.14286,-1.71428"/></g><g fill="none" stroke="#ffd166" stroke-width="1.5" stroke-linecap="round"><path d="M232.94643,171.01297l0.42857,8.07143"/><path d="M233.30358,174.5844c0,0 0.86184,-0.65987 1.5,-0.92857c0.63816,-0.2687 0.91559,-0.171 1.42857,0c0.51298,0.171 0.64812,0.21343 1,0.57143c0.46197,0.47002 0.86393,1.99702 0.5,3.21428c-0.14254,0.47677 -0.42799,0.85678 -1,1.21429c-0.57201,0.35751 -0.76767,0.25124 -1.28572,0.21429c-0.92935,-0.06628 -1.85714,-1 -1.85714,-1"/></g><path d="M246.66072,171.15583c0,0 -1.17869,-0.22807 -1.92857,-0.14285c-0.74989,0.08522 -0.84709,0.13281 -1.21428,0.5c-0.36719,0.36719 -0.55463,0.73131 -0.57143,1.28571c-0.0168,0.55439 0.11636,0.79548 0.5,1.07143c0.38364,0.27595 3.14563,1.11653 3.57143,2c0.34092,0.70736 0.2647,0.31087 0.28571,0.85714c0.02101,0.54627 0.03745,0.53137 -0.21428,0.85715c-0.25173,0.32577 -0.53417,0.54338 -0.92857,0.71429c-0.39441,0.17091 -0.72036,0.19132 -1.21429,0.21429c-0.49393,0.02298 -1.85714,-0.21429 -1.85714,-0.21429" fill="none" stroke="#ffd166" stroke-width="1.5" stroke-linecap="round"/><g fill="none" stroke="#ffd166" stroke-width="1.5" stroke-linecap="round"><path d="M255.08929,177.87011c0,0 -0.89869,0.09767 -1.14286,0c-0.24416,-0.09767 -0.58855,-0.35765 -0.64285,-0.78571c-0.29559,-2.33004 -0.21429,-6.07143 -0.21429,-6.07143"/><path d="M252.01786,172.65583l2.92857,-0.21429"/></g><g><path d="M250.08929,178.15583l-0.35714,-5.5" fill="none" stroke="#ffd166" stroke-width="1.5" stroke-linecap="round"/><path d="M248.83929,170.5844c0,-0.41422 0.33578,-0.75 0.75,-0.75c0.41422,0 0.75,0.33578 0.75,0.75c0,0.41422 -0.33578,0.75 -0.75,0.75c-0.41422,0 -0.75,-0.33578 -0.75,-0.75z" fill="#ffd166" stroke="none" stroke-width="0.5" stroke-linecap="butt"/></g><g fill="none" stroke="#ffd166" stroke-width="1.5" stroke-linecap="round"><path d="M257.23216,174.72726c0,0 -0.46949,-1.21308 0.78571,-2.14286c1.25519,-0.92978 1.89484,-0.33969 2.78571,0.14286c0.89087,0.48255 0.64285,1.71428 0.64285,1.71428l-4.21428,0.28572z"/><path d="M261.51786,177.15582c0,0 -0.66828,0.36682 -1.28571,0.42857c-0.61743,0.06175 -0.97168,0.09705 -1.57143,-0.14285c-0.59974,-0.2399 -0.97303,-0.40592 -1.28571,-1c-0.31268,-0.59408 -0.14286,-1.71428 -0.14286,-1.71428"/></g><g><path d="M263.875,169.79869l0.28571,5" fill="none" stroke="#ffd166" stroke-width="1.5" stroke-linecap="round"/><path d="M263.55357,176.94154c0,-0.41422 0.33578,-0.75 0.75,-0.75c0.41422,0 0.75,0.33578 0.75,0.75c0,0.41422 -0.33578,0.75 -0.75,0.75c-0.41422,0 -0.75,-0.33578 -0.75,-0.75z" fill="#ffd166" stroke="none" stroke-width="0.5" stroke-linecap="butt"/></g></g><g fill="#000000" stroke="none" stroke-width="0.5" stroke-linecap="butt"><path d="M233.20011,195.146c0,1.25 -1.25,1.25 -1.25,1.25h-0.88889c-2.8543,0 -5.74858,0.08326 -8.52539,-0.59288c0,0 -1.21268,-0.30317 -0.90951,-1.51585c0.30317,-1.21268 1.51585,-0.90951 1.51585,-0.90951c2.54857,0.65794 5.29044,0.51823 7.91905,0.51823h0.88889c0,0 1.25,0 1.25,1.25z"/><path d="M236.87146,195.34172c-1.13559,0.36538 -1.54298,-0.7753 -1.54298,-0.7753c-0.92368,-2.58842 -2.21237,-4.8733 -1.72335,-7.73176c0.95915,-5.60654 7.73531,-6.28587 10.88578,-2.2357c1.67179,2.1492 1.2252,5.19398 1.00794,7.72794c-1.55663,3.69174 -4.69564,5.68539 -8.37669,3.28759zM237.18196,192.43229c0.48582,0.06423 0.81998,0.44613 0.81998,0.44613l0.55388,0.68798c1.93842,1.53457 3.69923,0.17223 4.5122,-1.82352c0.10689,-1.65684 0.60726,-4.22227 -0.54762,-5.6054c-1.80318,-2.15957 -5.97945,-2.56994 -6.44755,1.09763c-0.24646,1.93106 0.42568,3.51054 1.10911,5.19718z"/><path d="M258.42233,188.59044c0,1.25 -1.25,1.25 -1.25,1.25l-1.45245,-0.00426c-0.39825,0.06638 -0.99043,0.18032 -1.68247,0.29586c0.16228,1.59423 0.26669,3.18121 0.27381,4.68063c0,0 0,1.25 -1.25,1.25c-1.25,0 -1.25,-1.25 -1.25,-1.25c0.00803,-1.38637 -0.08552,-2.86644 -0.23697,-4.35948c-1.89001,0.15567 -3.77255,0.04279 -4.39813,-0.94946c-0.43209,-0.68536 0.28272,-1.59826 0.5025,-2.37807c0.49549,-1.75801 1.38059,-3.01222 2.55465,-4.08646l-0.14813,-0.11851l0.88168,-1.10209c0.22886,-0.29115 0.58424,-0.47815 0.9833,-0.47815c0.69036,0 1.25,0.55964 1.25,1.25v1.47802c0.18552,1.11432 0.36721,2.28373 0.52817,3.4738c0.59245,-0.04363 1.18583,-0.09763 1.78539,-0.19756l1.65866,-0.00426c0,0 1.25,0 1.25,1.25zM251.24724,187.7599c-0.08183,-0.58947 -0.16867,-1.17329 -0.25778,-1.74635c-0.17529,0.21166 -0.34745,0.44226 -0.48477,0.70699c-0.17269,0.33293 -0.31035,0.88865 -0.51176,1.26198c0.35578,-0.07945 0.75885,-0.14638 0.98825,-0.18293c0.08884,-0.01416 0.17752,-0.02734 0.26606,-0.03968z"/></g></g></g></svg>