<svg version="1.1" xmlns="http://www.w3.org/2000/svg" xmlns:xlink="http://www.w3.org/1999/xlink" width="279.56337" height="109.23994" viewBox="0,0,279.56337,109.23994"><g transform="translate(-100.21832,-125.38007)"><g data-paper-data="{&quot;isPaintingLayer&quot;:true}" fill-rule="nonzero" stroke-linecap="butt" stroke-linejoin="miter" stroke-miterlimit="10" stroke-dasharray="" stroke-dashoffset="0" style="mix-blend-mode: normal"><g fill="#000000" font-family="Sans Serif" font-weight="normal" font-size="40" text-anchor="start"><text transform="translate(107.25729,171.47827) rotate(-5.9825) scale(0.85359,0.85359)" font-size="40" xml:space="preserve" fill="#000000" fill-rule="nonzero" stroke="#ffffff" stroke-width="7" stroke-linecap="butt" stroke-linejoin="miter" stroke-miterlimit="10" stroke-dasharray="" stroke-dashoffset="0" font-family="Sans Serif" font-weight="normal" text-anchor="start" style="mix-blend-mode: normal"><tspan x="0" dy="0">LG's</tspan></text><text transform="translate(107.25729,171.47827) rotate(-5.9825) scale(0.85359,0.85359)" font-size="40" xml:space="preserve" fill="#000000" fill-rule="nonzero" stroke="#000000" stroke-width="2" stroke-linecap="butt" stroke-linejoin="miter" stroke-miterlimit="10" stroke-dasharray="" stroke-dashoffset="0" font-family="Sans Serif" font-weight="normal" text-anchor="start" style="mix-blend-mode: normal"><tspan x="0" dy="0">LG's</tspan></text></g><g fill="#ff0000" font-family="Sans Serif" font-weight="normal" font-size="40" text-anchor="start"><text transform="translate(133.27778,192.88427) scale(1.03898,0.92187)" font-size="40" xml:space="preserve" fill="#ff0000" fill-rule="nonzero" stroke="#ffffff" stroke-width="6" stroke-linecap="butt" stroke-linejoin="miter" stroke-miterlimit="10" stroke-dasharray="" stroke-dashoffset="0" font-family="Sans Serif" font-weight="normal" text-anchor="start" style="mix-blend-mode: normal"><tspan x="0" dy="0">Remastered</tspan></text><text transform="translate(133.27778,192.88427) scale(1.03898,0.92187)" font-size="40" xml:space="preserve" fill="#ff0000" fill-rule="nonzero" stroke="#800000" stroke-width="2" stroke-linecap="butt" stroke-linejoin="miter" stroke-miterlimit="10" stroke-dasharray="" stroke-dashoffset="0" font-family="Sans Serif" font-weight="normal" text-anchor="start" style="mix-blend-mode: normal"><tspan x="0" dy="0">Remastered</tspan></text></g><g fill="#00ffa6"><g stroke="#ffffff" stroke-width="3.5"><path d="M184.55116,205.08526c-3.86148,2.17211 -9.58881,-1.7774 -13.18545,0.4968c-3.4775,2.19887 -6.42366,9.71338 -5.91176,13.87109c0.92112,7.4812 19.26492,3.05111 17.28838,11.21535c-0.70944,2.93041 -7.41602,1.82222 -9.29597,1.45395c-7.11859,-1.39445 -15.45297,-6.38284 -15.06543,-14.39413c0.31768,-6.56697 4.96116,-19.21668 12.9083,-19.27403c4.4324,-0.032 11.08945,-3.35982 13.2886,0.48869c1.04235,0.61518 1.74161,1.74985 1.74161,3.04783c0,1.15088 -0.54975,2.17338 -1.40097,2.81919c-0.10887,0.1054 -0.23027,0.1982 -0.36729,0.27528z"/><path d="M192.38724,225.23094l0.02726,0.02336l0.02839,0.0063h0.03904l0.28494,0.07124h4.0804l0.15318,-0.03829l0.40162,-0.13388l0.22282,-0.01713l0.20197,-0.09567l0.29981,-0.05997l0.05711,-0.0204l0.16968,-0.14544l0.70731,-0.35366l0.35206,-0.07822l0.32025,-0.32026l0.3211,-0.19267l0.23452,-0.31268l0.19756,-0.16052l0.13097,-0.21826l0.17823,-0.17822l-0.18141,-1.0885l-0.51809,-0.93254l-0.08001,-0.12l-0.03524,-0.03526l-0.23911,-0.15939l-0.06759,-0.07435l-0.09262,-0.03898l-0.45219,-0.33916l-0.42208,-0.21103l-0.10529,-0.09025l-0.13267,-0.04039l-0.33886,-0.20332h-2.11515l-1.83073,0.15255l-0.86158,0.1436l-0.36312,0.07262l-0.45135,0.33853l-0.07284,0.03067l-0.34429,0.51643l-0.19783,0.17985l-0.1864,0.39351l-0.08277,0.37243v2.0471l0.09165,0.45822l0.04389,0.17558c0.23735,0.19702 0.44851,0.4245 0.6275,0.67643zM186.11747,229.07032l-0.01034,-0.01723l-0.06216,-0.01749l-0.41334,-0.77504l-0.45192,-0.75318l0.01699,-0.0623l-0.00946,-0.01774l-0.35366,-1.4146v-0.08624l-0.0369,-0.07793l-0.17683,-0.88413l0.01675,-0.35184l-0.08543,-0.34173v-2.95211l-0.02204,-0.03306l0.02204,-0.09915v-0.09854l0.19708,-0.78833l0.17628,-0.79324l0.04408,-0.08813l0.02463,-0.09855l0.03448,-0.01971l0.03867,-0.07732l0.08396,-0.41971l0.06091,-0.1286l-0.03153,-0.1156l0.40987,-0.6831l0.34102,-0.71993l0.11366,-0.03788l0.07322,-0.12201l0.28285,-0.28286l0.51305,-0.76958l0.51379,-0.46707l0.46707,-0.51379l0.44881,-0.29921l0.62877,-0.47159l0.29626,-0.12474l0.24408,-0.20921l0.7073,-0.35365l0.46112,-0.10247l0.42688,-0.2022l0.88413,-0.17683l0.05848,0.00279l0.05369,-0.02334l1.06096,-0.17683l0.14757,0.0118l0.14013,-0.04772l2.12191,-0.17682l0.14811,0.02419l0.14558,-0.0364h2.95212l0.03306,-0.02202l0.09915,0.02202h0.09854l0.78834,0.19709l0.79325,0.17627l0.08813,0.04407l0.09854,0.02462l0.01971,0.03449l0.14727,0.07363l0.10529,0.09024l0.13266,0.04039l0.76766,0.46059l0.58584,0.29291l0.24406,0.2092l0.29626,0.12474l0.62876,0.47158l0.44881,0.29921l0.23695,0.26063l0.30203,0.18124l0.53047,0.53048l0.18124,0.30203l0.26063,0.23695l0.35365,0.53047l0.04913,0.13756l0.09978,0.10666l0.88413,1.59143l0.15635,0.58274l0.24057,0.55334l0.35366,2.12191l-0.02357,0.29463l0.0717,0.28675v1.23778l-0.13789,0.55151l-0.0436,0.56683l-0.10386,0.31157l0.01046,0.03833l-0.05227,0.0871l-0.03115,0.09349l-0.43627,0.68555l-0.41809,0.69679l-0.06967,0.06969l-0.05453,0.08568l-0.03896,0.0078l-0.72008,0.72007l-0.24123,0.32164l-0.0022,0.03965l-0.07713,0.06611l-0.05913,0.07883l-0.63067,0.51242l-0.05815,0.04985l-0.87747,0.87747l-0.01723,0.01034l-0.01748,0.06215l-0.77502,0.41335l-0.75319,0.45192l-0.0623,-0.01699l-0.01774,0.00947l-0.33067,0.08267l-0.16315,0.08156l-0.34728,0.23152l-0.64712,0.23112l-0.62101,0.29415l-0.66823,0.13363l-0.3216,0.1072l-0.13826,0.01064l-0.12235,0.06526l-0.7073,0.17683h-0.43536l-0.42237,0.1056h-4.95113l-0.42236,-0.1056h-0.43537l-0.7073,-0.17683l-0.34365,-0.18328l-0.38019,-0.0845l-0.07073,-0.03536l-0.63658,-0.14146l-0.08814,-0.04408l-0.09854,-0.02463l-0.01971,-0.03449l-1.20823,-0.60411l-1.38388,-1.18619l-0.01732,-0.31202z"/><path d="M217.44079,219.71677c-0.02659,1.71511 2.11058,11.98082 -3.53652,11.98082c-2.34844,0 -3.4576,-1.67417 -3.53652,-3.53652c-0.31495,-7.43272 0.65167,-14.56771 0.88413,-21.9352c0.09698,-3.07373 -2.18137,-7.68705 0.48869,-9.21281c0.61518,-1.04235 1.74985,-1.74161 3.04783,-1.74161c1.95317,0 3.53652,1.58335 3.53652,3.53652c0,0.29227 -0.03545,0.57626 -0.10231,0.8479c1.85988,5.69476 -0.69396,14.39578 -0.78182,20.06092z"/><path d="M228.75765,219.71677c-0.02659,1.71511 2.11058,11.98082 -3.53652,11.98082c-2.34844,0 -3.4576,-1.67417 -3.53652,-3.53652c-0.31495,-7.43272 0.65167,-14.56771 0.88413,-21.9352c0.09698,-3.07373 -2.18137,-7.68705 0.48869,-9.21281c0.61518,-1.04235 1.74985,-1.74161 3.04783,-1.74161c1.95317,0 3.53652,1.58335 3.53652,3.53652c0,0.29227 -0.03545,0.57626 -0.10231,0.8479c1.85988,5.69476 -0.69396,14.39578 -0.78182,20.06092z"/><path d="M233.80784,212.95034c2.90165,-2.90163 11.91229,-4.61782 14.36007,-0.02821c1.44757,2.71419 1.14065,7.33611 -1.71106,8.98654c-2.53636,1.46791 -9.30072,-0.09194 -7.5488,2.68039c2.93798,4.64924 13.30846,-4.77163 15.76688,1.37443c2.00867,5.02169 -5.57663,5.70835 -8.44186,6.05219c-9.06854,1.08825 -15.1767,-1.71115 -15.1767,-10.97573c-0.22658,-0.46638 -0.35366,-0.99004 -0.35366,-1.54338c0,-0.84491 0.29629,-1.62063 0.79065,-2.2289c0.57335,-1.58651 1.28609,-3.28897 2.31447,-4.31736z"/><path d="M275.79333,215.07593c-1.1794,2.06394 -2.93776,2.87038 -4.76148,3.31861c-3.72472,0.91548 -7.72206,0.3368 -7.61633,5.9256c0.09445,4.99271 11.74405,-2.43829 12.69594,4.22489c0.46312,3.24185 -2.43772,4.19454 -4.73875,4.21349c-5.42275,0.04466 -10.99535,0.6832 -14.05767,-4.42065c-4.27558,-7.12598 1.48024,-14.59266 8.33843,-16.13871c1.98572,-0.44764 7.31671,-2.0638 8.39826,-0.17109z"/><path d="M288.00118,202.61155c2.35847,0.36772 5.82844,0.01664 5.82844,3.7999c0,3.14412 -3.04163,3.73275 -6.4024,3.51514c0.02696,5.23234 0.01605,10.53717 0.03667,15.58521c0.00512,1.25319 0.77976,3.37249 -0.26524,4.41751c-8.58805,8.58807 -6.98113,-13.68357 -6.98462,-14.49973c-0.00954,-2.22421 -0.03209,-4.44869 -0.04711,-6.6731c-0.20308,-0.03721 -0.38958,-0.06914 -0.55714,-0.0943c-2.3467,-0.35252 -5.84855,0.91238 -7.0259,-1.14798c-1.04235,-0.61518 -1.74162,-1.74985 -1.74162,-3.04783c0,-1.95317 1.58335,-3.53652 3.53652,-3.53652c0.39038,0 0.76598,0.06324 1.11713,0.18006c1.44211,-0.2873 3.03528,-0.22212 4.67999,0.00227c0.00932,-0.70918 0.02182,-1.41832 0.03814,-2.12742v0v0c0,-0.03922 0.00063,-0.07827 0.00191,-0.11717c0.06182,-1.89892 1.62065,-3.41935 3.53462,-3.41935c1.29519,0 2.42777,0.69626 3.04386,1.7349c0.26142,0.33058 0.4212,0.77283 0.4747,1.44288c0.01189,0.11796 0.01797,0.23763 0.01797,0.35872c0.02708,1.15773 0.04942,2.33217 0.06786,3.51909c0.21726,0.03833 0.43278,0.07439 0.64628,0.10769z"/><g><path d="M302.40567,212.95402c0.02477,0.04401 0.04755,0.10592 0.06844,0.18442c0.23906,0.47648 0.37363,1.01445 0.37363,1.58384c0,0.39572 -0.065,0.77625 -0.18489,1.13152c0.04524,4.82162 -0.55444,13.8423 -0.96448,14.25234c-0.84005,0.84005 -1.90644,1.76826 -3.09445,1.76826c-1.18802,0 -2.2544,-0.92821 -3.09445,-1.76826c-0.42962,-0.42962 -0.39324,-1.16267 -0.44207,-1.76826c-0.34198,-4.2406 0.31394,-9.36858 0.7073,-13.6156c0,-0.13038 0.00706,-0.25912 0.02081,-0.38585c0.19223,-1.77167 1.69291,-3.15068 3.51571,-3.15068c1.15089,0 2.17338,0.54976 2.81918,1.40097c0.1054,0.10888 0.1982,0.23027 0.27528,0.36729z"/><path d="M296.65882,205.70415c0,-1.95317 1.58335,-3.53652 3.53652,-3.53652c1.95317,0 3.53652,1.58336 3.53652,3.53652c0,1.95317 -1.58335,3.53652 -3.53652,3.53652c-1.95317,0 -3.53652,-1.58335 -3.53652,-3.53652z"/></g><path d="M313.51303,225.23094l0.02726,0.02336l0.02839,0.0063h0.03904l0.28494,0.07124h4.0804l0.15317,-0.03829l0.40163,-0.13388l0.22282,-0.01713l0.20196,-0.09567l0.29981,-0.05997l0.05712,-0.0204l0.16968,-0.14544l0.70731,-0.35366l0.35205,-0.07822l0.32026,-0.32026l0.3211,-0.19267l0.23451,-0.31268l0.19755,-0.16052l0.13097,-0.21826l0.17822,-0.17822l-0.18141,-1.0885l-0.51807,-0.93254l-0.08001,-0.12l-0.03524,-0.03526l-0.23911,-0.15939l-0.06759,-0.07435l-0.09262,-0.03898l-0.45219,-0.33916l-0.42208,-0.21103l-0.10529,-0.09025l-0.13266,-0.04039l-0.33887,-0.20332h-2.11515l-1.83073,0.15255l-0.86158,0.1436l-0.36311,0.07262l-0.45135,0.33853l-0.07286,0.03067l-0.34429,0.51643l-0.19783,0.17985l-0.1864,0.39351l-0.08276,0.37243v2.0471l0.09165,0.45822l0.04389,0.17558c0.23735,0.19702 0.44851,0.4245 0.6275,0.67643zM307.24325,229.07032l-0.01034,-0.01723l-0.06216,-0.01749l-0.41335,-0.77504l-0.45193,-0.75318l0.01699,-0.0623l-0.00945,-0.01774l-0.35365,-1.4146v-0.08624l-0.03692,-0.07793l-0.17683,-0.88413l0.01675,-0.35184l-0.08543,-0.34173v-2.95211l-0.02204,-0.03306l0.02204,-0.09915v-0.09854l0.19709,-0.78833l0.17627,-0.79324l0.04408,-0.08813l0.02464,-0.09855l0.03449,-0.01971l0.03866,-0.07732l0.08396,-0.41971l0.06092,-0.1286l-0.03153,-0.1156l0.40986,-0.6831l0.34102,-0.71993l0.11368,-0.03788l0.07321,-0.12201l0.28286,-0.28286l0.51305,-0.76958l0.51378,-0.46707l0.46708,-0.51379l0.44881,-0.29921l0.62877,-0.47159l0.29626,-0.12474l0.24408,-0.20921l0.70731,-0.35365l0.46112,-0.10247l0.42688,-0.2022l0.88413,-0.17683l0.05848,0.00279l0.05369,-0.02334l1.06095,-0.17683l0.14758,0.0118l0.14013,-0.04772l2.12191,-0.17682l0.14811,0.02419l0.14559,-0.0364h2.95212l0.03306,-0.02202l0.09916,0.02202h0.09855l0.78833,0.19709l0.79325,0.17627l0.08814,0.04407l0.09855,0.02462l0.0197,0.03449l0.14727,0.07363l0.10529,0.09024l0.13266,0.04039l0.76767,0.46059l0.58583,0.29291l0.24408,0.2092l0.29626,0.12474l0.62876,0.47158l0.44881,0.29921l0.23695,0.26063l0.30203,0.18124l0.53048,0.53048l0.18124,0.30203l0.26063,0.23695l0.35366,0.53047l0.04913,0.13756l0.09978,0.10666l0.88413,1.59143l0.15636,0.58274l0.24057,0.55334l0.35365,2.12191l-0.02356,0.29463l0.07169,0.28675v1.23778l-0.13788,0.55151l-0.0436,0.56683l-0.10386,0.31157l0.01046,0.03833l-0.05226,0.0871l-0.03115,0.09349l-0.43626,0.68555l-0.41809,0.69679l-0.06966,0.06969l-0.05453,0.08568l-0.03895,0.0078l-0.72008,0.72007l-0.24124,0.32164l-0.00219,0.03965l-0.07713,0.06611l-0.05911,0.07883l-0.63067,0.51242l-0.05816,0.04985l-0.87748,0.87747l-0.01723,0.01034l-0.01749,0.06215l-0.77502,0.41335l-0.75318,0.45192l-0.0623,-0.01699l-0.01774,0.00947l-0.33067,0.08267l-0.16315,0.08156l-0.34728,0.23152l-0.64713,0.23112l-0.62101,0.29415l-0.66823,0.13363l-0.3216,0.1072l-0.13826,0.01064l-0.12234,0.06526l-0.70731,0.17683h-0.43536l-0.42237,0.1056h-4.95112l-0.42237,-0.1056h-0.43538l-0.70731,-0.17683l-0.34365,-0.18328l-0.38019,-0.0845l-0.07073,-0.03536l-0.63657,-0.14146l-0.08814,-0.04408l-0.09854,-0.02463l-0.0197,-0.03449l-1.20823,-0.60411l-1.38389,-1.18619l-0.01732,-0.31202z"/><path d="M335.20688,210.65528c0.63069,0.249 1.1896,0.38362 1.69843,0.43377c2.71533,0.26763 4.00429,-1.87041 7.16375,-1.87041c7.92386,0 11.20951,4.97156 12.71059,12.17961c0.27626,1.32661 1.51801,5.73908 0.26524,6.93964c-8.44495,8.09307 -4.80118,-12.07639 -12.38795,-12.02417c-7.20231,0.04958 -5.30799,8.80028 -5.38306,13.08513c-0.0261,1.48911 -2.09922,3.94076 -3.53652,3.53652c-6.11054,-1.71859 -3.73435,-10.22326 -3.89017,-15.13253c-0.04253,-1.33989 -0.95657,-4.68111 0.31186,-5.40593z"/></g><g stroke="#73ffff" stroke-width="1.5"><path d="M184.55116,205.08526c-3.86148,2.17211 -9.58881,-1.7774 -13.18545,0.4968c-3.4775,2.19887 -6.42366,9.71338 -5.91176,13.87109c0.92112,7.4812 19.26492,3.05111 17.28838,11.21535c-0.70944,2.93041 -7.41602,1.82222 -9.29597,1.45395c-7.11859,-1.39445 -15.45297,-6.38284 -15.06543,-14.39413c0.31768,-6.56697 4.96116,-19.21668 12.9083,-19.27403c4.4324,-0.032 11.08945,-3.35982 13.2886,0.48869c1.04235,0.61518 1.74161,1.74985 1.74161,3.04783c0,1.15088 -0.54975,2.17338 -1.40097,2.81919c-0.10887,0.1054 -0.23027,0.1982 -0.36729,0.27528z"/><path d="M192.38724,225.23094l0.02726,0.02336l0.02839,0.0063h0.03904l0.28494,0.07124h4.0804l0.15318,-0.03829l0.40162,-0.13388l0.22282,-0.01713l0.20197,-0.09567l0.29981,-0.05997l0.05711,-0.0204l0.16968,-0.14544l0.70731,-0.35366l0.35206,-0.07822l0.32025,-0.32026l0.3211,-0.19267l0.23452,-0.31268l0.19756,-0.16052l0.13097,-0.21826l0.17823,-0.17822l-0.18141,-1.0885l-0.51809,-0.93254l-0.08001,-0.12l-0.03524,-0.03526l-0.23911,-0.15939l-0.06759,-0.07435l-0.09262,-0.03898l-0.45219,-0.33916l-0.42208,-0.21103l-0.10529,-0.09025l-0.13267,-0.04039l-0.33886,-0.20332h-2.11515l-1.83073,0.15255l-0.86158,0.1436l-0.36312,0.07262l-0.45135,0.33853l-0.07284,0.03067l-0.34429,0.51643l-0.19783,0.17985l-0.1864,0.39351l-0.08277,0.37243v2.0471l0.09165,0.45822l0.04389,0.17558c0.23735,0.19702 0.44851,0.4245 0.6275,0.67643zM186.11747,229.07032l-0.01034,-0.01723l-0.06216,-0.01749l-0.41334,-0.77504l-0.45192,-0.75318l0.01699,-0.0623l-0.00946,-0.01774l-0.35366,-1.4146v-0.08624l-0.0369,-0.07793l-0.17683,-0.88413l0.01675,-0.35184l-0.08543,-0.34173v-2.95211l-0.02204,-0.03306l0.02204,-0.09915v-0.09854l0.19708,-0.78833l0.17628,-0.79324l0.04408,-0.08813l0.02463,-0.09855l0.03448,-0.01971l0.03867,-0.07732l0.08396,-0.41971l0.06091,-0.1286l-0.03153,-0.1156l0.40987,-0.6831l0.34102,-0.71993l0.11366,-0.03788l0.07322,-0.12201l0.28285,-0.28286l0.51305,-0.76958l0.51379,-0.46707l0.46707,-0.51379l0.44881,-0.29921l0.62877,-0.47159l0.29626,-0.12474l0.24408,-0.20921l0.7073,-0.35365l0.46112,-0.10247l0.42688,-0.2022l0.88413,-0.17683l0.05848,0.00279l0.05369,-0.02334l1.06096,-0.17683l0.14757,0.0118l0.14013,-0.04772l2.12191,-0.17682l0.14811,0.02419l0.14558,-0.0364h2.95212l0.03306,-0.02202l0.09915,0.02202h0.09854l0.78834,0.19709l0.79325,0.17627l0.08813,0.04407l0.09854,0.02462l0.01971,0.03449l0.14727,0.07363l0.10529,0.09024l0.13266,0.04039l0.76766,0.46059l0.58584,0.29291l0.24406,0.2092l0.29626,0.12474l0.62876,0.47158l0.44881,0.29921l0.23695,0.26063l0.30203,0.18124l0.53047,0.53048l0.18124,0.30203l0.26063,0.23695l0.35365,0.53047l0.04913,0.13756l0.09978,0.10666l0.88413,1.59143l0.15635,0.58274l0.24057,0.55334l0.35366,2.12191l-0.02357,0.29463l0.0717,0.28675v1.23778l-0.13789,0.55151l-0.0436,0.56683l-0.10386,0.31157l0.01046,0.03833l-0.05227,0.0871l-0.03115,0.09349l-0.43627,0.68555l-0.41809,0.69679l-0.06967,0.06969l-0.05453,0.08568l-0.03896,0.0078l-0.72008,0.72007l-0.24123,0.32164l-0.0022,0.03965l-0.07713,0.06611l-0.05913,0.07883l-0.63067,0.51242l-0.05815,0.04985l-0.87747,0.87747l-0.01723,0.01034l-0.01748,0.06215l-0.77502,0.41335l-0.75319,0.45192l-0.0623,-0.01699l-0.01774,0.00947l-0.33067,0.08267l-0.16315,0.08156l-0.34728,0.23152l-0.64712,0.23112l-0.62101,0.29415l-0.66823,0.13363l-0.3216,0.1072l-0.13826,0.01064l-0.12235,0.06526l-0.7073,0.17683h-0.43536l-0.42237,0.1056h-4.95113l-0.42236,-0.1056h-0.43537l-0.7073,-0.17683l-0.34365,-0.18328l-0.38019,-0.0845l-0.07073,-0.03536l-0.63658,-0.14146l-0.08814,-0.04408l-0.09854,-0.02463l-0.01971,-0.03449l-1.20823,-0.60411l-1.38388,-1.18619l-0.01732,-0.31202z"/><path d="M217.44079,219.71677c-0.02659,1.71511 2.11058,11.98082 -3.53652,11.98082c-2.34844,0 -3.4576,-1.67417 -3.53652,-3.53652c-0.31495,-7.43272 0.65167,-14.56771 0.88413,-21.9352c0.09698,-3.07373 -2.18137,-7.68705 0.48869,-9.21281c0.61518,-1.04235 1.74985,-1.74161 3.04783,-1.74161c1.95317,0 3.53652,1.58335 3.53652,3.53652c0,0.29227 -0.03545,0.57626 -0.10231,0.8479c1.85988,5.69476 -0.69396,14.39578 -0.78182,20.06092z"/><path d="M228.75765,219.71677c-0.02659,1.71511 2.11058,11.98082 -3.53652,11.98082c-2.34844,0 -3.4576,-1.67417 -3.53652,-3.53652c-0.31495,-7.43272 0.65167,-14.56771 0.88413,-21.9352c0.09698,-3.07373 -2.18137,-7.68705 0.48869,-9.21281c0.61518,-1.04235 1.74985,-1.74161 3.04783,-1.74161c1.95317,0 3.53652,1.58335 3.53652,3.53652c0,0.29227 -0.03545,0.57626 -0.10231,0.8479c1.85988,5.69476 -0.69396,14.39578 -0.78182,20.06092z"/><path d="M233.80784,212.95034c2.90165,-2.90163 11.91229,-4.61782 14.36007,-0.02821c1.44757,2.71419 1.14065,7.33611 -1.71106,8.98654c-2.53636,1.46791 -9.30072,-0.09194 -7.5488,2.68039c2.93798,4.64924 13.30846,-4.77163 15.76688,1.37443c2.00867,5.02169 -5.57663,5.70835 -8.44186,6.05219c-9.06854,1.08825 -15.1767,-1.71115 -15.1767,-10.97573c-0.22658,-0.46638 -0.35366,-0.99004 -0.35366,-1.54338c0,-0.84491 0.29629,-1.62063 0.79065,-2.2289c0.57335,-1.58651 1.28609,-3.28897 2.31447,-4.31736z"/><path d="M275.79333,215.07593c-1.1794,2.06394 -2.93776,2.87038 -4.76148,3.31861c-3.72472,0.91548 -7.72206,0.3368 -7.61633,5.9256c0.09445,4.99271 11.74405,-2.43829 12.69594,4.22489c0.46312,3.24185 -2.43772,4.19454 -4.73875,4.21349c-5.42275,0.04466 -10.99535,0.6832 -14.05767,-4.42065c-4.27558,-7.12598 1.48024,-14.59266 8.33843,-16.13871c1.98572,-0.44764 7.31671,-2.0638 8.39826,-0.17109z"/><path d="M288.00118,202.61155c2.35847,0.36772 5.82844,0.01664 5.82844,3.7999c0,3.14412 -3.04163,3.73275 -6.4024,3.51514c0.02696,5.23234 0.01605,10.53717 0.03667,15.58521c0.00512,1.25319 0.77976,3.37249 -0.26524,4.41751c-8.58805,8.58807 -6.98113,-13.68357 -6.98462,-14.49973c-0.00954,-2.22421 -0.03209,-4.44869 -0.04711,-6.6731c-0.20308,-0.03721 -0.38958,-0.06914 -0.55714,-0.0943c-2.3467,-0.35252 -5.84855,0.91238 -7.0259,-1.14798c-1.04235,-0.61518 -1.74162,-1.74985 -1.74162,-3.04783c0,-1.95317 1.58335,-3.53652 3.53652,-3.53652c0.39038,0 0.76598,0.06324 1.11713,0.18006c1.44211,-0.2873 3.03528,-0.22212 4.67999,0.00227c0.00932,-0.70918 0.02182,-1.41832 0.03814,-2.12742v0v0c0,-0.03922 0.00063,-0.07827 0.00191,-0.11717c0.06182,-1.89892 1.62065,-3.41935 3.53462,-3.41935c1.29519,0 2.42777,0.69626 3.04386,1.7349c0.26142,0.33058 0.4212,0.77283 0.4747,1.44288c0.01189,0.11796 0.01797,0.23763 0.01797,0.35872c0.02708,1.15773 0.04942,2.33217 0.06786,3.51909c0.21726,0.03833 0.43278,0.07439 0.64628,0.10769z"/><g><path d="M302.40567,212.95402c0.02477,0.04401 0.04755,0.10592 0.06844,0.18442c0.23906,0.47648 0.37363,1.01445 0.37363,1.58384c0,0.39572 -0.065,0.77625 -0.18489,1.13152c0.04524,4.82162 -0.55444,13.8423 -0.96448,14.25234c-0.84005,0.84005 -1.90644,1.76826 -3.09445,1.76826c-1.18802,0 -2.2544,-0.92821 -3.09445,-1.76826c-0.42962,-0.42962 -0.39324,-1.16267 -0.44207,-1.76826c-0.34198,-4.2406 0.31394,-9.36858 0.7073,-13.6156c0,-0.13038 0.00706,-0.25912 0.02081,-0.38585c0.19223,-1.77167 1.69291,-3.15068 3.51571,-3.15068c1.15089,0 2.17338,0.54976 2.81918,1.40097c0.1054,0.10888 0.1982,0.23027 0.27528,0.36729z"/><path d="M296.65882,205.70415c0,-1.95317 1.58335,-3.53652 3.53652,-3.53652c1.95317,0 3.53652,1.58336 3.53652,3.53652c0,1.95317 -1.58335,3.53652 -3.53652,3.53652c-1.95317,0 -3.53652,-1.58335 -3.53652,-3.53652z"/></g><path d="M313.51303,225.23094l0.02726,0.02336l0.02839,0.0063h0.03904l0.28494,0.07124h4.0804l0.15317,-0.03829l0.40163,-0.13388l0.22282,-0.01713l0.20196,-0.09567l0.29981,-0.05997l0.05712,-0.0204l0.16968,-0.14544l0.70731,-0.35366l0.35205,-0.07822l0.32026,-0.32026l0.3211,-0.19267l0.23451,-0.31268l0.19755,-0.16052l0.13097,-0.21826l0.17822,-0.17822l-0.18141,-1.0885l-0.51807,-0.93254l-0.08001,-0.12l-0.03524,-0.03526l-0.23911,-0.15939l-0.06759,-0.07435l-0.09262,-0.03898l-0.45219,-0.33916l-0.42208,-0.21103l-0.10529,-0.09025l-0.13266,-0.04039l-0.33887,-0.20332h-2.11515l-1.83073,0.15255l-0.86158,0.1436l-0.36311,0.07262l-0.45135,0.33853l-0.07286,0.03067l-0.34429,0.51643l-0.19783,0.17985l-0.1864,0.39351l-0.08276,0.37243v2.0471l0.09165,0.45822l0.04389,0.17558c0.23735,0.19702 0.44851,0.4245 0.6275,0.67643zM307.24325,229.07032l-0.01034,-0.01723l-0.06216,-0.01749l-0.41335,-0.77504l-0.45193,-0.75318l0.01699,-0.0623l-0.00945,-0.01774l-0.35365,-1.4146v-0.08624l-0.03692,-0.07793l-0.17683,-0.88413l0.01675,-0.35184l-0.08543,-0.34173v-2.95211l-0.02204,-0.03306l0.02204,-0.09915v-0.09854l0.19709,-0.78833l0.17627,-0.79324l0.04408,-0.08813l0.02464,-0.09855l0.03449,-0.01971l0.03866,-0.07732l0.08396,-0.41971l0.06092,-0.1286l-0.03153,-0.1156l0.40986,-0.6831l0.34102,-0.71993l0.11368,-0.03788l0.07321,-0.12201l0.28286,-0.28286l0.51305,-0.76958l0.51378,-0.46707l0.46708,-0.51379l0.44881,-0.29921l0.62877,-0.47159l0.29626,-0.12474l0.24408,-0.20921l0.70731,-0.35365l0.46112,-0.10247l0.42688,-0.2022l0.88413,-0.17683l0.05848,0.00279l0.05369,-0.02334l1.06095,-0.17683l0.14758,0.0118l0.14013,-0.04772l2.12191,-0.17682l0.14811,0.02419l0.14559,-0.0364h2.95212l0.03306,-0.02202l0.09916,0.02202h0.09855l0.78833,0.19709l0.79325,0.17627l0.08814,0.04407l0.09855,0.02462l0.0197,0.03449l0.14727,0.07363l0.10529,0.09024l0.13266,0.04039l0.76767,0.46059l0.58583,0.29291l0.24408,0.2092l0.29626,0.12474l0.62876,0.47158l0.44881,0.29921l0.23695,0.26063l0.30203,0.18124l0.53048,0.53048l0.18124,0.30203l0.26063,0.23695l0.35366,0.53047l0.04913,0.13756l0.09978,0.10666l0.88413,1.59143l0.15636,0.58274l0.24057,0.55334l0.35365,2.12191l-0.02356,0.29463l0.07169,0.28675v1.23778l-0.13788,0.55151l-0.0436,0.56683l-0.10386,0.31157l0.01046,0.03833l-0.05226,0.0871l-0.03115,0.09349l-0.43626,0.68555l-0.41809,0.69679l-0.06966,0.06969l-0.05453,0.08568l-0.03895,0.0078l-0.72008,0.72007l-0.24124,0.32164l-0.00219,0.03965l-0.07713,0.06611l-0.05911,0.07883l-0.63067,0.51242l-0.05816,0.04985l-0.87748,0.87747l-0.01723,0.01034l-0.01749,0.06215l-0.77502,0.41335l-0.75318,0.45192l-0.0623,-0.01699l-0.01774,0.00947l-0.33067,0.08267l-0.16315,0.08156l-0.34728,0.23152l-0.64713,0.23112l-0.62101,0.29415l-0.66823,0.13363l-0.3216,0.1072l-0.13826,0.01064l-0.12234,0.06526l-0.70731,0.17683h-0.43536l-0.42237,0.1056h-4.95112l-0.42237,-0.1056h-0.43538l-0.70731,-0.17683l-0.34365,-0.18328l-0.38019,-0.0845l-0.07073,-0.03536l-0.63657,-0.14146l-0.08814,-0.04408l-0.09854,-0.02463l-0.0197,-0.03449l-1.20823,-0.60411l-1.38389,-1.18619l-0.01732,-0.31202z"/><path d="M335.20688,210.65528c0.63069,0.249 1.1896,0.38362 1.69843,0.43377c2.71533,0.26763 4.00429,-1.87041 7.16375,-1.87041c7.92386,0 11.20951,4.97156 12.71059,12.17961c0.27626,1.32661 1.51801,5.73908 0.26524,6.93964c-8.44495,8.09307 -4.80118,-12.07639 -12.38795,-12.02417c-7.20231,0.04958 -5.30799,8.80028 -5.38306,13.08513c-0.0261,1.48911 -2.09922,3.94076 -3.53652,3.53652c-6.11054,-1.71859 -3.73435,-10.22326 -3.89017,-15.13253c-0.04253,-1.33989 -0.95657,-4.68111 0.31186,-5.40593z"/></g></g><path d="M375.95407,222.87396c-3.53652,0 -3.53652,-3.53652 -3.53652,-3.53652v-1.69753c0,-8.02156 0.28508,-16.03813 0.28292,-24.04834c-0.00067,-2.45198 -0.23453,-4.91521 0,-7.35596c0.06038,-0.6284 0.73516,-1.22233 0.52817,-1.81872c-0.50608,-1.4582 -3.08711,-0.03798 -4.63054,-0.02027c-4.52523,0.05194 -9.05462,0 -13.58024,0c0,0 -3.53652,0 -3.53652,-3.53652c0,-3.53652 3.53652,-3.53652 3.53652,-3.53652c4.52596,0 9.05455,-0.0434 13.58024,0c1.68566,0.01617 3.4494,-0.41474 5.05635,0.09461c2.05971,0.65285 4.35899,1.50506 5.59087,3.28018c0.64459,0.92884 0.52817,7.5373 0.52817,9.21522c0,9.2449 -0.28292,18.47441 -0.28292,27.72632v1.69753c0,0 0,3.53652 -3.53652,3.53652z" fill="#ff0000" stroke="none" stroke-width="0.5"/><path d="M121.8987,177.16868c3.53652,0 3.53652,3.53652 3.53652,3.53652v1.69753c0,8.02155 -0.28509,16.03812 -0.28292,24.04834c0.00066,2.45198 0.23453,4.91522 0,7.35596c-0.06039,0.62839 -0.73516,1.22232 -0.52819,1.81872c0.50607,1.4582 3.08712,0.03799 4.63054,0.02027c4.52523,-0.05194 9.05462,0 13.58023,0c0,0 3.53652,0 3.53652,3.53652c0,3.53652 -3.53652,3.53652 -3.53652,3.53652c-4.52597,0 -9.05455,0.0434 -13.58023,0c-1.68568,-0.01617 -3.4494,0.41473 -5.05635,-0.09461c-2.05971,-0.65285 -4.35899,-1.50505 -5.59088,-3.28017c-0.64459,-0.92883 -0.52817,-7.5373 -0.52817,-9.21523c0,-9.2449 0.28292,-18.47441 0.28292,-27.72631v-1.69753c0,0 0,-3.53652 3.53652,-3.53652z" data-paper-data="{&quot;index&quot;:null}" fill="#00ffa6" stroke="none" stroke-width="0.5"/></g></g></svg>