<svg version="1.1" xmlns="http://www.w3.org/2000/svg" xmlns:xlink="http://www.w3.org/1999/xlink" width="370.24277" height="113.22651" viewBox="0,0,370.24277,113.22651"><defs><linearGradient x1="217.37529" y1="125.90101" x2="217.37529" y2="200.18201" gradientUnits="userSpaceOnUse" id="color-1"><stop offset="0" stop-color="#dbff66"/><stop offset="1" stop-color="#8fff66"/></linearGradient></defs><g transform="translate(-58.62861,-124.65101)"><g data-paper-data="{&quot;isPaintingLayer&quot;:true}" fill-rule="nonzero" stroke-linejoin="miter" stroke-miterlimit="10" stroke-dasharray="" stroke-dashoffset="0" style="mix-blend-mode: normal"><path d="" data-paper-data="{&quot;index&quot;:null}" fill="#5b3495" stroke="#000000" stroke-width="5" stroke-linecap="butt"/><path d="" data-paper-data="{&quot;index&quot;:null}" fill="#5b3495" stroke="#000000" stroke-width="5" stroke-linecap="butt"/><path d="M374.87203,168.04065c0,20.51262 -16.62703,37.14136 -37.13964,37.14136h-240.71241c-20.51261,0 -37.14136,-16.62874 -37.14136,-37.14136v0c0,-20.5109 16.62875,-37.13964 37.14136,-37.13964h240.71241c20.51261,0 37.13964,16.62874 37.13964,37.13964z" fill="#000000" stroke-opacity="0" stroke="#3bed00" stroke-width="2.5" stroke-linecap="butt"/><path d="M374.87203,163.04065c0,20.51262 -16.62703,37.14136 -37.13964,37.14136h-240.71241c-20.51261,0 -37.14136,-16.62874 -37.14136,-37.14136v0c0,-20.5109 16.62875,-37.13964 37.14136,-37.13964h240.71241c20.51261,0 37.13964,16.62874 37.13964,37.13964z" fill="url(#color-1)" stroke="#3bed00" stroke-width="2.5" stroke-linecap="butt"/><g fill="none" stroke="#ff9500" stroke-width="8.5"><path d="M145.00715,166.42137l15.30914,-1.44865" stroke-linecap="round"/><path d="M324.8896,166.42138l15.30914,-1.44865" stroke-linecap="round"/><g><path d="M104.69309,162.14513l19.39158,0.96577l-0.25515,23.41989c0,0 -12.5081,0.0706 -19.64347,-0.01174c-6.79646,-0.07843 -11.90151,0.03698 -17.60878,-6.5072c-5.70727,-6.54418 -5.1711,-15.26499 -4.79093,-19.1772c0.67065,-6.90142 2.33422,-16.63805 6.577,-20.41931c2.40081,-2.13967 9.56926,-1.79434 14.80317,-1.7193c5.91037,0.08474 18.87694,2.20218 18.87694,2.20218" stroke-linecap="round"/><path d="M171.28786,187.90973l-27.04615,-0.96577l-0.25516,-45.14968l23.72917,-1.6901" stroke-linecap="round"/><path d="M200.37525,188.15117c-9.58234,0 -17.35036,-10.7978 -17.35036,-24.11757c0,-13.31976 7.76802,-24.11757 17.35036,-24.11757c9.58234,0 17.35036,10.7978 17.35036,24.11757c0,13.31976 -7.76802,24.11757 -17.35036,24.11757z" stroke-linecap="butt"/><path d="M234.70812,187.90972c0,0 -3.56891,-37.77862 0.70827,-44.45741c3.33338,-5.20505 15.07084,-3.70713 18.8872,-0.22341c3.81404,3.48161 6.19159,11.99511 1.41654,16.97871c-4.77505,4.9836 -17.47066,3.35106 -17.47066,3.35106l16.99848,24.35104" stroke-linecap="round"/><path d="M290.30304,163.85333l14.56579,0.92685l-0.19166,22.47607c0,0 -9.39533,0.06775 -14.75499,-0.01127c-5.1051,-0.07527 -8.9397,0.0355 -13.22666,-6.24496c-4.28695,-6.28046 -3.88422,-14.64982 -3.59866,-18.40437c0.50375,-6.6233 1.75333,-15.96754 4.94025,-19.59642c1.80334,-2.05344 7.18785,-1.72203 11.11925,-1.65001c4.43952,0.08132 14.17923,2.11343 14.17923,2.11343" stroke-linecap="round"/><path d="M351.1703,187.90973l-27.04615,-0.96577l-0.25515,-45.14968l23.72917,-1.6901" stroke-linecap="round"/></g></g><g fill="none" stroke="#ffa529" stroke-width="8.5"><path d="M142.47772,166.02881l15.85177,-1.5" stroke-linecap="round"/><path d="M328.736,166.02881l15.85177,-1.5" stroke-linecap="round"/><g><path d="M100.73473,161.60098l20.07891,1l-0.2642,24.25c0,0 -12.95145,0.0731 -20.33973,-0.01216c-7.03735,-0.08121 -12.32335,0.0383 -18.23291,-6.73784c-5.90956,-6.77614 -5.3544,-15.80606 -4.96075,-19.85693c0.69442,-7.14604 2.41696,-17.22778 6.81012,-21.14307c2.48591,-2.21551 9.90844,-1.85794 15.32786,-1.78024c6.11986,0.08775 19.54603,2.28024 19.54603,2.28024" stroke-linecap="round"/><path d="M169.68993,188.27881l-28.00479,-1l-0.2642,-46.75l24.57024,-1.75" stroke-linecap="round"/><path d="M199.80829,188.52881c-9.92198,0 -17.96534,-11.18054 -17.96534,-24.97242c0,-13.79188 8.04336,-24.97241 17.96534,-24.97241c9.92198,0 17.96534,11.18052 17.96534,24.97241c0,13.79189 -8.04336,24.97242 -17.96534,24.97242z" stroke-linecap="butt"/><path d="M235.35811,188.27881c0,0 -3.69541,-39.11768 0.73337,-46.03319c3.45153,-5.38954 15.60502,-3.83852 19.55665,-0.23132c3.94923,3.60501 6.41105,12.42027 1.46675,17.58051c-4.9443,5.16025 -18.0899,3.46984 -18.0899,3.46984l17.60099,25.21416" stroke-linecap="round"/><path d="M292.92358,163.36972l15.08207,0.9597l-0.19845,23.27273c0,0 -9.72835,0.07015 -15.27798,-0.01167c-5.28604,-0.07794 -9.25656,0.03675 -13.69547,-6.46631c-4.43891,-6.50306 -4.0219,-15.16907 -3.72622,-19.0567c0.5216,-6.85805 1.81547,-16.5335 5.11535,-20.291c1.86727,-2.12622 7.44262,-1.78307 11.51337,-1.7085c4.59687,0.08421 14.6818,2.18835 14.6818,2.18835" stroke-linecap="round"/><path d="M355.94826,188.27881l-28.00479,-1l-0.2642,-46.75l24.57024,-1.75" stroke-linecap="round"/></g></g><path d="M420.12139,185.23935l-49.69295,20.45256c0,0 -2.82413,-25.72485 5.74178,-34.58337c5.08695,-5.26072 21.32605,-0.91812 25.71517,-5.86852c7.91863,-8.93124 6.29592,-26.56996 -10.87811,-28.46968c-17.17403,-1.89972 -29.5478,17.49794 -29.5478,17.49794" fill="none" stroke="#000000" stroke-width="17.5" stroke-linecap="round"/><path d="M420.12139,185.23935l-49.69295,20.45256c0,0 -2.82413,-25.72485 5.74178,-34.58337c5.08695,-5.26072 21.32605,-0.91812 25.71517,-5.86852c7.91863,-8.93124 6.29592,-26.56996 -10.87811,-28.46968c-17.17403,-1.89972 -29.5478,17.49794 -29.5478,17.49794" fill="none" stroke="#ffffff" stroke-width="12" stroke-linecap="round"/><g stroke="#000000"><path d="M123.43382,223.18057l-1,-19l13.33334,15.33333l2.33334,-19.33333" fill="none" stroke-width="9.5" stroke-linecap="round"/><g fill="none" stroke-width="9.5" stroke-linecap="round"><path d="M145.10444,217.41847c0,0 -0.00564,-3.51136 1.13015,-4.58166c1.07037,-1.00866 3.56013,-1.65258 5.49997,-1.66618c1.93984,-0.0136 3.56673,0.58212 4.30928,1.5974c0.79918,1.09271 1.14464,3.3908 -1.12969,4.45149c-2.56136,1.19455 -9.8097,0.19894 -9.8097,0.19894z"/><path d="M155.57228,224.7773c0,0 -6.28431,-1.11568 -8.72094,-2.33513c-2.43663,-1.21945 -1.74883,-5.1545 -1.74883,-5.1545"/></g><path d="M180.76715,210.51391l-4.33334,11.33333l-4.66666,-6l-5.66666,5.66667l-2,-10" fill="none" stroke-width="9.5" stroke-linecap="round"/><g fill="none" stroke-width="9.5" stroke-linecap="round"><path d="M201.13864,201.20776l-1.70517,23.25138"/><path d="M213.12652,200.78075l-1.33639,23.67487"/><path d="M216.35348,211.68926c-4.08485,7.09945 -14.32522,2.40345 -14.32522,2.40345"/></g><g fill="none" stroke-width="9.5" stroke-linecap="round"><path d="M223.10444,217.41847c0,0 -0.00564,-3.51136 1.13015,-4.58166c1.07037,-1.00866 3.56013,-1.65258 5.49997,-1.66618c1.93984,-0.0136 3.56673,0.58212 4.30928,1.5974c0.79918,1.09271 1.14464,3.3908 -1.12969,4.45149c-2.56136,1.19455 -9.8097,0.19894 -9.8097,0.19894z"/><path d="M233.57228,224.7773c0,0 -6.28431,-1.11568 -8.72094,-2.33513c-2.43663,-1.21945 -1.74883,-5.1545 -1.74883,-5.1545"/></g><g><path d="M242.19326,206.53238c-0.02249,-1.50505 1.17936,-2.74337 2.6844,-2.76586c1.50505,-0.02249 2.74337,1.17936 2.76586,2.6844c0.02249,1.50505 -1.17936,2.74337 -2.6844,2.76586c-1.50505,0.02249 -2.74337,-1.17936 -2.76586,-2.6844z" fill="#ffffff" stroke-width="3.5" stroke-linecap="butt"/><path d="M243.93741,213.80524l-1.29048,10.92226" fill="none" stroke-width="9.5" stroke-linecap="round"/></g><g data-paper-data="{&quot;index&quot;:null}" fill="none" stroke-width="9.5"><path d="M263.78597,214.43736c0,0 -0.96156,8.05343 -1.4061,11.77657c-0.15723,1.31681 -2.08428,5.99732 -3.96374,7.14855c-2.91343,1.7846 -6.18013,-0.23496 -6.18013,-0.23496" stroke-linecap="round"/><path d="M252.29816,217.08637c0.78037,-2.80351 3.68568,-4.44357 6.48918,-3.6632c2.8035,0.78037 4.44357,3.68568 3.66319,6.48918c-0.78037,2.8035 -3.68569,4.44357 -6.48919,3.66319c-2.80351,-0.78037 -4.44357,-3.68569 -3.6632,-6.48919z" stroke-linecap="butt"/></g><g fill="none" stroke-width="9.5" stroke-linecap="round"><path d="M271.74807,224.85962l0.3509,-25.15476"/><path d="M272.29666,212.93084c0,0 6.2498,-1.18595 8.3083,1.47493c2.0585,2.66087 0.58591,10.02197 0.58591,10.02197"/></g><g fill="none" stroke-width="9.5" stroke-linecap="round"><path d="M292.93206,224.1513l1.65244,-25.61034"/><path d="M299.83651,209.51081l-11.67286,-2.87837"/></g><path d="M303.46772,224.62069c0,0 5.0857,0.37842 7.22922,-0.34219c2.14352,-0.7206 2.88894,-2.99445 1.7181,-5.18834c-1.17084,-2.19389 -4.82675,-0.7427 -5.8433,-2.5414c-1.01655,-1.7987 -0.25958,-4.96159 2.35185,-5.642c2.61143,-0.68041 6.74896,0.05371 6.74896,0.05371" fill="none" stroke-width="9.5" stroke-linecap="round"/></g><g><path d="M123.43382,223.18057l-1,-19l13.33333,15.33333l2.33333,-19.33333" fill="none" stroke="#ffffff" stroke-width="6" stroke-linecap="round"/><g fill="none" stroke="#ffffff" stroke-width="6" stroke-linecap="round"><path d="M145.10444,217.41847c0,0 -0.00564,-3.51136 1.13015,-4.58166c1.07037,-1.00866 3.56013,-1.65258 5.49997,-1.66618c1.93984,-0.0136 3.56673,0.58212 4.30928,1.5974c0.79918,1.09271 1.14464,3.3908 -1.12969,4.45149c-2.56136,1.19455 -9.8097,0.19894 -9.8097,0.19894z"/><path d="M155.57228,224.7773c0,0 -6.28431,-1.11568 -8.72094,-2.33513c-2.43663,-1.21945 -1.74883,-5.1545 -1.74883,-5.1545"/></g><path d="M180.76715,210.51391l-4.33333,11.33333l-4.66667,-6l-5.66667,5.66667l-2,-10" fill="none" stroke="#ffffff" stroke-width="6" stroke-linecap="round"/><g fill="none" stroke="#ffffff" stroke-width="6" stroke-linecap="round"><path d="M201.13864,201.20776l-1.70517,23.25138"/><path d="M213.12652,200.78075l-1.33639,23.67487"/><path d="M216.35348,211.68926c-4.08485,7.09945 -14.32522,2.40345 -14.32522,2.40345"/></g><g fill="none" stroke="#ffffff" stroke-width="6" stroke-linecap="round"><path d="M223.10444,217.41847c0,0 -0.00564,-3.51136 1.13015,-4.58166c1.07037,-1.00866 3.56013,-1.65258 5.49997,-1.66618c1.93984,-0.0136 3.56673,0.58212 4.30928,1.5974c0.79918,1.09271 1.14464,3.3908 -1.12969,4.45149c-2.56136,1.19455 -9.8097,0.19894 -9.8097,0.19894z"/><path d="M233.57227,224.7773c0,0 -6.28431,-1.11568 -8.72094,-2.33513c-2.43663,-1.21945 -1.74883,-5.1545 -1.74883,-5.1545"/></g><g><path d="M242.19326,206.53238c-0.02249,-1.50505 1.17936,-2.74337 2.6844,-2.76586c1.50505,-0.02249 2.74337,1.17936 2.76586,2.6844c0.02249,1.50505 -1.17936,2.74337 -2.6844,2.76586c-1.50505,0.02249 -2.74337,-1.17936 -2.76586,-2.6844z" fill="#ffffff" stroke="none" stroke-width="0.5" stroke-linecap="butt"/><path d="M243.93741,213.80524l-1.29048,10.92226" fill="none" stroke="#ffffff" stroke-width="6" stroke-linecap="round"/></g><g data-paper-data="{&quot;index&quot;:null}" fill="none" stroke="#ffffff" stroke-width="6"><path d="M263.78597,214.43735c0,0 -0.96157,8.05343 -1.4061,11.77657c-0.15722,1.31681 -2.08429,5.99731 -3.96374,7.14855c-2.91344,1.7846 -6.18013,-0.23496 -6.18013,-0.23496" stroke-linecap="round"/><path d="M252.29816,217.08637c0.78038,-2.80351 3.68569,-4.44357 6.48919,-3.6632c2.8035,0.78037 4.44356,3.68569 3.66319,6.48919c-0.78037,2.8035 -3.68569,4.44356 -6.48919,3.66319c-2.80351,-0.78038 -4.44357,-3.68569 -3.6632,-6.48919z" stroke-linecap="butt"/></g><g fill="none" stroke="#ffffff" stroke-width="6" stroke-linecap="round"><path d="M271.74807,224.85962l0.3509,-25.15476"/><path d="M272.29666,212.93084c0,0 6.2498,-1.18595 8.3083,1.47493c2.0585,2.66087 0.58591,10.02197 0.58591,10.02197"/></g><g fill="none" stroke="#ffffff" stroke-width="6" stroke-linecap="round"><path d="M292.93206,224.15129l1.65244,-25.61034"/><path d="M299.83651,209.5108l-11.67286,-2.87837"/></g><path d="M303.46772,224.62069c0,0 5.0857,0.37842 7.22922,-0.34218c2.14352,-0.7206 2.88894,-2.99445 1.7181,-5.18834c-1.17083,-2.19389 -4.82675,-0.7427 -5.8433,-2.5414c-1.01655,-1.7987 -0.25959,-4.96159 2.35185,-5.642c2.61143,-0.68041 6.74896,0.05371 6.74896,0.05371" fill="none" stroke="#ffffff" stroke-width="6" stroke-linecap="round"/></g></g></g></svg>