<svg version="1.1" xmlns="http://www.w3.org/2000/svg" xmlns:xlink="http://www.w3.org/1999/xlink" width="36.7402" height="63.15673" viewBox="0,0,36.7402,63.15673"><g transform="translate(-221.63049,-148.42163)"><g data-paper-data="{&quot;isPaintingLayer&quot;:true}" fill-rule="nonzero" stroke-width="2" stroke-linejoin="miter" stroke-miterlimit="10" stroke-dasharray="" stroke-dashoffset="0" style="mix-blend-mode: normal"><g><g fill="#000000" stroke="#000000"><path d="M224.50549,188.86805c0,0 -0.02059,-5.17721 0.11022,-8.18436c0.1127,-2.59072 4.25342,-7.17114 4.25342,-7.17114" data-paper-data="{&quot;index&quot;:null}" stroke-linecap="round"/><path d="M245.26817,187.76793c0,0 1.24703,0.43213 2.19421,1.63984c2.08812,2.66247 9.9083,13.79152 9.9083,13.79152" data-paper-data="{&quot;index&quot;:null}" stroke-linecap="round"/><path d="M257.08526,185.1168c0,0 -2.06835,-6.29768 -2.89547,-8.42317c-0.7305,-1.8772 -3.43851,-3.92767 -3.43851,-3.92767" data-paper-data="{&quot;index&quot;:null}" stroke-linecap="round"/><path d="M228.40761,171.84525c0,-11.34869 5.40496,-20.54862 12.07231,-20.54862c6.66735,0 12.07231,9.19993 12.07231,20.54862c0,11.34869 -5.40497,20.54861 -12.07231,20.54861c-6.66735,0 -12.0723,-9.19992 -12.0723,-20.54861z" data-paper-data="{&quot;index&quot;:null}" stroke-linecap="butt"/><path d="M236.39586,191.12699c0,0 1.55668,0.52144 3.0132,3.52688c1.63841,3.38078 5.78575,15.9245 5.78575,15.9245" data-paper-data="{&quot;index&quot;:null}" stroke-linecap="round"/><path d="M232.99851,165.11736c-0.86399,0.01288 -1.57483,-0.67709 -1.58771,-1.54108c-0.01288,-0.86399 0.67709,-1.57483 1.54108,-1.58771c0.86399,-0.01288 1.57483,0.67709 1.58771,1.54108c0.01288,0.86399 -0.67709,1.57483 -1.54108,1.58771z" stroke-linecap="butt"/><path d="M234.62559,160.23584c0,0 1.28106,-1.98166 2.67454,-3.38697c1.66142,-1.6755 3.89664,-1.93256 3.89664,-1.93256" stroke-linecap="round"/><g stroke-linecap="butt"><path d="M234.46866,170.70001c0,-2.74975 1.31433,-4.97886 2.93568,-4.97886c1.62133,0 2.93567,2.22912 2.93567,4.97886c0,2.74975 -1.31433,4.97886 -2.93566,4.97886c-1.62133,0 -2.93568,-2.22911 -2.93568,-4.97886z"/><path d="M244.97528,169.82652c0,-2.74975 1.31433,-4.97886 2.93567,-4.97886c1.62133,0 2.93568,2.22911 2.93568,4.97886c0,2.74975 -1.31433,4.97886 -2.93568,4.97886c-1.62133,0 -2.93566,-2.22912 -2.93566,-4.97886z"/></g><g stroke-linecap="round"><path d="M233.74139,163.96425c0,0 1.41005,-1.98933 2.30204,-2.48753c0.95735,-0.53469 3.25986,-0.61883 3.25986,-0.61883"/><path d="M245.73025,160.37002c0,0 2.30033,0.13107 3.24658,0.68516c0.88165,0.51628 2.25083,2.53396 2.25083,2.53396" data-paper-data="{&quot;index&quot;:null}"/></g><path d="M239.14989,181.92437c0,-1.76041 1.42709,-3.1875 3.1875,-3.1875c1.76041,0 3.1875,1.42709 3.1875,3.1875c0,1.76041 -0.55209,2.3125 -2.3125,2.3125c-1.76041,0 -4.0625,-0.55209 -4.0625,-2.3125z" stroke-linecap="butt"/></g><g><path d="M222.63049,186.99305c0,0 -0.02059,-5.17721 0.11022,-8.18436c0.1127,-2.59072 4.25342,-7.17114 4.25342,-7.17114" data-paper-data="{&quot;index&quot;:null}" fill="none" stroke="#00de3f" stroke-linecap="round"/><path d="M243.39317,185.89293c0,0 1.24703,0.43213 2.19421,1.63984c2.08812,2.66247 9.9083,13.79152 9.9083,13.79152" data-paper-data="{&quot;index&quot;:null}" fill="none" stroke="#00bd34" stroke-linecap="round"/><path d="M255.21026,183.2418c0,0 -2.06835,-6.29768 -2.89547,-8.42317c-0.7305,-1.8772 -3.43851,-3.92767 -3.43851,-3.92767" data-paper-data="{&quot;index&quot;:null}" fill="none" stroke="#00bd34" stroke-linecap="round"/><path d="M226.53261,169.97025c0,-11.34869 5.40496,-20.54862 12.07231,-20.54862c6.66735,0 12.07231,9.19993 12.07231,20.54862c0,11.34869 -5.40497,20.54861 -12.07231,20.54861c-6.66735,0 -12.0723,-9.19992 -12.0723,-20.54861z" data-paper-data="{&quot;index&quot;:null}" fill="#11ff00" stroke="#00de3f" stroke-linecap="butt"/><path d="M234.52086,189.25199c0,0 1.55668,0.52144 3.0132,3.52688c1.63841,3.38078 5.78575,15.9245 5.78575,15.9245" data-paper-data="{&quot;index&quot;:null}" fill="none" stroke="#00de3f" stroke-linecap="round"/><path d="M231.12351,163.24236c-0.86399,0.01288 -1.57483,-0.67709 -1.58771,-1.54108c-0.01288,-0.86399 0.67709,-1.57483 1.54108,-1.58771c0.86399,-0.01288 1.57483,0.67709 1.58771,1.54108c0.01288,0.86399 -0.67709,1.57483 -1.54108,1.58771z" fill="#87ff7e" stroke="none" stroke-linecap="butt"/><path d="M232.75059,158.36084c0,0 1.28106,-1.98166 2.67454,-3.38697c1.66142,-1.6755 3.89664,-1.93256 3.89664,-1.93256" fill="none" stroke="#87ff7e" stroke-linecap="round"/><g fill="#000000" stroke="none" stroke-linecap="butt"><path d="M232.59366,168.82501c0,-2.74975 1.31433,-4.97886 2.93568,-4.97886c1.62133,0 2.93567,2.22912 2.93567,4.97886c0,2.74975 -1.31433,4.97886 -2.93566,4.97886c-1.62133,0 -2.93568,-2.22911 -2.93568,-4.97886z"/><path d="M243.10028,167.95152c0,-2.74975 1.31433,-4.97886 2.93567,-4.97886c1.62133,0 2.93568,2.22911 2.93568,4.97886c0,2.74975 -1.31433,4.97886 -2.93568,4.97886c-1.62133,0 -2.93566,-2.22912 -2.93566,-4.97886z"/></g><g fill="none" stroke="#000000" stroke-linecap="round"><path d="M231.86639,162.08925c0,0 1.41005,-1.98933 2.30204,-2.48753c0.95735,-0.53469 3.25986,-0.61883 3.25986,-0.61883"/><path d="M243.85525,158.49502c0,0 2.30033,0.13107 3.24658,0.68516c0.88165,0.51628 2.25083,2.53396 2.25083,2.53396" data-paper-data="{&quot;index&quot;:null}"/></g><path d="M237.27489,180.04937c0,-1.76041 1.42709,-3.1875 3.1875,-3.1875c1.76041,0 3.1875,1.42709 3.1875,3.1875c0,1.76041 -0.55209,2.3125 -2.3125,2.3125c-1.76041,0 -4.0625,-0.55209 -4.0625,-2.3125z" fill="none" stroke="#000000" stroke-linecap="butt"/></g></g></g></g></svg>