<svg version="1.1" xmlns="http://www.w3.org/2000/svg" xmlns:xlink="http://www.w3.org/1999/xlink" width="63.31044" height="63.31044" viewBox="0,0,63.31044,63.31044"><defs><radialGradient cx="240" cy="180" r="29.90522" gradientUnits="userSpaceOnUse" id="color-1"><stop offset="0" stop-color="#e3daf5"/><stop offset="1" stop-color="#8a5ce6"/></radialGradient></defs><g transform="translate(-208.34478,-148.34478)"><g data-paper-data="{&quot;isPaintingLayer&quot;:true}" fill-rule="nonzero" stroke-linejoin="miter" stroke-miterlimit="10" stroke-dasharray="" stroke-dashoffset="0" style="mix-blend-mode: normal"><path d="M210.09478,209.90522v-59.81044h59.81044v59.81044z" fill="url(#color-1)" stroke="#ffffff" stroke-width="3.5" stroke-linecap="butt"/><g fill="#000000" stroke="none" stroke-width="0.5" stroke-linecap="butt"><path d="M232.99454,195.49081c-1.25,0 -1.25,-1.25 -1.25,-1.25v-0.25c0.01727,-3.19935 -1.06896,-6.34853 -1.36987,-9.51183c0,0 -0.11317,-1.24487 1.1317,-1.35804c1.24487,-0.11317 1.35804,1.1317 1.35804,1.1317c0.27926,3.25265 1.36553,6.44289 1.38013,9.73817v0.25c0,0 0,1.25 -1.25,1.25z"/><path d="M235.99454,194.24081c0,-0.69036 0.55964,-1.25 1.25,-1.25c0.69036,0 1.25,0.55964 1.25,1.25c0,0.69036 -0.55964,1.25 -1.25,1.25c-0.69036,0 -1.25,-0.55964 -1.25,-1.25z"/><path d="M253.74454,194.24081c0,1.25 -1.25,1.25 -1.25,1.25h-1.25c-2.92838,0 -5.87302,0.19311 -8.75,-0.19047v0.19047h-1.375c-0.69036,0 -1.25,-0.55964 -1.25,-1.25c0,-0.28596 0.09602,-0.54948 0.25758,-0.7601l0.74242,-0.9899l0.03393,0.02544l0.04953,-0.12542c1.82736,-1.55887 5.47597,-2.18279 6.89647,-4.12249c0.74784,-1.02118 0.03916,-2.36279 -0.94475,-2.92545c-1.32622,-0.75842 -3.65839,0.35618 -4.58705,1.21363c0,0 -0.94072,0.82313 -1.76385,-0.11759c-0.82313,-0.94072 0.11759,-1.76385 0.11759,-1.76385c3.10799,-2.62312 11.06561,-2.8014 9.92557,3.3021c-0.55909,2.99323 -3.706,3.74197 -6.14052,5.00236c0.18966,0.0052 0.37204,0.01126 0.53808,0.01126c2.08334,0 4.16666,0 6.25,0h1.25c0,0 1.25,0 1.25,1.25z"/></g><g><g stroke="#000000"><path d="M214.94643,172.72726l2.5,5.78572l2.21429,-5l2.78571,4.71428l1.71429,-6.07143" fill="none" stroke-width="4" stroke-linecap="round"/><g fill="none" stroke-width="4" stroke-linecap="round"><path d="M226.375,176.5844l4.21429,-0.28572c0,0 0.24801,-1.23173 -0.64286,-1.71428c-0.89087,-0.48255 -1.53052,-1.07264 -2.78571,-0.14286c-1.25519,0.92978 -0.78572,2.14286 -0.78572,2.14286z"/><path d="M226.375,176.5844c0,0 -0.16981,1.1202 0.14286,1.71428c0.31268,0.59408 0.68596,0.7601 1.28571,1c0.59975,0.2399 0.95399,0.2046 1.57143,0.14285c0.61743,-0.06175 1.28572,-0.42857 1.28572,-0.42857"/></g><g fill="none" stroke-width="4" stroke-linecap="round"><path d="M232.94643,171.01297l0.42857,8.07143"/><path d="M233.30358,174.5844c0,0 0.86184,-0.65987 1.5,-0.92857c0.63816,-0.2687 0.91559,-0.171 1.42857,0c0.51298,0.171 0.64812,0.21343 1,0.57143c0.46197,0.47002 0.86393,1.99702 0.5,3.21428c-0.14254,0.47677 -0.42799,0.85678 -1,1.21429c-0.57201,0.35751 -0.76767,0.25124 -1.28572,0.21429c-0.92935,-0.06628 -1.85714,-1 -1.85714,-1"/></g><path d="M246.66072,171.15583c0,0 -1.17869,-0.22807 -1.92857,-0.14285c-0.74989,0.08522 -0.84709,0.13281 -1.21428,0.5c-0.36719,0.36719 -0.55463,0.73131 -0.57143,1.28571c-0.0168,0.55439 0.11636,0.79548 0.5,1.07143c0.38364,0.27595 3.14563,1.11653 3.57143,2c0.34092,0.70736 0.2647,0.31087 0.28571,0.85714c0.02101,0.54627 0.03745,0.53137 -0.21428,0.85715c-0.25173,0.32577 -0.53417,0.54338 -0.92857,0.71429c-0.39441,0.17091 -0.72036,0.19132 -1.21429,0.21429c-0.49393,0.02298 -1.85714,-0.21429 -1.85714,-0.21429" fill="none" stroke-width="4" stroke-linecap="round"/><g fill="none" stroke-width="4" stroke-linecap="round"><path d="M253.08929,171.01297c0,0 -0.0813,3.74139 0.21429,6.07143c0.0543,0.42806 0.39869,0.68804 0.64285,0.78571c0.24417,0.09767 1.14286,0 1.14286,0"/><path d="M252.01786,172.65583l2.92857,-0.21429"/></g><g><path d="M249.73215,172.65583l0.35714,5.5" fill="none" stroke-width="4" stroke-linecap="round"/><path d="M248.83929,170.5844c0,-0.41422 0.33578,-0.75 0.75,-0.75c0.41422,0 0.75,0.33578 0.75,0.75c0,0.41422 -0.33578,0.75 -0.75,0.75c-0.41422,0 -0.75,-0.33578 -0.75,-0.75z" fill="#9966ff" stroke-width="2.5" stroke-linecap="butt"/></g><g fill="none" stroke-width="4" stroke-linecap="round"><path d="M257.23215,174.72726l4.21428,-0.28572c0,0 0.24802,-1.23173 -0.64285,-1.71428c-0.89087,-0.48255 -1.53052,-1.07264 -2.78571,-0.14286c-1.2552,0.92978 -0.78571,2.14286 -0.78571,2.14286z"/><path d="M257.23215,174.72726c0,0 -0.16982,1.1202 0.14286,1.71428c0.31268,0.59408 0.68597,0.7601 1.28571,1c0.59975,0.2399 0.954,0.2046 1.57143,0.14285c0.61743,-0.06175 1.28571,-0.42857 1.28571,-0.42857"/></g><g><path d="M263.875,169.79869l0.28571,5" fill="none" stroke-width="4" stroke-linecap="round"/><path d="M263.55357,176.94154c0,-0.41422 0.33578,-0.75 0.75,-0.75c0.41422,0 0.75,0.33578 0.75,0.75c0,0.41422 -0.33578,0.75 -0.75,0.75c-0.41422,0 -0.75,-0.33578 -0.75,-0.75z" fill="#9966ff" stroke-width="2.5" stroke-linecap="butt"/></g></g><g stroke="#8a5ce6"><path d="M214.94643,172.72726l2.5,5.78572l2.21429,-5l2.78571,4.71428l1.71429,-6.07143" fill="none" stroke-width="2.5" stroke-linecap="round"/><g fill="none" stroke-width="2.5" stroke-linecap="round"><path d="M226.375,176.5844l4.21429,-0.28572c0,0 0.24801,-1.23173 -0.64286,-1.71428c-0.89087,-0.48255 -1.53052,-1.07264 -2.78571,-0.14286c-1.25519,0.92978 -0.78572,2.14286 -0.78572,2.14286z"/><path d="M226.375,176.5844c0,0 -0.16981,1.1202 0.14286,1.71428c0.31268,0.59408 0.68596,0.7601 1.28571,1c0.59975,0.2399 0.95399,0.2046 1.57143,0.14285c0.61743,-0.06175 1.28572,-0.42857 1.28572,-0.42857"/></g><g fill="none" stroke-width="2.5" stroke-linecap="round"><path d="M232.94643,171.01297l0.42857,8.07143"/><path d="M233.30358,174.5844c0,0 0.86184,-0.65987 1.5,-0.92857c0.63816,-0.2687 0.91559,-0.171 1.42857,0c0.51298,0.171 0.64812,0.21343 1,0.57143c0.46197,0.47002 0.86393,1.99702 0.5,3.21428c-0.14254,0.47677 -0.42799,0.85678 -1,1.21429c-0.57201,0.35751 -0.76767,0.25124 -1.28572,0.21429c-0.92935,-0.06628 -1.85714,-1 -1.85714,-1"/></g><path d="M246.66072,171.15583c0,0 -1.17869,-0.22807 -1.92857,-0.14285c-0.74989,0.08522 -0.84709,0.13281 -1.21428,0.5c-0.36719,0.36719 -0.55463,0.73131 -0.57143,1.28571c-0.0168,0.55439 0.11636,0.79548 0.5,1.07143c0.38364,0.27595 3.14563,1.11653 3.57143,2c0.34092,0.70736 0.2647,0.31087 0.28571,0.85714c0.02101,0.54627 0.03745,0.53137 -0.21428,0.85715c-0.25173,0.32577 -0.53417,0.54338 -0.92857,0.71429c-0.39441,0.17091 -0.72036,0.19132 -1.21429,0.21429c-0.49393,0.02298 -1.85714,-0.21429 -1.85714,-0.21429" fill="none" stroke-width="2.5" stroke-linecap="round"/><g fill="none" stroke-width="2.5" stroke-linecap="round"><path d="M253.08929,171.01297c0,0 -0.0813,3.74139 0.21429,6.07143c0.0543,0.42806 0.39869,0.68804 0.64285,0.78571c0.24417,0.09767 1.14286,0 1.14286,0"/><path d="M252.01786,172.65583l2.92857,-0.21429"/></g><g><path d="M249.73215,172.65583l0.35714,5.5" fill="none" stroke-width="2.5" stroke-linecap="round"/><path d="M248.83929,170.5844c0,-0.41422 0.33578,-0.75 0.75,-0.75c0.41422,0 0.75,0.33578 0.75,0.75c0,0.41422 -0.33578,0.75 -0.75,0.75c-0.41422,0 -0.75,-0.33578 -0.75,-0.75z" fill="#9966ff" stroke-width="1" stroke-linecap="butt"/></g><g fill="none" stroke-width="2.5" stroke-linecap="round"><path d="M257.23215,174.72726l4.21428,-0.28572c0,0 0.24802,-1.23173 -0.64285,-1.71428c-0.89087,-0.48255 -1.53052,-1.07264 -2.78571,-0.14286c-1.2552,0.92978 -0.78571,2.14286 -0.78571,2.14286z"/><path d="M257.23215,174.72726c0,0 -0.16982,1.1202 0.14286,1.71428c0.31268,0.59408 0.68597,0.7601 1.28571,1c0.59975,0.2399 0.954,0.2046 1.57143,0.14285c0.61743,-0.06175 1.28571,-0.42857 1.28571,-0.42857"/></g><g><path d="M263.875,169.79869l0.28571,5" fill="none" stroke-width="2.5" stroke-linecap="round"/><path d="M263.55357,176.94154c0,-0.41422 0.33578,-0.75 0.75,-0.75c0.41422,0 0.75,0.33578 0.75,0.75c0,0.41422 -0.33578,0.75 -0.75,0.75c-0.41422,0 -0.75,-0.33578 -0.75,-0.75z" fill="#9966ff" stroke-width="1" stroke-linecap="butt"/></g></g><g><path d="M214.94643,172.72726l2.5,5.78572l2.21429,-5l2.78571,4.71428l1.71429,-6.07143" fill="none" stroke="#9966ff" stroke-width="1.5" stroke-linecap="round"/><g fill="none" stroke="#9966ff" stroke-width="1.5" stroke-linecap="round"><path d="M226.375,176.5844l4.21429,-0.28572c0,0 0.24801,-1.23173 -0.64286,-1.71428c-0.89087,-0.48255 -1.53052,-1.07264 -2.78571,-0.14286c-1.25519,0.92978 -0.78572,2.14286 -0.78572,2.14286z"/><path d="M226.375,176.5844c0,0 -0.16981,1.1202 0.14286,1.71428c0.31268,0.59408 0.68596,0.7601 1.28571,1c0.59975,0.2399 0.95399,0.2046 1.57143,0.14285c0.61743,-0.06175 1.28572,-0.42857 1.28572,-0.42857"/></g><g fill="none" stroke="#9966ff" stroke-width="1.5" stroke-linecap="round"><path d="M232.94643,171.01297l0.42857,8.07143"/><path d="M233.30358,174.5844c0,0 0.86184,-0.65987 1.5,-0.92857c0.63816,-0.2687 0.91559,-0.171 1.42857,0c0.51298,0.171 0.64812,0.21343 1,0.57143c0.46197,0.47002 0.86393,1.99702 0.5,3.21428c-0.14254,0.47677 -0.42799,0.85678 -1,1.21429c-0.57201,0.35751 -0.76767,0.25124 -1.28572,0.21429c-0.92935,-0.06628 -1.85714,-1 -1.85714,-1"/></g><path d="M246.66072,171.15583c0,0 -1.17869,-0.22807 -1.92857,-0.14285c-0.74989,0.08522 -0.84709,0.13281 -1.21428,0.5c-0.36719,0.36719 -0.55463,0.73131 -0.57143,1.28571c-0.0168,0.55439 0.11636,0.79548 0.5,1.07143c0.38364,0.27595 3.14563,1.11653 3.57143,2c0.34092,0.70736 0.2647,0.31087 0.28571,0.85714c0.02101,0.54627 0.03745,0.53137 -0.21428,0.85715c-0.25173,0.32577 -0.53417,0.54338 -0.92857,0.71429c-0.39441,0.17091 -0.72036,0.19132 -1.21429,0.21429c-0.49393,0.02298 -1.85714,-0.21429 -1.85714,-0.21429" fill="none" stroke="#9966ff" stroke-width="1.5" stroke-linecap="round"/><g fill="none" stroke="#9966ff" stroke-width="1.5" stroke-linecap="round"><path d="M253.08929,171.01297c0,0 -0.0813,3.74139 0.21429,6.07143c0.0543,0.42806 0.39869,0.68804 0.64285,0.78571c0.24417,0.09767 1.14286,0 1.14286,0"/><path d="M252.01786,172.65583l2.92857,-0.21429"/></g><g><path d="M249.73215,172.65583l0.35714,5.5" fill="none" stroke="#9966ff" stroke-width="1.5" stroke-linecap="round"/><path d="M248.83929,170.5844c0,-0.41422 0.33578,-0.75 0.75,-0.75c0.41422,0 0.75,0.33578 0.75,0.75c0,0.41422 -0.33578,0.75 -0.75,0.75c-0.41422,0 -0.75,-0.33578 -0.75,-0.75z" fill="#9966ff" stroke="none" stroke-width="0.5" stroke-linecap="butt"/></g><g fill="none" stroke="#9966ff" stroke-width="1.5" stroke-linecap="round"><path d="M257.23215,174.72726l4.21428,-0.28572c0,0 0.24802,-1.23173 -0.64285,-1.71428c-0.89087,-0.48255 -1.53052,-1.07264 -2.78571,-0.14286c-1.2552,0.92978 -0.78571,2.14286 -0.78571,2.14286z"/><path d="M257.23215,174.72726c0,0 -0.16982,1.1202 0.14286,1.71428c0.31268,0.59408 0.68597,0.7601 1.28571,1c0.59975,0.2399 0.954,0.2046 1.57143,0.14285c0.61743,-0.06175 1.28571,-0.42857 1.28571,-0.42857"/></g><g><path d="M263.875,169.79869l0.28571,5" fill="none" stroke="#9966ff" stroke-width="1.5" stroke-linecap="round"/><path d="M263.55357,176.94154c0,-0.41422 0.33578,-0.75 0.75,-0.75c0.41422,0 0.75,0.33578 0.75,0.75c0,0.41422 -0.33578,0.75 -0.75,0.75c-0.41422,0 -0.75,-0.33578 -0.75,-0.75z" fill="#9966ff" stroke="none" stroke-width="0.5" stroke-linecap="butt"/></g></g></g></g></g></svg>