<svg version="1.1" xmlns="http://www.w3.org/2000/svg" xmlns:xlink="http://www.w3.org/1999/xlink" width="69.46189" height="201.94184" viewBox="0,0,69.46189,201.94184"><g transform="translate(-145.75612,-12.67776)"><g data-paper-data="{&quot;isPaintingLayer&quot;:true}" fill-rule="nonzero" stroke-linejoin="miter" stroke-miterlimit="10" stroke-dasharray="" stroke-dashoffset="0" style="mix-blend-mode: normal"><path d="M210.66776,129.15892c-2.51304,0 -4.55025,-4.41397 -4.55025,-9.85888c0,-5.4449 2.03721,-9.85887 4.55025,-9.85887c2.51303,0 4.55025,4.41396 4.55025,9.85887c0,5.4449 -2.03721,9.85888 -4.55025,9.85888z" fill="#ffe698" stroke="none" stroke-width="0" stroke-linecap="butt"/><path d="M150.30637,129.84673c-2.51303,0 -4.55025,-4.41397 -4.55025,-9.85888c0,-5.44491 2.03722,-9.85888 4.55025,-9.85888c2.51303,0 4.55025,4.41397 4.55025,9.85888c0,5.44491 -2.03722,9.85888 -4.55025,9.85888z" fill="#ffe698" stroke="none" stroke-width="0" stroke-linecap="butt"/><path d="M156.75255,190.91301l-2.27513,-59.91164h51.9487v82.28371c0,0 -17.67528,-71.28727 -26.54313,-71.28727c-8.42576,0 -23.13044,48.9152 -23.13044,48.9152z" fill="#9966ff" stroke="none" stroke-width="0" stroke-linecap="butt"/><path d="M153.71906,191.79779c-4.18839,0 -7.58375,-1.41474 -7.58375,-3.1599c0,-1.74517 3.39536,-3.1599 7.58375,-3.1599c4.18839,0 7.58375,1.41474 7.58375,3.1599c0,1.74517 -3.39536,3.1599 -7.58375,3.1599z" fill="#ab4700" stroke="none" stroke-width="0" stroke-linecap="butt"/><path d="M192.84594,211.4597c0,-1.74517 3.39536,-3.1599 7.58375,-3.1599c4.18839,0 7.58375,1.41473 7.58375,3.1599c0,1.74516 -3.39536,3.1599 -7.58375,3.1599c-4.18839,0 -7.58375,-1.41473 -7.58375,-3.1599z" data-paper-data="{&quot;index&quot;:null}" fill="#ab4700" stroke="none" stroke-width="0" stroke-linecap="butt"/><path d="M154.85662,130.98429v-70.52889h50.81114v70.52889z" fill="#7cff00" stroke="none" stroke-width="0" stroke-linecap="butt"/><path d="M205.66776,115.4376v-54.22382h9.1005v54.22382z" fill="#6ee400" stroke="none" stroke-width="0" stroke-linecap="butt"/><path d="M145.82668,115.12897v-54.22383h9.1005v54.22383z" fill="#6ee400" stroke="none" stroke-width="0" stroke-linecap="butt"/><path d="M155.23581,36.94577c0,-13.40285 10.86516,-24.26801 24.26801,-24.26801c13.40285,0 24.26801,10.86516 24.26801,24.26801c0,13.40285 -10.86516,24.26801 -24.26801,24.26801c-13.40285,0 -24.26801,-10.86516 -24.26801,-24.26801z" fill="#ffe698" stroke="none" stroke-width="0" stroke-linecap="butt"/><path d="M165.85306,22.15746v16.30507" fill="none" stroke="#000000" stroke-width="6.5" stroke-linecap="round"/><path d="M183.74544,22.6072v16.30507" fill="none" stroke="#000000" stroke-width="6.5" stroke-linecap="round"/><path d="M189.74188,54.76759l-20.85532,-3.0335" fill="none" stroke="#000000" stroke-width="3.5" stroke-linecap="round"/></g></g></svg>