<svg version="1.1" xmlns="http://www.w3.org/2000/svg" xmlns:xlink="http://www.w3.org/1999/xlink" width="49.59645" height="79.0219" viewBox="0,0,49.59645,79.0219"><defs><linearGradient x1="252.21333" y1="157.85584" x2="252.21333" y2="206.68907" gradientUnits="userSpaceOnUse" id="color-1"><stop offset="0" stop-color="#9966ff"/><stop offset="1" stop-color="#ffe966"/></linearGradient><linearGradient x1="246.54428" y1="141.43569" x2="246.54428" y2="166.35747" gradientUnits="userSpaceOnUse" id="color-2"><stop offset="0" stop-color="#66ffdf"/><stop offset="1" stop-color="#9966ff"/></linearGradient><linearGradient x1="251.81644" y1="177.63733" x2="251.81644" y2="213.51574" gradientUnits="userSpaceOnUse" id="color-3"><stop offset="0" stop-color="#9966ff"/><stop offset="1" stop-color="#ffe966"/></linearGradient><linearGradient x1="251.91168" y1="182.68591" x2="251.91168" y2="218.56432" gradientUnits="userSpaceOnUse" id="color-4"><stop offset="0" stop-color="#9966ff"/><stop offset="1" stop-color="#ffe966"/></linearGradient></defs><g transform="translate(-215.17052,-140.81697)"><g data-paper-data="{&quot;isPaintingLayer&quot;:true}" fill-rule="nonzero" stroke-linejoin="miter" stroke-miterlimit="10" stroke-dasharray="" stroke-dashoffset="0" style="mix-blend-mode: normal"><path d="M234.51396,187.63061c-2.95924,0 -5.35815,-2.39892 -5.35815,-5.35816c0,-2.95922 2.39892,-5.35815 5.35815,-5.35815c2.95922,0 5.35816,2.39892 5.35816,5.35815c0,2.95922 -2.39892,5.35816 -5.35816,5.35816z" data-paper-data="{&quot;index&quot;:null}" fill="#9eff66" stroke="#000000" stroke-width="0.875" stroke-linecap="butt"/><path d="M243.03769,182.27245l9.17565,-24.41661l9.17565,24.41661l-9.17565,24.41662z" data-paper-data="{&quot;index&quot;:null}" fill="url(#color-1)" stroke="#000000" stroke-width="0.875" stroke-linecap="butt"/><path d="M234.08338,153.89658l12.4609,-12.46089l12.46089,12.46089l-12.46089,12.46089z" data-paper-data="{&quot;index&quot;:null}" fill="url(#color-2)" stroke="#000000" stroke-width="0.875" stroke-linecap="butt"/><path d="M258.88124,191.20271c-2.95922,0 -5.35816,-2.39892 -5.35816,-5.35816c0,-2.95922 2.39892,-5.35816 5.35816,-5.35816c2.95922,0 5.35816,2.39892 5.35816,5.35816c0,2.95922 -2.39892,5.35816 -5.35816,5.35816z" data-paper-data="{&quot;index&quot;:null}" fill="#9eff66" stroke="#000000" stroke-width="0.875" stroke-linecap="butt"/><path d="M249.63446,160.74895c-1.35732,0 -2.45764,-1.97488 -2.45764,-4.41103c0,-2.43613 1.10034,-4.41103 2.45764,-4.41103c1.35732,0 2.45764,1.97487 2.45764,4.41103c0,2.43616 -1.10034,4.41103 -2.45764,4.41103z" data-paper-data="{&quot;index&quot;:null}" fill="#000000" stroke="none" stroke-width="1.75" stroke-linecap="butt"/><path d="M241.66577,159.79639c-1.35732,0 -2.45764,-1.97488 -2.45764,-4.41103c0,-2.43613 1.10034,-4.41103 2.45764,-4.41103c1.35732,0 2.45764,1.97487 2.45764,4.41103c0,2.43616 -1.10034,4.41103 -2.45764,4.41103z" data-paper-data="{&quot;index&quot;:null}" fill="#000000" stroke="none" stroke-width="1.75" stroke-linecap="butt"/><path d="M245.26033,195.57654h13.11222l-6.55611,17.93921z" data-paper-data="{&quot;index&quot;:null}" fill="url(#color-3)" stroke="#000000" stroke-width="0.875" stroke-linecap="butt"/><path d="M245.35557,200.62511h13.11222l-6.55611,17.93921z" data-paper-data="{&quot;index&quot;:null}" fill="url(#color-4)" stroke="#000000" stroke-width="0.875" stroke-linecap="butt"/><g stroke="#000000" stroke-width="0.75"><path d="M253.63076,180.73509v-1.92166h10.76122v1.92166z" fill="#000000" stroke-linecap="butt"/><path d="M255.74457,178.81345l0.5765,-22.67544l3.45897,-7.49443l3.45896,7.87875l-0.76866,22.15793z" fill="#ffffff" stroke-linecap="round"/><path d="M263.239,156.13801l-3.07464,3.65113l-3.65113,-3.45897" fill="none" stroke-linecap="round"/><path d="M260.16436,159.98129l-0.76866,19.0243" fill="none" stroke-linecap="round"/></g><g stroke="#000000" stroke-width="0.75" stroke-linecap="butt"><path d="M257.85837,194.60624v-3.07463h2.49815v3.07463z" fill="#000000"/><path d="M259.10745,194.60624c1.32662,0 2.40206,0.94638 2.40206,2.11381c0,1.16743 -1.07544,2.11381 -2.40206,2.11381c-1.32662,0 -2.40205,-0.94638 -2.40205,-2.11381c0,-1.16742 1.07543,-2.11381 2.40205,-2.11381z" fill="#ffffff"/></g><g stroke-width="0.875"><path d="M232.58449,198.95411c0,0 -4.83483,-2.09802 -7.1907,-3.59982c-2.95039,-1.8808 -9.0631,-7.03998 -9.0631,-7.03998c0,0 7.02525,-0.26653 10.05769,-1.90643c3.2977,-1.78337 8.99952,-8.39953 8.99952,-8.39953c0,0 0.40656,3.97867 0.45831,6.12762c0.06218,2.58218 -0.11075,8.30576 -0.11075,8.30576c0,0 -0.11107,3.73731 -0.62206,4.77849c-0.51606,1.05153 -2.52893,1.73391 -2.52893,1.73391z" fill="#ffffff" stroke="none" stroke-linecap="butt"/><path d="M228.11948,185.14578c-0.61838,0.47852 -1.23943,0.89888 -1.84562,1.2267c-3.52672,1.90722 -10.66583,1.87477 -10.66583,1.87477" fill="none" stroke="#000000" stroke-linecap="round"/><path d="M235.18781,177.65871c0,0 -2.7549,3.72454 -5.87964,6.49763" fill="none" stroke="#000000" stroke-linecap="round"/><path d="M235.40307,195.65352c-0.37645,1.44413 -0.93337,2.51592 -1.73613,2.95004c-3.52672,1.90722 -17.80887,-10.61388 -17.80887,-10.61388" fill="none" stroke="#000000" stroke-linecap="round"/><path d="M235.43782,177.40112c0,0 1.30159,10.53939 0.2619,16.83055" fill="none" stroke="#000000" stroke-linecap="round"/><path d="M235.33821,195.29706c-0.13881,-0.25668 -0.04325,-0.57726 0.21341,-0.71607c0.25668,-0.13881 0.57728,-0.04326 0.71608,0.21341c0.13881,0.25668 0.04326,0.57728 -0.21341,0.71608c-0.25668,0.13881 -0.57726,0.04324 -0.71608,-0.21342z" fill="#000000" stroke="none" stroke-linecap="butt"/></g></g></g></svg>